<?xml version="1.0" standalone="no"?>
<!DOCTYPE svg PUBLIC "-//W3C//DTD SVG 1.1//EN" "http://www.w3.org/Graphics/SVG/1.1/DTD/svg11.dtd" >
<svg xmlns="http://www.w3.org/2000/svg" xmlns:xlink="http://www.w3.org/1999/xlink" version="1.1">
<metadata></metadata>
<defs>
<font id="als_malinaregular" horiz-adv-x="1329" >
<font-face units-per-em="2048" ascent="1536" descent="-512" />
<missing-glyph horiz-adv-x="436" />
<glyph horiz-adv-x="0" />
<glyph unicode="&#xd;" horiz-adv-x="681" />
<glyph unicode=" "  horiz-adv-x="436" />
<glyph unicode="&#x09;" horiz-adv-x="436" />
<glyph unicode="&#xa0;" horiz-adv-x="436" />
<glyph unicode="!" horiz-adv-x="555" d="M29 166q0 90 69.5 160.5t186.5 70.5q106 0 161.5 -52t55.5 -138q0 -90 -69.5 -161t-186.5 -71q-109 0 -163 52.5t-54 138.5zM35 1135q0 223 246 223q118 0 251 -49q-23 -43 -36 -168t-35 -408q-4 -74 -8 -115q-14 -150 -170 -149q-70 0 -203 39q2 59 -21.5 321.5 t-23.5 305.5z" />
<glyph unicode="&#x22;" horiz-adv-x="954" d="M33 1180q0 90 58.5 150.5t168.5 60.5q108 -1 186 -48l-26 -407q-10 -162 -172 -162q-94 0 -197 37zM508 1180q0 90 59.5 150.5t169.5 60.5q109 -1 187 -48l-29 -407q-8 -162 -170 -162q-94 0 -197 37z" />
<glyph unicode="#" horiz-adv-x="1134" d="M20 408q0 72 47.5 106.5t165.5 34.5h572q147 0 221 29q29 -80 29 -172q0 -72 -46 -108t-165 -36h-27l-35 -168q-23 -111 -159 -110q-80 0 -117 53l43 225h-90l-33 -168q-25 -111 -162 -110q-78 0 -119 53l45 225q-82 -4 -139 -26q-31 86 -31 172zM82 778q0 72 46 107 t167 35h31l26 133q23 113 142 112q37 0 78.5 -15t60.5 -42l-41 -188h92l29 133q23 113 139 112q37 0 79 -15t58 -42l-37 -186q74 4 135 28q27 -90 27 -174q0 -72 -45 -106.5t-166 -34.5h-569q-147 0 -221 -27q-31 82 -31 170z" />
<glyph unicode="$" horiz-adv-x="1290" d="M143 242q0 127 105 190q154 -113 342 -113q33 0 49 1.5t42 6.5t37 18t11 34q0 33 -57.5 49t-140 31.5t-165.5 45.5t-142.5 109.5t-61.5 204.5q0 160 110.5 263.5t321.5 129.5v13q0 123 -10 164q66 47 143 47q133 0 133 -174v-48q160 -16 244 -77.5t84 -159.5 q0 -127 -144 -180q-152 102 -362 102q-123 0 -123 -51q0 -29 64.5 -50.5t156.5 -44t184.5 -58.5t157 -112.5t64.5 -189.5q-12 -313 -334 -387v-12q0 -123 10 -164q-66 -47 -143 -47q-133 0 -133 174v27q-442 8 -443 258z" />
<glyph unicode="%" horiz-adv-x="2082" d="M20 815q0 178 104.5 295t297.5 117q287 0 356 -215q29 -6 56 -6q57 0 100 20q23 10 37 37q104 221 325 221q84 0 154 -36t94 -107q-113 -74 -166 -215l-231 -701q-53 -164 -139 -225t-211 -61q-82 0 -150.5 26.5t-93.5 79.5q98 80 156 244l188 573q-25 -6 -59 -6 q-25 0 -37 2q-4 -172 -104.5 -284.5t-288.5 -114.5q-199 0 -293.5 94t-94.5 262zM319 840q0 -45 23 -78t66 -33q39 0 65.5 32t26.5 85t-23.5 82.5t-62.5 29.5t-67 -32.5t-28 -85.5zM1286 414q0 176 104.5 292.5t297.5 116.5q190 0 284 -95t94 -261q0 -176 -101.5 -293 t-291.5 -119q-199 0 -293 95.5t-94 263.5zM1587 436q0 -45 21.5 -77.5t64.5 -32.5q39 0 65.5 31.5t26.5 85t-23.5 83t-62.5 29.5t-65.5 -33t-26.5 -86z" />
<glyph unicode="&#x26;" horiz-adv-x="1490" d="M27 379q0 125 65.5 215t190.5 113q-168 76 -168 258q0 184 150.5 278t416.5 94q207 0 327.5 -73.5t120.5 -188.5q0 -98 -88 -155q-131 70 -292 69q-188 0 -189 -119q0 -106 117 -106h420q217 4 282 70q94 -72 95 -185q0 -76 -53.5 -129t-153.5 -53q-6 0 -14.5 1t-12.5 1 q45 -53 45 -131q0 -170 -167 -266.5t-466 -96.5q-303 0 -464.5 104.5t-161.5 299.5zM551 391q0 -49 45 -71.5t111 -22.5q76 0 133 34t57 91q0 39 -31 47h-202q-113 0 -113 -78z" />
<glyph unicode="'" horiz-adv-x="485" d="M29 1180q0 90 61.5 150.5t174 60t192.5 -47.5l-29 -407q-10 -162 -176 -162q-96 0 -203 37z" />
<glyph unicode="(" horiz-adv-x="790" d="M23 616.5q0 100.5 11 205t46 227t88 216t147.5 157t214.5 63.5q92 0 161 -52.5t69 -142.5q0 -27 -6 -63q-312 -83 -312 -613q0 -498 312 -581q6 -37 6 -64q0 -92 -67.5 -143t-162.5 -51q-119 0 -212 59.5t-147 149.5t-89 207.5t-47 221t-12 204z" />
<glyph unicode=")" horiz-adv-x="790" d="M31 -31q0 27 6 64q311 83 311 581q0 530 -311 613q-6 37 -6 63q0 90 68.5 142.5t160.5 52.5q121 0 215 -63.5t147.5 -157t88 -216t46 -227t11.5 -205t-12.5 -204t-47 -221t-89 -207.5t-147.5 -149.5t-212 -59.5q-94 0 -161.5 51t-67.5 143z" />
<glyph unicode="*" horiz-adv-x="1011" d="M-41 1264q0 68 44 115.5t116 47.5q96 0 252 -100q-61 127 -62 209q0 139 174 147q176 -8 176 -147q0 -78 -61 -209q150 100 250 100q76 0 118 -48t42 -115q0 -147 -207 -148q-57 0 -144 12q72 -37 115 -62.5t82 -69.5t39 -87q0 -72 -57.5 -120t-128.5 -48 q-86 0 -136.5 75t-87.5 198q-76 -272 -221 -273q-72 0 -129 48.5t-57 119.5q0 45 40 89t82 70t113 60q-86 -12 -143 -12q-209 0 -209 148z" />
<glyph unicode="+" horiz-adv-x="1073" d="M31 590q0 84 50 126t181 42h74q23 0 31 8t8 31v37q0 156 -15 213q92 59 201 59q86 0 136.5 -48t50.5 -175v-125h79q143 0 220 37q47 -115 47 -201q0 -84 -50.5 -126t-181.5 -42h-76q-23 0 -30.5 -8t-7.5 -31v-55q0 -156 14 -213q-92 -59 -201 -60q-86 0 -136 48.5 t-50 175.5v143h-78q-143 0 -219 -37q-47 115 -47 201z" />
<glyph unicode="," horiz-adv-x="575" d="M18 -127q137 63 138 178q0 35 -27 92.5t-27 87.5q0 74 69 120t151 46q113 0 172 -77.5t59 -180.5q0 -147 -101.5 -258.5t-250.5 -111.5q-136 0 -183 104z" />
<glyph unicode="-" horiz-adv-x="917" d="M29 623q0 100 54 138t175 40h369q139 0 219 37q45 -113 45 -234q0 -100 -53 -138t-174 -40h-371q-139 0 -219 -37q-45 113 -45 234z" />
<glyph unicode="." horiz-adv-x="522" d="M25 166q0 90 69.5 160.5t186.5 70.5q106 0 161.5 -52t55.5 -138q0 -90 -69.5 -161t-186.5 -71q-109 0 -163 52.5t-54 138.5z" />
<glyph unicode="/" horiz-adv-x="874" d="M8 16q23 47 74 168l436 1057q51 125 176 125q47 0 99.5 -21.5t74.5 -56.5q-22 -47 -73 -168l-437 -1057q-51 -125 -176 -124q-47 0 -99 21.5t-75 55.5z" />
<glyph unicode="0" horiz-adv-x="1189" d="M27 559q0 283 146 464t433 181q557 0 557 -579q0 -276 -139.5 -461t-415.5 -187q-582 0 -581 582zM457 584q0 -94 41 -161t127 -67q78 0 125 60.5t47 177.5q0 115 -43 175t-115 60q-80 0 -131 -63t-51 -182z" />
<glyph unicode="1" horiz-adv-x="1097" d="M25 1022q72 20 192.5 66.5t213.5 75t155 28.5h86q76 0 108.5 -39t32.5 -121v-690h225q39 -84 39 -172q0 -170 -168 -170h-819q-39 88 -39 174q0 168 168 168h107v459q-127 0 -200 49t-101 172z" />
<glyph unicode="2" horiz-adv-x="1144" d="M31 193q0 174 186 256q225 98 277 141q57 47 57 112q0 47 -35 77t-104 30q-137 0 -256 -80q-125 98 -125 213q0 125 133 194.5t358 69.5q246 0 379 -89t133 -265q0 -324 -524 -471h178q186 0 273 92q70 -33 114.5 -99.5t44.5 -144.5q0 -98 -70.5 -163.5t-220.5 -65.5 h-745q-53 106 -53 193z" />
<glyph unicode="3" horiz-adv-x="1112" d="M27 266q0 127 90 195q150 -106 332 -107q150 0 149 86q0 43 -45 58.5t-160 15.5q-74 0 -74 64v28q0 55 66 84l256 113h-336q-102 0 -161.5 69.5t-59.5 163.5q0 106 74 178q84 -31 248 -30h501q147 0 142 -160l-2 -37q-6 -86 -33 -136t-107 -87l-217 -98q211 -8 303 -84 t92 -222q0 -385 -559 -385q-231 0 -365 72t-134 219z" />
<glyph unicode="4" horiz-adv-x="1243" d="M10.5 436.5q-0.5 83.5 57.5 147.5l446 497q106 115 221 115h180q76 0 109 -39t33 -121v-510l133 9q31 -55 31 -111q0 -53 -35 -93t-99 -40h-30v-268q-104 -39 -226 -39q-260 0 -260 180v127h-161q-158 0 -342 -6q-57 68 -57.5 151.5zM313 526h258v299z" />
<glyph unicode="5" horiz-adv-x="1114" d="M25 258q0 135 88 199q139 -102 360 -103q123 0 123 90q0 29 -9 46.5t-37 24.5t-52.5 8t-79.5 1h-17h-155q-66 0 -108 39t-36 121l52 340q25 160 139 160h446q164 0 248 30q76 -76 76 -178q0 -90 -59.5 -150.5t-161.5 -60.5h-389l-19 -114q102 51 230 51q197 0 309 -93.5 t112 -260.5q0 -205 -141 -319t-434 -114q-82 0 -159 12.5t-154.5 41t-124.5 88t-47 141.5z" />
<glyph unicode="6" horiz-adv-x="1150" d="M27 516q0 145 32.5 266t101 218.5t190.5 151.5t286 54q117 0 209 -19.5t157.5 -73.5t65.5 -136q0 -115 -92 -168q-113 59 -229 59q-232 1 -232 -202q74 100 240 100q178 0 273 -99.5t95 -258.5q0 -203 -143 -318t-412 -115q-543 0 -542 541zM475 500q0 -213 123 -213 q45 0 80 28.5t35 85.5q0 74 -50.5 108t-187.5 34v-43z" />
<glyph unicode="7" horiz-adv-x="1038" d="M25 1018q0 123 73 196q78 -29 248 -28h522q86 0 120 -41t34 -133v-101q0 -174 -100 -262q-137 -123 -197.5 -220t-60.5 -218q0 -88 43 -125q-63 -102 -277 -102q-119 0 -196.5 70.5t-77.5 203.5q0 291 458 547h-364q-106 0 -165.5 60.5t-59.5 152.5z" />
<glyph unicode="8" horiz-adv-x="1185" d="M27 326q0 115 63.5 189.5t163.5 107.5q-172 84 -172 247.5t149.5 249.5t362.5 86q242 0 377 -84t135 -239q0 -174 -184 -250q238 -76 237 -291q0 -188 -159.5 -277.5t-411.5 -89.5q-250 0 -405.5 87.5t-155.5 263.5zM444 356q1 -108 146 -108q55 0 94 22.5t39 65.5 q0 78 -148 145q-63 -25 -97 -53.5t-34 -71.5zM494 881q0 -66 118 -121q100 45 101 119q0 35 -29 57t-84 22q-43 0 -74.5 -18t-31.5 -59z" />
<glyph unicode="9" horiz-adv-x="1144" d="M25 762q0 209 149.5 326.5t421.5 117.5q522 0 522 -530q0 -700 -602 -701q-416 0 -416 228q0 98 72 162q111 -57 242 -58q205 0 215 205q-86 -100 -244 -100q-168 0 -264 98t-96 252zM436 776q0 -72 49.5 -106.5t184.5 -34.5v45q0 217 -111 217q-49 0 -86 -31.5 t-37 -89.5z" />
<glyph unicode=":" horiz-adv-x="522" d="M25 166q0 90 69.5 160.5t186.5 70.5q106 0 161.5 -52t55.5 -138q0 -90 -69.5 -161t-186.5 -71q-109 0 -163 52.5t-54 138.5zM25 858q0 90 69.5 161t186.5 71q106 0 161.5 -52.5t55.5 -138.5q0 -90 -69.5 -160.5t-186.5 -70.5q-109 0 -163 52t-54 138z" />
<glyph unicode=";" horiz-adv-x="585" d="M18 -127q137 63 138 178q0 35 -27 92.5t-27 87.5q0 74 69 120t151 46q113 0 172 -77.5t59 -180.5q0 -147 -101.5 -258.5t-250.5 -111.5q-136 0 -183 104zM88 858q0 90 69.5 161t186.5 71q106 0 161.5 -52.5t55.5 -138.5q0 -90 -69.5 -160.5t-186.5 -70.5q-109 0 -163 52 t-54 138z" />
<glyph unicode="&#x3c;" horiz-adv-x="802" d="M8 532q0 109 78 162l494 342q84 -23 137 -86t53 -141q1 -80 -65 -123l-291 -139l288 -144q72 -41 72 -131q0 -76 -58.5 -141t-142.5 -84l-481 324q-84 57 -84 161z" />
<glyph unicode="=" horiz-adv-x="1011" d="M31 348q0 84 50 126t181 42h455q143 0 219 37q47 -115 47 -207q0 -84 -50 -126t-181 -42h-455q-143 0 -219 -37q-47 115 -47 207zM31 778q0 84 50 126t181 42h455q143 0 219 37q47 -115 47 -207q0 -84 -50 -126t-181 -42h-455q-143 0 -219 -37q-47 115 -47 207z" />
<glyph unicode="&#x3e;" horiz-adv-x="802" d="M29 272q0 90 71 131l289 144l-291 139q-66 43 -65 123q0 78 53 141.5t137 85.5l494 -342q78 -53 78 -162q0 -104 -84 -161l-482 -324q-84 18 -142 84t-58 141z" />
<glyph unicode="?" horiz-adv-x="1009" d="M18 1120q0 125 115 192.5t326 67.5q92 0 176 -14t169 -49t136 -106.5t53 -174.5q0 -84 -33.5 -151.5t-82 -110.5t-96.5 -82t-81.5 -87t-33.5 -105q-78 -55 -222 -56q-98 0 -166.5 44t-68.5 130q0 68 47 124.5t102.5 86t102.5 60.5t47 53q0 39 -105 39q-131 0 -260 -55 q-125 74 -125 194zM236 166q0 90 69.5 160.5t186.5 70.5q106 0 161.5 -52t55.5 -138q0 -90 -69.5 -161t-186.5 -71q-109 0 -163 52.5t-54 138.5z" />
<glyph unicode="@" horiz-adv-x="1863" d="M27 406q0 221 73.5 392t204.5 276.5t302 159.5t374 54q403 0 632.5 -217t229.5 -563q0 -221 -117.5 -377t-341.5 -156q-115 0 -191.5 31t-123.5 123q-94 -145 -289 -145q-123 0 -201.5 65.5t-78.5 177.5q0 123 100 187.5t238 64.5q127 0 211 -35v31q0 45 -37 72.5t-76 36 t-78 8.5q-111 0 -227 -51q-57 66 -58 123q0 86 111 135t262 49q209 0 315.5 -84t106.5 -242v-258q0 -68 55 -67q123 0 123 317q0 252 -163.5 375t-421.5 123q-287 0 -453 -144.5t-166 -423.5q0 -575 504 -575q162 0 241 45q55 -55 56 -121q0 -186 -350 -186 q-365 0 -565.5 224t-200.5 575zM829 268q0 -27 19.5 -45t50.5 -18q45 0 91.5 28.5t58.5 79.5v33q-37 6 -86 6q-74 0 -104 -25.5t-30 -58.5z" />
<glyph unicode="A" horiz-adv-x="1372" d="M51 140q4 54 29 112l260 620q45 105 86 162q-94 -4 -150 -10q-51 106 -51 193q0 174 285 174h369q104 0 162.5 -44t95.5 -153l303 -911q41 -129 86 -224q-233 -75 -341 -75h-3q-74 0 -120 39.5t-79 140.5l-27 82h-448l-94 -246h-226q-74 0 -108 43q-30 38 -29 86v11z M637 586q-10 -35 22 -35h197l-104 336z" />
<glyph unicode="B" horiz-adv-x="1390" d="M14 1210q0 57 24.5 96.5t70 55.5t89.5 22.5t101 6.5h481q586 0 586 -361q0 -90 -42 -163.5t-124 -110.5q121 -29 181.5 -113t60.5 -194q0 -92 -35 -166t-86 -120t-134 -80t-153.5 -51.5t-173 -26.5t-164 -10t-151.5 -1q-76 0 -122 6t-94 26.5t-70.5 67.5t-22.5 123v811 q-80 0 -156 -10q-66 94 -66 192zM723 795h70q149 0 149 125q0 108 -137 108h-82v-233zM725 322q29 -4 68 -5q176 0 176 129q0 117 -152 117h-92v-241z" />
<glyph unicode="C" horiz-adv-x="1308" d="M94 641q0 340 177.5 549t541.5 209q96 0 181 -15.5t159 -49.5t117 -96t43 -146q0 -76 -42 -138.5t-118 -89.5q-180 102 -324 103q-241 0 -241 -277q0 -125 61.5 -193.5t188.5 -68.5q180 0 364 115q59 -33 91 -95.5t32 -132.5q0 -92 -51 -161.5t-134 -106.5t-172.5 -54.5 t-181.5 -17.5q-348 2 -520 177.5t-172 488.5z" />
<glyph unicode="D" horiz-adv-x="1476" d="M49.5 1306.5q24.5 39.5 69.5 55.5t89 22.5t101 6.5h428q395 0 588 -173.5t193 -482.5q0 -381 -220.5 -561t-611.5 -180h-192q-66 0 -113 18.5t-71.5 45t-40 72.5t-18.5 83t-5 92v723q-78 0 -156 -10q-65 93 -65 189q0 60 24.5 99.5zM733 332h31q139 0 208.5 108.5 t69.5 259.5q0 164 -70.5 246t-193.5 82h-45v-696z" />
<glyph unicode="E" horiz-adv-x="1308" d="M14 1210q0 80 55.5 130.5t159.5 50.5h768q135 0 215 20q63 -86 64 -203q0 -61 -23.5 -100t-68.5 -55.5t-83 -20.5t-95 -4h-279v-129q0 -23 6 -30t25 -7h354q27 -68 27 -137q0 -193 -256 -193h-156v-133q0 -23 6.5 -30t24.5 -7h252q113 0 215 27q63 -86 63 -209 q0 -61 -23.5 -100t-68.5 -55.5t-83 -20.5t-95 -4h-555q-111 0 -169 44t-58 175v809q-80 0 -156 -10q-66 94 -66 192z" />
<glyph unicode="F" horiz-adv-x="1298" d="M14 1210q0 80 55.5 130.5t159.5 50.5h775q135 0 215 20q63 -86 63 -203q0 -61 -23.5 -100t-68.5 -55.5t-83 -20.5t-95 -4h-283v-172q0 -23 6.5 -30t24.5 -7h332q26 -64 26 -138v-5q0 -193 -256 -193h-133v-129q8 -156 53 -286q-336 -84 -385 -84q-51 0 -83.5 25.5 t-48 74.5t-21.5 95t-8 116v733q-80 0 -156 -10q-66 94 -66 192z" />
<glyph unicode="G" horiz-adv-x="1437" d="M94 641q0 340 177.5 549t541.5 209q139 0 253 -25.5t198 -95.5t84 -174q0 -72 -42 -132.5t-112 -86.5q-145 84 -344 84q-262 0 -262 -287q0 -313 262 -313q178 0 178 59v41h-14q-193 0 -193 158q0 59 27 133h377q127 0 172 -46t45 -198v-498q-70 -43 -162 -43 q-72 0 -127 38t-76 112q-139 -150 -387 -150q-156 0 -274.5 54.5t-186 149.5t-101.5 211t-34 251z" />
<glyph unicode="H" horiz-adv-x="1591" d="M14 1262q0 37 6 71q98 6 183.5 15.5t184.5 22.5t165 20q41 0 69.5 -17.5t42 -39t21.5 -62.5t9 -68.5t1 -75.5v-223q0 -23 6.5 -30t24.5 -7h307v152q-8 156 -53 287q336 84 391 84q51 0 84 -26t48.5 -75t21.5 -95t8 -116v-725q8 -156 53 -286q-336 -84 -391 -84 q-51 0 -84 25.5t-48 74.5t-21.5 95t-8.5 116v176q0 23 -6 31t-22 8h-310v-156q8 -156 54 -286q-336 -84 -385 -84q-51 0 -84 25.5t-48.5 74.5t-21.5 95t-8 116v698q-96 16 -142.5 92t-46.5 177z" />
<glyph unicode="I" horiz-adv-x="987" d="M55 1210q0 80 55.5 130.5t159.5 50.5h404q135 0 215 20q63 -86 63 -203q0 -150 -159 -159q-23 -2 -23 -27v-680q78 0 156 10q65 -93 65 -179q0 -81 -54 -127t-161 -46h-618q-63 86 -64 182q0 150 160 160q22 2 22 27v680q-80 0 -155 -11q-66 94 -66 172z" />
<glyph unicode="J" horiz-adv-x="811" d="M23 -57q0 49 14 92q33 -4 49 -4q106 0 150.5 69.5t50.5 192.5v700q-96 16 -142.5 92t-46.5 177q0 37 6 71q98 6 183.5 15.5t184.5 22.5t165 20q41 0 69.5 -17.5t42 -39t21.5 -62.5t9 -69t1 -75v-856q0 -125 -25.5 -230t-77.5 -190t-142.5 -133.5t-210.5 -48.5 q-129 0 -215 76t-86 197z" />
<glyph unicode="K" horiz-adv-x="1484" d="M14 1262q0 37 6 71q98 6 183.5 15.5t184.5 22.5t165 20q41 0 69.5 -17.5t42 -39t21.5 -62.5t9 -68.5t1 -75.5v-313h60q100 0 140 74t40 170q0 104 -55 211q113 121 282 121q137 0 206 -89.5t69 -207.5q0 -242 -221 -389q55 -147 157.5 -262t200.5 -136 q-6 -162 -100.5 -238.5t-227.5 -76.5q-96 0 -161.5 24.5t-125 91t-101.5 191.5t-75 322h-88v-267q8 -156 54 -286q-336 -84 -385 -84q-51 0 -84 25.5t-48.5 74.5t-21.5 95t-8 116v698q-96 16 -142.5 92t-46.5 177z" />
<glyph unicode="L" horiz-adv-x="1183" d="M14 1262q0 37 6 71q98 6 183.5 15.5t184.5 22.5t165 20q41 0 69.5 -17.5t42 -39t21.5 -62.5t9 -68.5t1 -75.5v-661q0 -37 21 -37q33 0 100.5 -1t97.5 -1q207 0 332 59q41 -51 62.5 -121.5t21.5 -113.5q0 -82 -28.5 -134t-88 -77t-124 -33t-164.5 -8h-539q-47 0 -81 16.5 t-53.5 42t-30.5 67.5t-14 79t-5 90v698q-96 16 -142.5 92t-46.5 177z" />
<glyph unicode="M" horiz-adv-x="1826" d="M43 1264q0 39 6 71q88 6 281.5 31t292.5 25q86 0 134 -43t81 -138l157 -456l138 456q37 106 97 146q50 34 130 34q16 0 33 -1l155 -23q117 -16 152 -63.5t41 -182.5l37 -755q10 -190 53 -297l-108.5 -28t-114.5 -29t-85 -18t-73 -9q-49 0 -83 25.5t-49 73.5t-21.5 97 t-6.5 115l13 504l-105 -287q-27 -70 -60.5 -106.5t-90.5 -36.5h-107q-53 0 -86 36.5t-66 106.5l-133 287l25 -434q10 -190 53 -297q-33 -8 -107.5 -28t-113.5 -29t-86 -18t-72 -9q-49 0 -82.5 25.5t-49 73.5t-21.5 97t-6 115l28 702q-94 16 -137 90t-43 177z" />
<glyph unicode="N" horiz-adv-x="1525" d="M14 1210q0 80 55.5 130.5t159.5 50.5h205q98 -4 173 -38t145 -124l354 -500l-2 291q-8 221 -53 328q174 43 237.5 43t103.5 -21.5t59 -67t25.5 -95.5t6.5 -128l-19 -1042q-74 -41 -188 -41q-86 0 -130 12t-77 45l-489 652q6 -33 12 -351q4 -213 53 -327 q-174 -43 -237.5 -43t-103.5 21.5t-58.5 66.5t-24.5 95t-6 128v754q-68 0 -135 -11q-66 94 -66 172z" />
<glyph unicode="O" horiz-adv-x="1497" d="M94 645q0 158 42 291t127 238.5t226.5 165t325.5 59.5q694 0 694 -666q0 -158 -41 -291t-123.5 -239.5t-221 -167t-318.5 -60.5q-711 0 -711 670zM588 686q0 -270 211 -270q217 0 217 272q0 129 -55.5 202t-153.5 73q-219 -1 -219 -277z" />
<glyph unicode="P" horiz-adv-x="1411" d="M14 1210q0 57 24.5 96.5t70 55.5t89.5 22.5t101 6.5h469q674 -8 674 -482q0 -225 -139.5 -357t-440.5 -132q-23 0 -73 3t-60 3v-72q8 -156 53 -286q-336 -84 -385 -84q-51 0 -83.5 25.5t-48 74.5t-21.5 95t-8 116v733q-80 0 -156 -10q-66 94 -66 192zM729 715 q14 -2 57 -2q172 0 172 168q0 147 -153 147h-76v-313z" />
<glyph unicode="Q" horiz-adv-x="1499" d="M94 645q0 330 181.5 542t537.5 212q692 0 692 -666q0 -174 -49 -319.5t-158.5 -255t-265.5 -150.5q8 0 149.5 -20.5t209.5 -20.5q115 0 192 23q70 -72 70 -174q0 -123 -86 -184.5t-213 -61.5q-125 2 -341 78t-329 80q-14 51 -14 88q0 129 98 161q-332 4 -503 173 t-171 495zM588 686q0 -270 209 -270q215 0 215 272q0 129 -55.5 202t-151.5 73q-217 -1 -217 -277z" />
<glyph unicode="R" horiz-adv-x="1458" d="M14 1210q0 57 24.5 96.5t70 55.5t89.5 22.5t101 6.5h446q358 0 526.5 -120t168.5 -353q0 -299 -185 -394q104 -174 252 -207q-6 -176 -93 -254.5t-218 -78.5q-43 0 -80 7t-64.5 18t-53 32.5t-43 38t-36 49.5t-28.5 53.5t-23.5 60.5t-19.5 60.5t-18.5 64.5t-16.5 62 q-20 -4 -90 -4v-72q8 -147 55 -286l-108.5 -28t-114.5 -29t-85 -18t-73 -9q-51 0 -83.5 25.5t-48 74.5t-21.5 95t-8 116v733q-80 0 -156 -10q-66 94 -66 192zM723 715q14 -2 63 -2q172 0 172 168q0 147 -153 147h-82v-313z" />
<glyph unicode="S" horiz-adv-x="1206" d="M27 272q0 147 114 220q74 -57 176.5 -94.5t200.5 -37.5q33 0 53.5 2.5t46 7.5t39 20.5t13.5 39.5q0 33 -46 51.5t-115 27.5t-148.5 34.5t-149.5 64.5t-116 124t-48 206q0 213 164 336t471 123q240 0 367 -73t127 -208q0 -66 -40 -122t-118 -85q-166 117 -400 117 q-135 0 -135 -55q0 -33 71 -56.5t172 -50t203.5 -68.5t173.5 -131.5t71 -218.5q-8 -233 -160 -352t-471 -119q-516 0 -516 297z" />
<glyph unicode="T" horiz-adv-x="1304" d="M-31 1165q0 123 68.5 178.5t245.5 55.5q82 0 309 -13.5t307 -13.5q158 0 291 49q90 -154 90 -260q0 -115 -71.5 -173t-264.5 -58h-45q-22 -2 -22 -31v-545q8 -156 53 -286q-336 -84 -385 -84q-51 0 -84 25.5t-48.5 74.5t-21.5 95t-8 116v659q-23 2 -61 2q-139 0 -265 -67 q-88 158 -88 276z" />
<glyph unicode="U" horiz-adv-x="1507" d="M20 1262q0 37 7 71q98 6 183 15.5t183.5 22.5t163.5 20q41 0 69.5 -17.5t42 -39t21.5 -62.5t9 -68.5t1 -75.5v-593q0 -182 144 -183q141 0 141 183v485q-8 156 -53 287q336 84 383 84q51 0 84 -26t48 -75t21.5 -95t8.5 -116v-487q0 -160 -41 -277.5t-101.5 -181 t-151.5 -100.5t-167 -47.5t-172 -10.5t-172 10.5t-167 47.5t-152.5 100.5t-102.5 181t-41 277.5v401q-96 16 -142.5 92t-46.5 177z" />
<glyph unicode="V" horiz-adv-x="1447" d="M4 1133q63 258 281 258q68 0 120 -20.5t85.5 -49.5t64.5 -88t48.5 -107.5t45.5 -136.5q37 -115 94 -375l21 -108q190 389 190 557q0 127 -63 190q39 61 112.5 98.5t151.5 37.5q113 0 195 -78t82 -226q0 -100 -59.5 -248.5t-130.5 -274.5t-130 -263t-59 -217q0 -37 2 -55 q-184 -53 -336 -54q-141 0 -234.5 61t-142.5 208q-12 43 -51 216t-72 300t-92 244.5t-123 130.5z" />
<glyph unicode="W" horiz-adv-x="1916" d="M6 1135q18 121 99 188.5t190 67.5q82 0 142.5 -34t99 -89.5t68.5 -159.5t48.5 -209.5t38.5 -273.5l125 360q23 63 34 89t35.5 49.5t61.5 23.5h115q51 0 76.5 -37t54.5 -125l123 -412q119 303 119 465q0 133 -64 203q33 70 102.5 109t151.5 39q115 0 193.5 -78t78.5 -234 q0 -172 -129 -532q-4 -12 -29.5 -87t-32.5 -99.5t-22.5 -80t-20.5 -95.5t-5 -81q0 -33 6 -67q-160 -59 -279 -62h-6q-106 0 -182 68q-78 70 -115 203l-100 430l-127 -402q-24 -73 -24 -144q0 -46 10 -91q-129 -61 -275 -62q-182 0 -246.5 129t-115.5 543q-23 188 -65 312 t-134 176z" />
<glyph unicode="X" horiz-adv-x="1359" d="M47 211q0 123 88 231l262 295l-39 62q-84 129 -152.5 193.5t-144.5 82.5q6 162 85 234.5t198 72.5q125 0 210 -78.5t230 -322.5q152 213 156 391q66 14 145 14q115 0 185.5 -60t70.5 -189q0 -117 -88 -226l-239 -293q84 -145 165 -203.5t222 -58.5q4 -23 4 -65 q0 -139 -74 -226.5t-213 -87.5q-135 0 -239.5 79t-202.5 239l-53 82q-106 -137 -145.5 -220t-47.5 -171q-82 -18 -131 -19q-115 0 -183.5 58.5t-68.5 185.5z" />
<glyph unicode="Y" horiz-adv-x="1411" d="M-8 1128q20 147 99 205t204 58q72 0 130 -30t100 -72t87 -127t75 -156.5t77 -198.5q4 8 38 68.5t50 94.5t34.5 89t18.5 98q0 63 -35 107q82 127 258 127q129 0 198 -68t69 -170q0 -86 -51.5 -182.5t-118 -172t-150.5 -180t-127 -184.5q-33 -63 -33 -127q0 -121 43 -241 q-332 -82 -383 -82t-84.5 25.5t-49 74.5t-21.5 95t-8 116v113q0 80 -35 149l-197 397q-96 174 -188 174z" />
<glyph unicode="Z" horiz-adv-x="1265" d="M29 236q0 170 131 278l596 440h-371q-147 0 -270 -41q-4 10 -15.5 38t-15.5 38t-13.5 31.5t-12.5 32l-8 28t-7 29.5t-4 26.5t-2 26.5q0 109 83 172.5t257 63.5l522 -27q225 0 283 23q63 -111 63 -262q0 -84 -39 -160t-83 -121t-128 -115l-405 -307q41 -4 206 -32.5 t255 -28.5q92 0 174 24q59 -98 59 -211q0 -117 -80 -189.5t-223 -72.5q-135 0 -382 55.5t-359 55.5q-80 0 -123 -23q-88 96 -88 228z" />
<glyph unicode="[" horiz-adv-x="755" d="M35 -43v1386q0 88 41 138.5t123 50.5h454q68 -61 68 -166q0 -66 -36 -111t-105 -45h-125q-23 -2 -23 -26v-1067q0 -25 23 -27h125q68 0 105.5 -46t37.5 -112q0 -84 -70 -184q-80 20 -215 21h-239q-82 0 -123 50t-41 138z" />
<glyph unicode="\" horiz-adv-x="882" d="M6 1288q23 35 78 56.5t102 21.5q127 0 179 -125l436 -1057q51 -121 73 -168q-20 -35 -77.5 -56t-104.5 -21q-125 -1 -176 124l-436 1057q-51 121 -74 168z" />
<glyph unicode="]" horiz-adv-x="755" d="M33 1348q0 84 69 184q80 -20 215 -21h240q82 0 123 -50t41 -138v-1386q0 -88 -41 -138.5t-123 -50.5h-455q-68 61 -67 166q0 66 35.5 111t105.5 45h125q23 2 23 26v1067q0 25 -23 27h-125q-68 0 -105.5 46t-37.5 112z" />
<glyph unicode="^" horiz-adv-x="983" d="M20 813q0 41 13.5 75t60.5 116l174 280q47 82 93.5 112.5t130.5 30.5q143 0 217 -47l254 -551q-16 -66 -82 -105.5t-142 -39.5q-131 0 -174 98l-112 258l-140 -235q-27 -45 -55 -115q-37 -8 -61 -8q-70 0 -123.5 33t-53.5 98z" />
<glyph unicode="_" horiz-adv-x="1024" d="M29 197q0 100 54 138t175 40h475q139 0 219 37q45 -113 45 -234q0 -100 -53 -138t-174 -40h-477q-139 0 -219 -37q-45 113 -45 234z" />
<glyph unicode="`" horiz-adv-x="600" d="M33 1585q27 66 91 112t136 56l297 -369q29 -31 29 -69q0 -57 -57.5 -105t-120.5 -71l-338 268q-78 59 -37 178z" />
<glyph unicode="a" d="M20 303q0 121 71 202t173.5 112.5t231.5 31.5q119 0 223 -33q-10 131 -191 132q-215 0 -321 -89q-106 61 -107 181q0 117 143.5 183.5t387.5 66.5q109 0 193.5 -11.5t161.5 -42t126 -81t79 -131t30 -189.5v-215q0 -86 67 -86q18 0 55 12q27 -70 27 -133 q0 -106 -76.5 -172t-203.5 -66q-115 0 -190 43t-116 158q-106 -195 -372 -201q-172 0 -282 82t-110 246zM508 342q0 -43 24.5 -67.5t65.5 -24.5q121 0 121 180v55q-45 0 -88 -10t-83 -45t-40 -88z" />
<glyph unicode="b" horiz-adv-x="1402" d="M41 1409q66 14 235.5 68.5t204.5 54.5q148 0 152 -285v-418q106 262 350 263q184 0 285.5 -134.5t101.5 -336.5q0 -295 -173 -470.5t-480 -175.5q-123 0 -224.5 30t-184.5 92.5t-130 175t-47 266.5v524q0 217 -90 346zM641 588q0 -225 131 -226q55 0 86 43.5t31 100.5 q0 82 -51.5 134t-124.5 52q-35 0 -72 -12v-92z" />
<glyph unicode="c" horiz-adv-x="1263" d="M84 502q0 268 164 428t477 160q205 0 356.5 -102.5t151.5 -246.5q0 -84 -55.5 -140t-159.5 -56q-49 0 -94 14q-4 78 -57.5 114t-125.5 36q-88 0 -129 -48.5t-41 -121.5q0 -174 220 -174q190 0 292 102q51 -33 80 -90.5t29 -118.5q0 -131 -124 -207t-357 -76 q-309 0 -468 140.5t-159 386.5z" />
<glyph unicode="d" horiz-adv-x="1402" d="M61 504q0 254 126 420t358 166q162 0 264 -101v168q-6 168 -72 277q102 20 202.5 45.5t150 39t69.5 13.5q49 0 80 -19.5t45 -62.5t19.5 -84t7.5 -111v-962q8 -109 51 -227q-76 -12 -201 -47t-164 -35q-47 0 -76.5 20.5t-44 58t-19.5 74.5t-5 88q-123 -250 -365 -250 q-211 0 -318.5 146.5t-107.5 382.5zM543 584q0 -86 52 -134.5t132 -48.5q39 1 82 13v82q0 223 -137 223q-59 0 -94 -39t-35 -96z" />
<glyph unicode="e" horiz-adv-x="1312" d="M92 502q0 274 168 431t465 157q262 0 411.5 -91.5t149.5 -259.5q0 -82 -45 -143t-124 -95t-168 -49.5t-189 -15.5q-86 0 -172 17q29 -96 225 -97q201 0 336 88q43 -27 67.5 -81t24.5 -105q0 -141 -148.5 -212t-369.5 -71q-631 1 -631 527zM604 592q123 2 188.5 36 t65.5 87q0 73 -80 73h-2q-80 0 -124 -57t-48 -139z" />
<glyph unicode="f" horiz-adv-x="1071" d="M20 870q0 201 205 201h51q-18 74 -18 119q0 176 115.5 268t320.5 92q131 0 208 -61.5t77 -177.5q0 -49 -18 -107q-39 6 -78 6q-158 0 -183 -139h21l264 21q35 -86 35 -164q0 -102 -58.5 -168t-173.5 -66q-2 0 -57 4v-409q8 -115 51 -223q-49 -10 -142 -32t-160.5 -36 t-100.5 -14q-47 0 -78 19.5t-45 59t-19.5 74.5t-7.5 90v494l-161 -21q-47 90 -48 170z" />
<glyph unicode="g" horiz-adv-x="1343" d="M61 629q0 213 176.5 337t442.5 124q174 -4 291 -41q4 25 4 38q0 94 -60 146q27 53 87.5 83t125.5 30q94 0 144.5 -56.5t50.5 -132.5q0 -143 -149 -235q81 -105 81 -239q0 -214 -174 -339t-432 -125q-111 0 -194 14q-4 -8 -4 -22q0 -43 90 -57.5t217 -22.5t255 -30.5 t218 -101.5t90 -216q-14 -395 -692 -395q-135 0 -245 22.5t-186.5 80.5t-76.5 144q0 123 123 160q-158 49 -158 209q0 92 56.5 163t148.5 112q-229 98 -230 350zM401 -281q2 -92 226 -92q72 0 124 18.5t52 51.5q0 29 -70.5 38t-175 11t-145.5 12q-10 -18 -11 -39zM516 645 q0 -113 139 -113q68 0 106 41t38 91q0 112 -135 112q-72 0 -110 -40t-38 -91z" />
<glyph unicode="h" horiz-adv-x="1431" d="M41 1409q66 14 235.5 68.5t204.5 54.5q47 0 79 -25.5t46.5 -75t19.5 -88t7 -96.5v-428q139 270 395 271q143 0 227 -103.5t84 -306.5v-326q2 -78 31 -107.5t103 -39.5q-51 -223 -316 -223q-326 0 -326 305v348q0 86 -57 86q-55 0 -98 -78t-43 -199v-157q8 -115 51 -223 q-49 -10 -145.5 -33t-162 -36t-93.5 -13q-49 0 -80 19.5t-45.5 59t-19.5 74.5t-7 90v836q0 217 -90 346z" />
<glyph unicode="i" horiz-adv-x="802" d="M0 1028q0 -41 2 -71.5t13.5 -71.5t31 -67.5t57 -46t89.5 -21.5v-523q2 -55 7 -90t19 -74.5t45 -59t80 -19.5q31 0 97.5 13t165 35.5t145.5 33.5q-44 108 -52 223v596q0 37 -1 58.5t-8 53t-21.5 49t-41 31t-65.5 13.5q-76 -6 -261 -32t-302 -30zM150 1343q0 104 77.5 168 t206.5 64q119 0 182.5 -54.5t63.5 -150.5q0 -104 -69.5 -164.5t-204.5 -60.5q-256 0 -256 198z" />
<glyph unicode="j" horiz-adv-x="786" d="M-82 -352q0 -106 79 -178t208 -72q117 0 208 46t146 118.5t92 173t50.5 198.5t13.5 207v744q0 37 -1 58.5t-8.5 53t-21.5 49t-41 31t-65 13.5q-76 -6 -260.5 -32t-299.5 -30q0 -41 2.5 -71.5t13.5 -71.5t30.5 -67.5t57.5 -46t89 -21.5v-543q0 -78 -2 -127t-12.5 -122 t-28.5 -115t-57 -73.5t-93 -31.5q-39 0 -77 20q-23 -57 -23 -110zM154 1343q0 104 77.5 168t206.5 64q119 0 182.5 -54.5t63.5 -150.5q0 -104 -69.5 -164.5t-204.5 -60.5q-256 0 -256 198z" />
<glyph unicode="k" horiz-adv-x="1411" d="M41 1409q66 14 235.5 68.5t204.5 54.5q47 0 79 -25.5t46.5 -75t19.5 -88t7 -96.5v-493q174 336 467 336q133 0 197.5 -72t64.5 -180q0 -121 -74 -201t-221 -82q63 -80 168 -80q57 0 104 29q55 -84 56 -193q0 -141 -84 -238.5t-234 -97.5q-104 0 -184 45.5t-122 121 t-62.5 158.5t-20.5 175q94 12 155.5 54t61.5 94q0 29 -17.5 48t-47.5 19q-111 0 -207 -155v-246q8 -115 51 -223q-49 -10 -145.5 -33t-162 -36t-93.5 -13q-49 0 -80 19.5t-45.5 59t-19.5 74.5t-7 90v836q0 217 -90 346z" />
<glyph unicode="l" horiz-adv-x="778" d="M41 1409q66 12 239 67.5t207 55.5q152 0 152 -285v-811q8 -94 51 -129t129 -35q-2 -137 -89 -212.5t-210 -75.5q-172 0 -280.5 93t-108.5 283v703q0 217 -90 346z" />
<glyph unicode="m" horiz-adv-x="2070" d="M-10 1028q115 4 299 29.5t260 32.5q39 0 65.5 -13.5t41 -31t21.5 -49t8 -53t1 -58.5v-49q57 119 146.5 186.5t191.5 67.5q111 0 190.5 -68t110.5 -201q59 125 149.5 197t194.5 72q139 0 227.5 -104.5t88.5 -305.5v-326q2 -78 28.5 -107.5t97.5 -39.5q-49 -223 -319 -223 q-141 0 -223 68.5t-82 236.5v348q0 86 -53 86q-60 0 -95 -92v-342q8 -121 50 -223q-43 -8 -139.5 -32t-160 -37t-96.5 -13q-49 0 -79.5 19.5t-45 59t-19.5 74.5t-7 90v410q0 86 -56 86q-61 0 -100 -92v-342q8 -115 51 -223q-47 -10 -144 -33t-162.5 -36t-96.5 -13 q-49 0 -80 19.5t-45 59t-19.5 74.5t-7.5 90v523q-51 2 -89 21.5t-57.5 46t-30.5 67.5t-13 71.5t-2 71.5z" />
<glyph unicode="n" horiz-adv-x="1488" d="M-10 1028q117 4 302 29.5t261 32.5q39 0 65.5 -13.5t41 -31t21.5 -49t8 -53t1 -58.5v-66q139 270 395 271q143 0 227.5 -103.5t84.5 -306.5v-326q2 -78 30.5 -107.5t102.5 -39.5q-51 -223 -316 -223q-326 0 -325 305v348q0 86 -58 86q-55 0 -97 -74.5t-44 -189.5v-170 q8 -115 51 -223q-47 -10 -145 -33t-164.5 -36t-97.5 -13q-49 0 -80 19.5t-45 59t-19.5 74.5t-7.5 90v523q-51 2 -89 21.5t-57.5 46t-30.5 67.5t-13 71.5t-2 71.5z" />
<glyph unicode="o" d="M72 504q0 254 164.5 420t474.5 166q319 0 473.5 -140.5t154.5 -388.5q0 -252 -161.5 -418t-464.5 -168q-328 0 -484.5 139.5t-156.5 389.5zM559 532q0 -66 37 -115.5t109 -49.5q61 0 103 45t42 120q0 80 -40 125t-101 45q-63 0 -106.5 -46t-43.5 -124z" />
<glyph unicode="p" horiz-adv-x="1452" d="M-10 1028q106 4 279 29.5t243 32.5q43 0 70.5 -16.5t38 -52.5t13.5 -62.5t3 -73.5v-64q59 131 166.5 200t236.5 69q184 0 288 -131.5t104 -364.5q0 -287 -127 -453t-322 -166q-182 0 -303 127v-315q4 -80 32.5 -119t100.5 -47q-51 -221 -295 -221q-158 0 -249 110.5 t-91 339.5v900q-188 4 -188 278zM680 575q0 -86 36 -144t111 -58q59 0 91 40t32 95q0 86 -55 134t-135 48q-43 0 -80 -14v-101z" />
<glyph unicode="q" horiz-adv-x="1376" d="M61 416q0 303 188.5 488.5t520.5 185.5q203 0 359.5 -81.5t166.5 -228.5v-1077q8 -115 52 -223q-49 -10 -144.5 -32.5t-161 -36t-96.5 -13.5q-49 0 -79.5 19.5t-45 59.5t-19.5 74.5t-7 90.5v499q-121 -166 -349 -166q-182 0 -283.5 122t-101.5 319zM543 508 q0 -123 104 -123q66 0 107 53.5t41 149.5v108q-29 14 -68 15q-74 0 -129 -56.5t-55 -146.5z" />
<glyph unicode="r" horiz-adv-x="1257" d="M-10 1028q117 4 302 29.5t261 32.5q39 0 65.5 -13.5t41 -31t21.5 -49t8 -53t1 -58.5v-84q72 152 147.5 220.5t182.5 68.5q100 0 156.5 -68t56.5 -176q-6 -158 -162 -246q-100 55 -192 55q-126 0 -189 -96v-205q2 -78 30 -107.5t101 -39.5q-49 -223 -315 -223 q-324 0 -324 305v461q-51 2 -89 21.5t-57.5 46t-30.5 67.5t-13 71.5t-2 71.5z" />
<glyph unicode="s" horiz-adv-x="1212" d="M92 221q0 61 35 113.5t96 79.5q166 -104 369 -105q65 0 65 36q0 24 -56 37t-136 28.5t-161 43t-137 96t-56 171.5q0 170 150.5 269.5t434.5 99.5q223 0 344 -60.5t121 -173.5q0 -57 -43 -108.5t-131 -77.5q-57 45 -159.5 75.5t-196.5 30.5q-78 0 -78 -35 q0 -18 62.5 -34.5t151.5 -39t177 -56t150.5 -105.5t62.5 -170q0 -360 -582 -361q-483 0 -483 246z" />
<glyph unicode="t" horiz-adv-x="968" d="M51 1305q322 81 402 81h2h1q148 0 148 -237v-59q129 0 264 45q6 -39 22.5 -109t28 -122t11.5 -79q0 -112 -182 -112h-3h-141v-135q0 -260 266 -285q-14 -174 -105 -241.5t-255 -67.5q-76 0 -144.5 24.5t-129 74.5t-96.5 141t-38 212v627q-10 143 -51 242z" />
<glyph unicode="u" horiz-adv-x="1456" d="M-10 1028q117 4 302 29.5t261 32.5q39 0 65.5 -13.5t41 -31t21.5 -49t8 -53t1 -58.5v-457q0 -86 72 -86q45 0 74.5 55.5t29.5 151.5v237q-8 113 -49 222q356 82 408 82q39 0 66.5 -14.5t43 -35t24.5 -55.5t11 -62.5t4 -70.5v-563q8 -115 51 -223q-47 -10 -145 -33 t-164.5 -36t-97.5 -13q-49 0 -80 19.5t-45 59t-19.5 74.5t-7.5 90v23q-72 -143 -160 -209t-212 -66q-145 0 -228.5 95.5t-83.5 296.5v383q-51 2 -89 21.5t-57.5 46t-30.5 67.5t-13 71.5t-2 71.5z" />
<glyph unicode="v" d="M-41 782q33 307 293 308q61 0 111.5 -17.5t85 -44.5t63.5 -72t46 -87t34.5 -104.5t27 -109.5t22.5 -116.5t24 -112.5q2 2 29.5 61.5t40 87t32.5 80t29.5 92t9.5 72.5q0 96 -66 137q31 61 107 97.5t164 36.5q115 0 195.5 -63.5t80.5 -190.5q0 -98 -84 -252t-168 -294 t-84 -208q0 -34 6 -57q-178 -49 -333 -50q-274 0 -365 220q-29 70 -59.5 189.5t-50 197t-68.5 139t-123 61.5z" />
<glyph unicode="w" horiz-adv-x="1818" d="M-37 819q23 270 287 271q102 0 169.5 -38t106.5 -123t57.5 -183.5t32.5 -258.5l99 279q27 76 55.5 107.5t87.5 31.5h111q57 0 89 -33.5t54 -105.5l94 -311q4 12 22.5 68.5t29 94t21.5 92t11 96.5q0 109 -65 150q29 63 104.5 98.5t165.5 35.5q117 0 198 -63.5t81 -190.5 q0 -109 -56.5 -251.5t-113 -275.5t-56.5 -219q0 -12 11 -59q-174 -55 -291 -56q-244 0 -303 220l-72 325l-96 -307q-16 -49 -17 -107q0 -43 8 -75q-174 -55 -288 -56q-231 0 -297 197q-16 49 -46 232.5t-74 299t-120 115.5z" />
<glyph unicode="x" horiz-adv-x="1318" d="M78 188q0 98 76 187l208 207l-10 16q-86 117 -138 162t-124 47q0 90 30 150.5t79 87t89 36t83 9.5q117 0 206 -57.5t199 -225.5l41 59q53 78 53 164q0 23 -8 39q94 23 156 23q115 0 185.5 -53.5t70.5 -168.5q0 -104 -76 -186l-188 -203q59 -86 108 -116.5t127 -32.5 q33 0 60 8q14 -45 14 -94q0 -119 -80 -195t-211 -76q-231 0 -405 254l-29 37l-57 -76q-70 -104 -74 -200q-90 -23 -133 -23q-113 0 -182.5 53.5t-69.5 167.5z" />
<glyph unicode="y" horiz-adv-x="1409" d="M-10 1028q117 4 302 29.5t261 32.5q39 0 65.5 -13.5t41 -31t21.5 -49t8 -53t1 -58.5v-457q0 -86 72 -86q47 0 77.5 56.5t30.5 150.5v237q-8 119 -47 222q356 82 395 82t67 -14.5t43 -35t24.5 -55.5t11.5 -62.5t4 -70.5v-262q0 -160 -10 -293t-37 -275.5t-77 -249 t-123.5 -193.5t-186.5 -133t-256 -46q-170 0 -264.5 83t-94.5 206q0 141 121 200q68 -59 168 -59q63 0 112.5 29.5t77 73.5t45 104.5t22.5 114t5 108.5q-74 -156 -163 -220.5t-213 -64.5q-311 0 -312 392v383q-51 2 -89 21.5t-57.5 46t-30.5 67.5t-13 71.5t-2 71.5z" />
<glyph unicode="z" horiz-adv-x="1230" d="M61 879q0 211 320 211l473 -23h46h43h33.5t34 2t27 4t27.5 5t23.5 7.5t25.5 10.5q70 -125 70 -238q0 -55 -16.5 -99t-54.5 -82t-69.5 -61.5t-91.5 -60.5l-290 -160q31 0 120.5 -4t135.5 -4q123 0 231 23q72 -147 72 -234q0 -192 -282 -192h-3q-104 0 -294.5 8t-272.5 8 q-131 0 -209 -12q-78 125 -78 229q0 125 111 203l501 276h-313q-127 0 -240 -32q-80 164 -80 215z" />
<glyph unicode="{" horiz-adv-x="829" d="M10 594q0 59 51 59q41 0 70 10.5t42 21.5t19.5 40t7.5 43t1 51v283q0 176 94 277.5t270 101.5q98 0 166 -47.5t68 -145.5q0 -27 -6 -61q-70 0 -114 -42t-44 -126v-133q0 -283 -264 -332q127 -23 195.5 -107t68.5 -223v-133q0 -84 44 -126t114 -42q6 -35 6 -61 q0 -98 -67.5 -145.5t-166.5 -47.5q-176 0 -270 101.5t-94 277.5v283q0 37 -1 51t-7.5 43t-19.5 40t-42 21.5t-70 10.5q-25 0 -38 16t-13 41z" />
<glyph unicode="|" horiz-adv-x="448" d="M25 1444q119 59 204 59q160 0 160 -221v-1286q0 -119 35 -209q-119 -59 -205 -59q-160 0 -160 221v1286q0 119 -34 209z" />
<glyph unicode="}" horiz-adv-x="829" d="M31 -98q0 27 6 61q70 0 114 42t44 126v133q0 139 68.5 223t195.5 107q-264 49 -264 332v133q0 84 -44.5 126t-113.5 42q-6 35 -6 61q0 98 67.5 145.5t165.5 47.5q176 0 270.5 -101.5t94.5 -277.5v-283q0 -37 1 -51t7 -43t19.5 -40t42 -21.5t69.5 -10.5q51 0 51 -59 q0 -25 -13 -41t-38 -16q-41 0 -69.5 -10.5t-42 -21.5t-19.5 -40t-7 -43t-1 -51v-283q0 -176 -94.5 -277.5t-270.5 -101.5q-98 0 -165.5 47t-67.5 146z" />
<glyph unicode="~" horiz-adv-x="1304" d="M29 526q0 135 87 213t240 78q109 0 294.5 -65.5t260.5 -65.5q125 0 164 117q90 -20 145.5 -92t55.5 -166q0 -133 -87 -212t-241 -79q-111 0 -295 65.5t-260 65.5q-125 0 -164 -115q-92 20 -146 91t-54 165z" />
<glyph unicode="&#xa1;" horiz-adv-x="555" d="M23 -233q23 43 36 167.5t35 407.5q4 74 8 115q14 150 170 149q70 0 203 -39q-2 -59 21.5 -321t23.5 -305q0 -223 -246 -224q-118 1 -251 50zM53 868q0 90 69.5 161t186.5 71q109 0 163 -52.5t54 -138.5q0 -90 -69.5 -160.5t-186.5 -70.5q-106 0 -161.5 52t-55.5 138z" />
<glyph unicode="&#xa2;" horiz-adv-x="1224" d="M143 471q1 473 404 551v12q0 115 -10 156q59 45 131 45q125 0 125 -164v-37q145 -10 237 -64.5t92 -160.5q0 -125 -133 -174q-133 80 -260 80q-203 0 -203 -209q0 -90 51.5 -142.5t155.5 -52.5q66 0 130.5 16.5t87 28t81.5 41.5q100 -45 101 -168q0 -115 -100.5 -174 t-248.5 -75q0 -102 9 -148q-59 -45 -131 -45q-123 0 -123 166v35q-395 66 -396 483z" />
<glyph unicode="&#xa5;" horiz-adv-x="1406" d="M133 1032q16 106 86 159.5t160 53.5q55 0 97 -10t79 -40t61.5 -57.5t54 -89t49 -106.5t54.5 -135l164 299q37 70 37 133q37 6 178 6q172 0 172 -153q0 -96 -74 -185l-188 -250h45q119 0 149 9q43 -68 43 -117q0 -111 -149 -111h-737q-119 0 -152 -8q-41 66 -41 117 q1 110 148 110h71l-145 209q-86 131 -162 166zM221 262q0 111 148 111h739q119 0 149 8q43 -68 43 -117q0 -111 -149 -110h-211v-39q0 -78 -30.5 -96.5t-125.5 -18.5h-90q-100 0 -131 18.5t-31 96.5v39h-118q-119 0 -152 -9q-41 66 -41 117z" />
<glyph unicode="&#xa7;" horiz-adv-x="1056" d="M25 604q0 102 49 178t139 109q-104 90 -104 215q0 174 134 264t328 90q188 0 294 -68.5t106 -174.5q0 -131 -121 -189q-129 90 -266 90q-45 0 -70 -9t-22.5 -33.5t57.5 -41t135 -35t159 -50t134 -103.5t55 -174q0 -100 -50 -176t-140 -111q104 -84 104 -215 q0 -123 -71.5 -206t-176 -115.5t-235.5 -32.5q-186 0 -290.5 72.5t-104.5 181.5q0 57 33 108t92 80q123 -102 280 -102q49 0 70.5 9t21.5 36q0 20 -40 35.5t-100 26.5t-130 35t-130.5 56.5t-100 97t-39.5 152.5zM408 670q0 -31 31.5 -58.5t63.5 -44t101 -47.5q45 29 45 86 q0 23 -13 42.5t-50 40t-59.5 31.5t-80.5 36q-38 -31 -38 -86z" />
<glyph unicode="&#xa8;" horiz-adv-x="1021" d="M31 1176q0 84 65.5 149.5t175.5 65.5q100 0 151.5 -47.5t51.5 -129.5q0 -84 -65.5 -150.5t-176.5 -66.5q-100 0 -151 48.5t-51 130.5zM547 1176q0 84 65.5 149.5t175.5 65.5q100 0 151.5 -47.5t51.5 -129.5q0 -84 -65 -150.5t-176 -66.5q-100 0 -151.5 48.5t-51.5 130.5z " />
<glyph unicode="&#xa9;" horiz-adv-x="1527" d="M27 604q0 152 43 279t129 227t232.5 156.5t338.5 56.5q391 0 561 -169t170 -480q0 -152 -42 -279t-126 -228t-227.5 -158.5t-333.5 -57.5q-399 0 -572 169t-173 484zM373 592q0 -178 106.5 -281.5t313.5 -103.5q156 0 238.5 49t82.5 135q0 94 -61 133q-68 -35 -183 -35 q-164 0 -163 138q0 55 33.5 92t86.5 37q78 0 136 -66q76 0 120.5 38t44.5 97q0 88 -87 149.5t-218 61.5q-219 0 -334.5 -119.5t-115.5 -324.5z" />
<glyph unicode="&#xab;" horiz-adv-x="1495" d="M16 561q0 76 72 135l512 385q6 -12 26.5 -37.5t26.5 -35.5q104 -141 105 -215q0 -72 -84 -127l-174 -109l172 -96q43 -27 65.5 -63t22.5 -62q0 -72 -101 -205q-49 -66 -59 -86l-512 375q-72 51 -72 141zM719 561q0 78 74 135l510 385q8 -12 27.5 -36.5t27.5 -36.5 q104 -147 104 -215q0 -72 -86 -127l-174 -109l172 -96q45 -27 67.5 -63t22.5 -62q0 -66 -100 -205q-45 -61 -61 -86l-510 375q-74 51 -74 141z" />
<glyph unicode="&#xac;" horiz-adv-x="1038" d="M10 561q0 162 213 162h600q96 0 139.5 -53.5t43.5 -177.5v-166q0 -119 -41 -161t-121 -42q-62 0 -142 29v190q0 23 -8 31t-30 8h-625q-4 25 -12.5 63.5t-12.5 65.5t-4 51z" />
<glyph unicode="&#xad;" horiz-adv-x="917" d="M29 623q0 100 54 138t175 40h369q139 0 219 37q45 -113 45 -234q0 -100 -53 -138t-174 -40h-371q-139 0 -219 -37q-45 113 -45 234z" />
<glyph unicode="&#xae;" horiz-adv-x="1026" d="M27 917.5q0 208.5 122.5 341t370.5 132.5q256 0 367.5 -112t111.5 -316q0 -211 -117.5 -343.5t-361.5 -134.5q-266 0 -379.5 112t-113.5 320.5zM256 791q0 -68 16.5 -93.5t63.5 -25.5q43 0 131 24q-14 66 -14 115v25q4 0 23.5 -1t25.5 -1q18 -94 53 -128t98 -34 q111 0 119 123q-61 23 -90 82q74 35 74 147q-4 88 -71 131t-216 43h-111q-63 0 -82.5 -32.5t-19.5 -96.5v-278zM453 946v119h47q59 0 59 -57q0 -64 -70 -64q-29 0 -36 2z" />
<glyph unicode="&#xaf;" horiz-adv-x="819" d="M31 1221q0 78 48 123t140 45q51 0 212.5 -10.5t186.5 -10.5q82 0 127 18q43 -72 43 -149q0 -76 -46 -121t-132 -47q-57 0 -221 10.5t-188 10.5q-82 0 -127 -19q-43 76 -43 150z" />
<glyph unicode="&#xb0;" horiz-adv-x="931" d="M25 950q0 184 121 312.5t346 128.5q193 0 303 -102.5t110 -299t-115.5 -312.5t-334.5 -116q-211 0 -320.5 103.5t-109.5 285.5zM377 964.5q0 -59.5 27.5 -89t72.5 -29.5q41 0 71 34t30 95q0 121 -95 121q-43 0 -74.5 -36t-31.5 -95.5z" />
<glyph unicode="&#xb1;" horiz-adv-x="1103" d="M23 872q0 84 50 126t181 42h74q23 0 31 8.5t8 30.5v37q0 156 -15 213q92 59 201 60q86 0 136 -48.5t50 -175.5v-125h80q143 0 219 37q47 -115 47 -200q0 -84 -50 -126t-181 -42h-76q-23 0 -31 -8.5t-8 -30.5v-31q0 -47 15 -137q-152 -35 -230 -35q-158 0 -157 111v131 h-78q-143 0 -219 -37q-47 115 -47 200zM29 244q0 84 50 126t181 42h553q143 0 219 37q47 -115 47 -201q0 -84 -50 -126t-181 -42h-553q-143 0 -219 -37q-47 115 -47 201z" />
<glyph unicode="&#xb4;" horiz-adv-x="600" d="M14 1315q0 37 27 69l297 369q72 -12 137.5 -57t89.5 -111q18 -43 11 -95t-46 -83l-337 -268q-63 20 -121 69t-58 107z" />
<glyph unicode="&#xb5;" horiz-adv-x="1546" d="M-10 1028q117 4 313.5 29.5t269.5 32.5q39 0 66 -13.5t41 -31t21.5 -49t8.5 -53t1 -58.5v-518q0 -106 75 -107q72 0 121 74t49 215v237q-8 113 -49 222q356 82 408 82q39 0 66.5 -14.5t43 -35t24.5 -55.5t11 -62.5t4 -70.5v-563q8 -115 52 -223q-47 -10 -145.5 -33 t-165 -36t-97.5 -13q-152 0 -152 196v17h-6q-31 -115 -84 -164t-145 -49q-98 0 -135 77v-163q0 -123 59.5 -193t136.5 -76q-8 -115 -78.5 -172t-171.5 -57q-330 0 -329 418v932q-63 2 -108.5 28.5t-67 71.5t-29.5 88t-8 90z" />
<glyph unicode="&#xb6;" horiz-adv-x="1398" d="M16 489q0 285 179.5 437.5t513.5 152.5h462q29 0 152 6q49 -70 49 -139q0 -72 -48 -120t-130 -52v-1163q-25 -12 -78 -12q-84 0 -124 38.5t-40 133.5v1003h-88v-1163q-29 -12 -80 -12q-82 0 -121.5 38.5t-39.5 133.5v319q-74 -47 -189 -47q-207 0 -312.5 128t-105.5 318z M428 539q0 -63 28.5 -106.5t86.5 -43.5q45 0 80 29v356q-96 -6 -145.5 -69.5t-49.5 -165.5z" />
<glyph unicode="&#xb8;" horiz-adv-x="681" d="M25 -432q0 70 38 123q80 -45 213 -45q86 0 86 35q0 20 -39.5 26t-88 6t-88.5 24.5t-40 78.5q1 22 7 53l41 176h264l-27 -129q129 -14 201 -84t72 -168q0 -145 -111 -212.5t-281 -67.5q-248 0 -247 184z" />
<glyph unicode="&#xbb;" horiz-adv-x="1495" d="M31 791q0 61 100 204q54 70 62 86l509 -374q74 -53 74 -144q0 -76 -74 -133l-509 -385q-6 8 -27 33.5t-29 40.5q-104 143 -104 215t86 127l174 106l-174 99q-43 27 -65.5 62.5t-22.5 62.5zM735 791q0 68 101 204q51 70 59 86l512 -374q72 -55 72 -144q0 -76 -72 -133 l-512 -385q-6 10 -25.5 37t-27.5 37q-104 137 -105 215q0 72 84 127l176 106l-176 99q-86 55 -86 125z" />
<glyph unicode="&#xbf;" horiz-adv-x="1009" d="M16 39q0 84 34 151.5t82 110.5t96 82t82 87t34 105q78 55 221 56q98 0 167 -44t69 -130q0 -68 -47 -124.5t-102.5 -86t-102.5 -60t-47 -53.5q0 -39 104 -39q131 0 260 56q125 -74 125 -195q0 -125 -114.5 -192.5t-325.5 -67.5q-92 0 -176 14.5t-169 49t-136.5 106.5 t-53.5 174zM301 868q0 90 69.5 161t186.5 71q109 0 163 -52.5t54 -138.5q0 -90 -69.5 -160.5t-186.5 -70.5q-106 0 -161.5 52t-55.5 138z" />
<glyph unicode="&#xc0;" horiz-adv-x="1372" d="M51 140.5q4 54.5 29 111.5l260 620q45 105 86 162q-94 -4 -150 -10q-51 106 -51 193q0 174 285 174h369q104 0 162.5 -44t95.5 -153l303 -911q41 -129 86 -224q-236 -76 -344 -75q-74 0 -120 39.5t-79 140.5l-27 82h-448l-94 -246h-226q-74 0 -107.5 43t-29.5 97.5z M360 1890q27 66 91.5 112t136.5 56l297 -368q29 -31 28 -70q0 -57 -57.5 -105t-120.5 -71l-338 268q-78 59 -37 178zM637 586q-10 -35 22 -35h197l-104 336z" />
<glyph unicode="&#xc1;" horiz-adv-x="1370" d="M51 140.5q4 54.5 29 111.5l260 620q45 105 86 162q-94 -4 -150 -10q-51 106 -51 193q0 174 285 174h369q104 0 162.5 -44t95.5 -153l303 -911q41 -129 86 -224q-236 -76 -344 -75q-74 0 -120 39.5t-79 140.5l-27 82h-448l-94 -246h-226q-74 0 -107.5 43t-29.5 97.5z M561 1620q0 37 27 70l297 368q72 -12 137 -57t90 -111q18 -43 11 -95t-46 -83l-338 -268q-63 20 -120.5 69.5t-57.5 106.5zM637 586q-10 -35 22 -35h197l-104 336z" />
<glyph unicode="&#xc2;" horiz-adv-x="1372" d="M51 140.5q-4 -54.5 30 -97.5t107 -43h226l94 246h448l27 -82q33 -100 79 -140t120 -40q109 0 344 75q-45 94 -86 224l-303 911q-37 109 -95.5 153t-162.5 44h-369q-285 0 -285 -174q0 -86 51 -193q56 6 150 10q-41 -57 -86 -162l-260 -620q-25 -57 -29 -111.5z M308.5 1550.5q-17.5 59.5 49.5 149.5l111 135q49 61 89 82.5t108 21.5q147 0 221 -47l248 -319q-14 -63 -76 -101t-133 -38q-94 0 -140 61l-98 170l-78 -125q-27 -41 -59 -110q-92 0 -158.5 30.5t-84 90zM637 586l115 301l104 -336h-197q-32 0 -22 35z" />
<glyph unicode="&#xc3;" horiz-adv-x="1372" d="M51 140.5q-4 -54.5 30 -97.5t107 -43h226l94 246h448l27 -82q33 -100 79 -140t120 -40q109 0 344 75q-45 94 -86 224l-303 911q-37 109 -95.5 153t-162.5 44h-369q-285 0 -285 -174q0 -86 51 -193q56 6 150 10q-41 -57 -86 -162l-260 -620q-25 -57 -29 -111.5zM266 1624 q0 184 215 193q66 0 192 -16.5t163 -16.5q106 0 139 86q80 -8 126 -57t50 -125q0 -96 -63.5 -145.5t-169.5 -49.5q-55 0 -164 15.5t-160 15.5q-115 0 -154 -78q-78 8 -126 56t-48 122zM637 586l115 301l104 -336h-197q-32 0 -22 35z" />
<glyph unicode="&#xc4;" horiz-adv-x="1372" d="M51 140.5q-4 -54.5 30 -97.5t107 -43h226l94 246h448l27 -82q33 -100 79 -140t120 -40q109 0 344 75q-45 94 -86 224l-303 911q-37 109 -95.5 153t-162.5 44h-369q-285 0 -285 -174q0 -86 51 -193q56 6 150 10q-41 -57 -86 -162l-260 -620q-25 -57 -29 -111.5zM246 1632 q0 84 65.5 149.5t175.5 65.5q100 0 151.5 -47t51.5 -129q0 -84 -65 -150.5t-176 -66.5q-100 0 -151.5 48t-51.5 130zM637 586l115 301l104 -336h-197q-32 0 -22 35zM762 1632q0 84 65.5 149.5t176.5 65.5q100 0 151 -47t51 -129q0 -84 -65 -150.5t-176 -66.5 q-100 0 -151.5 48t-51.5 130z" />
<glyph unicode="&#xc5;" horiz-adv-x="1372" d="M51 140.5q-4 -54.5 30 -97.5t107 -43h226l94 246h448l27 -82q33 -100 79 -140t120 -40q109 0 344 75q-45 94 -86 224l-303 911q-37 109 -95.5 153t-162.5 44h-369q-285 0 -285 -174q0 -86 51 -193q56 6 150 10q-41 -57 -86 -162l-260 -620q-25 -57 -29 -111.5zM408 1706 q0 115 83.5 194.5t241.5 79.5q133 0 209 -63.5t76 -186t-79 -194.5t-232 -72q-147 0 -223 64.5t-76 177.5zM637 586l115 301l104 -336h-197q-32 0 -22 35zM651 1716q0 -74 70 -74q29 0 49.5 21.5t20.5 58.5q0 74 -66 74q-29 0 -51.5 -21.5t-22.5 -58.5z" />
<glyph unicode="&#xc6;" horiz-adv-x="1918" d="M52 140.5q7 54.5 34 111.5l291 620q43 92 92 162q-94 -4 -150 -10q-45 84 -45 180q0 186 297 187h1037q135 0 215 20q63 -86 63 -203q0 -61 -23.5 -100t-68.5 -55.5t-83 -20.5t-95 -4h-293v-129q0 -23 6 -30t25 -7h368q27 -68 27 -137q0 -193 -256 -193h-170v-133 q0 -23 6.5 -30t24.5 -7h266q113 0 215 27q63 -86 63 -209q0 -61 -23.5 -100t-68.5 -55.5t-82.5 -20.5t-95.5 -4h-553q-111 0 -169 44t-58 175v27h-334l-106 -246h-226q-74 0 -105.5 43t-24.5 97.5zM662 586q-11 -35 22 -35h164v477z" />
<glyph unicode="&#xc7;" horiz-adv-x="1308" d="M94 641q0 340 177.5 549t541.5 209q96 0 181 -15.5t159 -49.5t117 -96t43 -146q0 -76 -42 -138.5t-118 -89.5q-180 102 -324 103q-242 0 -241 -279q0 -123 61.5 -191.5t188.5 -68.5q180 0 364 115q59 -33 91 -95.5t32 -132.5q0 -152 -126 -232.5t-308 -100.5l-12 -66 q129 -14 200.5 -84t71.5 -168q0 -145 -110.5 -212.5t-280.5 -67.5q-248 0 -248 184q0 70 39 123q80 -45 213 -45q86 0 86 35q0 20 -40 26t-88 6t-88 24.5t-40 78.5q0 23 6 53l27 119q-268 41 -400.5 210t-132.5 443z" />
<glyph unicode="&#xc8;" horiz-adv-x="1308" d="M14 1210q0 80 55.5 130.5t159.5 50.5h768q135 0 215 20q63 -86 64 -203q0 -61 -23.5 -100t-68.5 -55.5t-83 -20.5t-95 -4h-279v-129q0 -23 6 -30t25 -7h354q27 -68 27 -137q0 -193 -256 -193h-156v-133q0 -23 6.5 -30t24.5 -7h252q113 0 215 27q63 -86 63 -209 q0 -61 -23.5 -100t-68.5 -55.5t-83 -20.5t-95 -4h-555q-111 0 -169 44t-58 175v809q-80 0 -156 -10q-66 94 -66 192zM340 1890q27 66 91.5 112t135.5 56l297 -368q29 -31 29 -70q0 -57 -57.5 -105t-120.5 -71l-338 268q-78 59 -37 178z" />
<glyph unicode="&#xc9;" horiz-adv-x="1308" d="M14 1210q0 80 55.5 130.5t159.5 50.5h768q135 0 215 20q63 -86 64 -203q0 -61 -23.5 -100t-68.5 -55.5t-83 -20.5t-95 -4h-279v-129q0 -23 6 -30t25 -7h354q27 -68 27 -137q0 -193 -256 -193h-156v-133q0 -23 6.5 -30t24.5 -7h252q113 0 215 27q63 -86 63 -209 q0 -61 -23.5 -100t-68.5 -55.5t-83 -20.5t-95 -4h-555q-111 0 -169 44t-58 175v809q-80 0 -156 -10q-66 94 -66 192zM434 1620q0 37 27 70l297 368q72 -12 137.5 -57t89.5 -111q18 -43 11 -95t-46 -83l-338 -268q-63 20 -120.5 69.5t-57.5 106.5z" />
<glyph unicode="&#xca;" horiz-adv-x="1308" d="M14 1210q0 -98 66 -192q76 10 156 10v-809q0 -131 58 -175t169 -44h555q57 0 95 4t83 20.5t68.5 55.5t23.5 100q0 123 -63 209q-102 -27 -215 -27h-252q-18 0 -24.5 7.5t-6.5 29.5v133h156q256 0 256 193q0 70 -27 137h-354q-18 0 -24.5 7.5t-6.5 29.5v129h279q57 0 95 4 t83 20.5t68.5 55.5t23.5 100q0 117 -64 203q-80 -20 -215 -20h-768q-104 0 -159.5 -50.5t-55.5 -130.5zM287.5 1572.5q-17.5 59.5 50.5 149.5l111 136q49 61 89 82.5t107 21.5q147 0 221 -47l248 -320q-14 -63 -75.5 -101t-133.5 -38q-94 0 -139 62l-98 170l-78 -125 q-27 -41 -60 -111q-92 0 -158.5 30.5t-84 90z" />
<glyph unicode="&#xcb;" horiz-adv-x="1308" d="M14 1210q0 -98 66 -192q76 10 156 10v-809q0 -131 58 -175t169 -44h555q57 0 95 4t83 20.5t68.5 55.5t23.5 100q0 123 -63 209q-102 -27 -215 -27h-252q-18 0 -24.5 7.5t-6.5 29.5v133h156q256 0 256 193q0 70 -27 137h-354q-18 0 -24.5 7.5t-6.5 29.5v129h279q57 0 95 4 t83 20.5t68.5 55.5t23.5 100q0 117 -64 203q-80 -20 -215 -20h-768q-104 0 -159.5 -50.5t-55.5 -130.5zM180 1632q0 84 65.5 149.5t176.5 65.5q100 0 151.5 -47t51.5 -129q0 -84 -65.5 -150.5t-176.5 -66.5q-100 0 -151.5 48t-51.5 130zM696 1632q0 84 65.5 149.5 t176.5 65.5q100 0 151.5 -47t51.5 -129q0 -84 -65.5 -150.5t-176.5 -66.5q-100 0 -151.5 48t-51.5 130z" />
<glyph unicode="&#xcc;" horiz-adv-x="987" d="M55 1210q0 80 55.5 130.5t159.5 50.5h404q135 0 215 20q63 -86 63 -203q0 -150 -159 -159q-23 -2 -23 -27v-680q78 0 156 10q66 -94 65 -182q0 -78 -54 -124t-161 -46h-618q-63 86 -64 182q0 150 160 160q22 2 22 27v680q-80 0 -155 -11q-66 94 -66 172zM217 1890 q27 66 91.5 112t135.5 56l297 -368q29 -31 29 -70q0 -57 -57.5 -105t-120.5 -71l-338 268q-78 59 -37 178z" />
<glyph unicode="&#xcd;" horiz-adv-x="987" d="M55 1210q0 80 55.5 130.5t159.5 50.5h404q135 0 215 20q63 -86 63 -203q0 -150 -159 -159q-23 -2 -23 -27v-680q78 0 156 10q66 -94 65 -182q0 -78 -54 -124t-161 -46h-618q-63 86 -64 182q0 150 160 160q22 2 22 27v680q-80 0 -155 -11q-66 94 -66 172zM301 1620 q0 37 27 70l297 368q72 -12 137 -57t90 -111q18 -43 11 -95t-46 -83l-338 -268q-63 20 -120.5 69.5t-57.5 106.5z" />
<glyph unicode="&#xce;" horiz-adv-x="987" d="M55 1210q0 -78 66 -172q75 11 155 11v-680q0 -25 -22 -27q-160 -10 -160 -160q0 -96 64 -182h618q106 0 160.5 46t54.5 124q0 88 -65 182q-78 -10 -156 -10v680q0 25 23 27q160 10 159 159q0 117 -63 203q-80 -20 -215 -20h-404q-104 0 -159.5 -50.5t-55.5 -130.5z M117.5 1566.5q-17.5 59.5 50.5 149.5l111 135q49 61 89 83t107 22q147 0 221 -47l248 -320q-14 -63 -75.5 -101t-133.5 -38q-94 0 -139 61l-98 170l-78 -125q-27 -41 -60 -110q-92 0 -158.5 30.5t-84 90z" />
<glyph unicode="&#xcf;" horiz-adv-x="1011" d="M55 1632q0 84 65.5 149.5t176.5 65.5q100 0 151.5 -47t51.5 -129q0 -84 -65.5 -150.5t-176.5 -66.5q-100 0 -151.5 48t-51.5 130zM70 1210q0 -78 65 -172q78 11 156 11v-680q0 -25 -23 -27q-160 -10 -159 -160q0 -96 63 -182h619q106 0 160.5 46t54.5 124q0 88 -66 182 q-76 -10 -156 -10v680q0 25 23 27q160 10 160 159q0 117 -64 203q-80 -20 -215 -20h-403q-104 0 -159.5 -50.5t-55.5 -130.5zM571 1632q0 84 65.5 149.5t176.5 65.5q100 0 151.5 -47t51.5 -129q0 -84 -65.5 -150.5t-176.5 -66.5q-100 0 -151.5 48t-51.5 130z" />
<glyph unicode="&#xd0;" horiz-adv-x="1476" d="M25 1210q0 57 24.5 96.5t69.5 55.5t89 22.5t101 6.5h428q395 0 588 -173.5t193 -482.5q0 -381 -220.5 -561t-611.5 -180h-192q-66 0 -113 18.5t-71.5 45t-40 72.5t-18.5 83t-5 92v260h-53q-47 0 -109 -14q-49 59 -49 127q0 117 166 117h45v233q-78 0 -156 -10 q-66 94 -65 192zM733 332h31q139 0 208.5 108.5t69.5 259.5q0 164 -70.5 246t-193.5 82h-45v-233h47q47 0 109 14q49 -59 49 -127q0 -117 -166 -117h-39v-233z" />
<glyph unicode="&#xd1;" horiz-adv-x="1525" d="M14 1210q0 80 55.5 130.5t159.5 50.5h205q98 -4 173 -38t145 -124l354 -500l-2 291q-8 221 -53 328q174 43 237.5 43t103.5 -21.5t59 -67t25.5 -95.5t6.5 -128l-19 -1042q-74 -41 -188 -41q-86 0 -130 12t-77 45l-489 652q6 -33 12 -351q4 -213 53 -327 q-174 -43 -237.5 -43t-103.5 21.5t-58.5 66.5t-24.5 95t-6 128v754q-68 0 -135 -11q-66 94 -66 172zM362 1608q0 184 216 192q66 0 191.5 -16.5t162.5 -16.5q106 0 139 86q80 -8 126 -57t50 -125q0 -96 -63.5 -145t-169.5 -49q-55 0 -164 15t-160 15q-115 0 -153 -77 q-78 8 -126.5 56t-48.5 122z" />
<glyph unicode="&#xd2;" horiz-adv-x="1497" d="M94 645q0 158 42 291t127 238.5t226.5 165t325.5 59.5q694 0 694 -666q0 -158 -41 -291t-123.5 -239.5t-221 -167t-318.5 -60.5q-711 0 -711 670zM473 1892q27 66 91.5 112t135.5 56l297 -368q29 -31 29 -70q0 -57 -57.5 -105t-120.5 -71l-338 268q-78 59 -37 178z M588 686q0 -270 211 -270q217 0 217 272q0 129 -55.5 202t-153.5 73q-219 -1 -219 -277z" />
<glyph unicode="&#xd3;" horiz-adv-x="1497" d="M94 645q0 158 42 291t127 238.5t226.5 165t325.5 59.5q694 0 694 -666q0 -158 -41 -291t-123.5 -239.5t-221 -167t-318.5 -60.5q-711 0 -711 670zM516 1622q0 37 27 70l297 368q72 -12 137 -57t90 -111q18 -43 11 -95t-46 -83l-338 -268q-63 20 -120.5 69.5t-57.5 106.5z M588 686q0 -270 211 -270q217 0 217 272q0 129 -55.5 202t-153.5 73q-219 -1 -219 -277z" />
<glyph unicode="&#xd4;" horiz-adv-x="1497" d="M94 645q0 -670 711 -670q180 0 318.5 60.5t221 167t123.5 239.5t41 291q0 666 -694 666q-184 0 -325.5 -59.5t-226.5 -165t-127 -238.5t-42 -291zM416.5 1575q-17.5 59 50.5 149l111 136q49 61 89 82.5t107 21.5q147 0 221 -47l248 -320q-14 -63 -75.5 -101t-133.5 -38 q-94 0 -139 62l-98 170l-78 -125q-27 -41 -60 -111q-92 0 -158.5 31t-84 90zM588 686q0 276 219 277q98 0 153.5 -73t55.5 -202q0 -272 -217 -272q-211 0 -211 270z" />
<glyph unicode="&#xd5;" horiz-adv-x="1497" d="M94 645q0 -670 711 -670q180 0 318.5 60.5t221 167t123.5 239.5t41 291q0 666 -694 666q-184 0 -325.5 -59.5t-226.5 -165t-127 -238.5t-42 -291zM344 1642q0 184 215 193q66 0 192 -16.5t162 -16.5q106 0 140 86q80 -8 126 -57t50 -125q0 -96 -63.5 -145.5t-170.5 -49.5 q-55 0 -163.5 15.5t-159.5 15.5q-115 0 -154 -78q-78 8 -126 56.5t-48 121.5zM588 686q0 276 219 277q98 0 153.5 -73t55.5 -202q0 -272 -217 -272q-211 0 -211 270z" />
<glyph unicode="&#xd6;" horiz-adv-x="1497" d="M94 645q0 -670 711 -670q180 0 318.5 60.5t221 167t123.5 239.5t41 291q0 666 -694 666q-184 0 -325.5 -59.5t-226.5 -165t-127 -238.5t-42 -291zM328 1624q0 84 65.5 149.5t175.5 65.5q100 0 151.5 -47t51.5 -129q0 -84 -65.5 -150.5t-176.5 -66.5q-100 0 -151 48 t-51 130zM588 686q0 276 219 277q98 0 153.5 -73t55.5 -202q0 -272 -217 -272q-211 0 -211 270zM844 1624q0 84 65.5 149.5t175.5 65.5q100 0 151.5 -47t51.5 -129q0 -84 -65 -150.5t-176 -66.5q-100 0 -151.5 48t-51.5 130z" />
<glyph unicode="&#xd8;" horiz-adv-x="1497" d="M94 645q0 158 42 291t127 238.5t226.5 165t325.5 59.5q35 0 53 -2l25 71q59 166 203 166q53 0 114.5 -28.5t85.5 -75.5q-4 -8 -79 -211q293 -152 292 -586q0 -158 -41 -291t-123.5 -239.5t-221 -167t-318.5 -60.5q-12 0 -36 1t-34 1l-26 -77q-61 -164 -203 -164 q-53 0 -114.5 28.5t-86.5 73.5q10 25 23.5 59.5t31 83t29.5 78.5q-295 152 -295 586zM588 686q0 -270 211 -270q217 0 217 272q0 129 -55.5 202t-153.5 73q-219 -1 -219 -277z" />
<glyph unicode="&#xd9;" horiz-adv-x="1507" d="M20 1262q0 37 7 71q98 6 183 15.5t183.5 22.5t163.5 20q41 0 69.5 -17.5t42 -39t21.5 -62.5t9 -68.5t1 -75.5v-593q0 -182 144 -183q141 0 141 183v485q-8 156 -53 287q336 84 383 84q51 0 84 -26t48 -75t21.5 -95t8.5 -116v-487q0 -160 -41 -277.5t-101.5 -181 t-151.5 -100.5t-167 -47.5t-172 -10.5t-172 10.5t-167 47.5t-152.5 100.5t-102.5 181t-41 277.5v401q-96 16 -142.5 92t-46.5 177zM428 1784q27 66 91.5 112t135.5 56l297 -369q29 -31 29 -70q0 -57 -57.5 -105t-120.5 -71l-338 269q-78 59 -37 178z" />
<glyph unicode="&#xda;" horiz-adv-x="1507" d="M20 1262q0 37 7 71q98 6 183 15.5t183.5 22.5t163.5 20q41 0 69.5 -17.5t42 -39t21.5 -62.5t9 -68.5t1 -75.5v-593q0 -182 144 -183q141 0 141 183v485q-8 156 -53 287q336 84 383 84q51 0 84 -26t48 -75t21.5 -95t8.5 -116v-487q0 -160 -41 -277.5t-101.5 -181 t-151.5 -100.5t-167 -47.5t-172 -10.5t-172 10.5t-167 47.5t-152.5 100.5t-102.5 181t-41 277.5v401q-96 16 -142.5 92t-46.5 177zM657 1513q0 37 27 70l297 369q72 -12 137.5 -57.5t89.5 -110.5q18 -43 11.5 -95t-45.5 -83l-338 -269q-63 20 -121 69.5t-58 106.5z" />
<glyph unicode="&#xdb;" horiz-adv-x="1507" d="M20 1262q0 -100 46.5 -176t142.5 -93v-401q0 -160 41 -277.5t102.5 -181t152.5 -100.5t167 -47.5t172 -10.5t172 10.5t167 47.5t151.5 100.5t101.5 181t41 277.5v487q-2 70 -8.5 116t-21.5 95t-48 75t-84 26q-47 0 -383 -84q45 -131 53 -287v-485q0 -182 -141 -183 q-143 0 -144 183v593q0 47 -1 75t-9 69t-21.5 62.5t-42 39t-69.5 17.5q-66 -6 -164 -19.5t-183 -23t-183 -15.5q-6 -35 -7 -71zM423 1554.5q-17 59.5 50 149.5l111 135q49 61 89 83t107 22q147 -1 221 -48l248 -319q-14 -63 -75.5 -101t-133.5 -38q-94 0 -139 61l-98 170 l-78 -125q-27 -41 -59 -110q-92 0 -159 30.5t-84 90z" />
<glyph unicode="&#xdc;" horiz-adv-x="1507" d="M20 1262q0 -100 46.5 -176t142.5 -93v-401q0 -160 41 -277.5t102.5 -181t152.5 -100.5t167 -47.5t172 -10.5t172 10.5t167 47.5t151.5 100.5t101.5 181t41 277.5v487q-2 70 -8.5 116t-21.5 95t-48 75t-84 26q-47 0 -383 -84q45 -131 53 -287v-485q0 -182 -141 -183 q-143 0 -144 183v593q0 47 -1 75t-9 69t-21.5 62.5t-42 39t-69.5 17.5q-66 -6 -164 -19.5t-183 -23t-183 -15.5q-6 -35 -7 -71zM330 1626q0 84 65.5 149.5t175.5 65.5q100 0 151.5 -47t51.5 -129q0 -84 -65.5 -150.5t-176.5 -66.5q-100 0 -151 48t-51 130zM846 1626 q0 84 65.5 149.5t175.5 65.5q100 0 151.5 -47t51.5 -129q0 -84 -65 -150.5t-176 -66.5q-100 0 -151.5 48t-51.5 130z" />
<glyph unicode="&#xdd;" horiz-adv-x="1411" d="M-8 1128q20 147 99 205t204 58q72 0 130 -30t100 -72t87 -127t75 -156.5t77 -198.5q4 8 38 68.5t50 94.5t34.5 89t18.5 98q0 63 -35 107q82 127 258 127q129 0 198 -68t69 -170q0 -86 -51.5 -182.5t-118 -172t-150.5 -180t-127 -184.5q-33 -63 -33 -127q0 -121 43 -241 q-332 -82 -383 -82t-84.5 25.5t-49 74.5t-21.5 95t-8 116v113q0 80 -35 149l-197 397q-96 174 -188 174zM541 1452q0 37 26 70l297 368q72 -12 137.5 -57t90.5 -111q18 -43 11 -95t-46 -83l-338 -268q-63 20 -120.5 69.5t-57.5 106.5z" />
<glyph unicode="&#xde;" horiz-adv-x="1380" d="M14 1262q0 37 6 71q98 6 183.5 15.5t184.5 22.5t165 20q109 0 135 -127h74q649 -18 649 -482q0 -225 -139 -357t-441 -132q-45 0 -131 6q13 -125 50 -231q-336 -84 -385 -84q-51 0 -84 25.5t-48.5 74.5t-21.5 95t-8 116v698q-96 16 -142.5 92t-46.5 177zM696 586h60 q172 0 172 168q0 147 -154 147h-76q-2 8 -2 23v-338z" />
<glyph unicode="&#xdf;" horiz-adv-x="1460" d="M131 227v756q0 150 53.5 262.5t147.5 178t208.5 97t252.5 31.5q264 0 427.5 -122.5t163.5 -319.5q1 -129 -69 -240q-135 0 -135 -96q0 -39 32.5 -75.5t78.5 -71.5t92.5 -76t79 -106.5t32.5 -145.5q0 -129 -107.5 -227.5t-304.5 -98.5q-389 0 -389 207q0 94 62 170 q39 -25 145 -24q61 0 87 14t26 49t-34 64.5t-81 56.5t-94 57.5t-81 84t-34 120.5q0 104 66.5 177t179.5 83q0 88 -34 129t-107 41q-96 0 -139.5 -60.5t-43.5 -211.5v-641q10 -145 41 -223q-53 -10 -136 -32t-143.5 -36t-92.5 -14q-47 0 -78 19.5t-45.5 59t-19.5 74.5t-7 90z " />
<glyph unicode="&#xe0;" d="M20 303q0 121 71 202t173.5 112.5t231.5 31.5q119 0 223 -33q-10 131 -191 132q-215 0 -321 -89q-106 61 -107 181q0 117 143.5 183.5t387.5 66.5q109 0 193.5 -11.5t161.5 -42t126 -81t79 -131t30 -189.5v-215q0 -86 67 -86q18 0 55 12q27 -70 27 -133 q0 -106 -76.5 -172t-203.5 -66q-115 0 -190 43t-116 158q-106 -195 -372 -201q-172 0 -282 82t-110 246zM365 1591q27 66 91 112t136 56l297 -368q29 -31 29 -70q0 -57 -58 -105t-121 -71l-338 268q-78 59 -36 178zM508 342q0 -43 24.5 -67.5t65.5 -24.5q121 0 121 180v55 q-45 0 -88 -10t-83 -45t-40 -88z" />
<glyph unicode="&#xe1;" d="M20 303q0 121 71 202t173.5 112.5t231.5 31.5q119 0 223 -33q-10 131 -191 132q-215 0 -321 -89q-106 61 -107 181q0 117 143.5 183.5t387.5 66.5q109 0 193.5 -11.5t161.5 -42t126 -81t79 -131t30 -189.5v-215q0 -86 67 -86q18 0 55 12q27 -70 27 -133 q0 -106 -76.5 -172t-203.5 -66q-115 0 -190 43t-116 158q-106 -195 -372 -201q-172 0 -282 82t-110 246zM408 1319q0 37 26 70l297 368q72 -12 137.5 -57t89.5 -111q18 -43 11.5 -95t-45.5 -83l-338 -268q-63 20 -120.5 69.5t-57.5 106.5zM508 342q0 -43 24.5 -67.5 t65.5 -24.5q121 0 121 180v55q-45 0 -88 -10t-83 -45t-40 -88z" />
<glyph unicode="&#xe2;" d="M20 303q0 121 71 202t173.5 112.5t231.5 31.5q119 0 223 -33q-10 131 -191 132q-215 0 -321 -89q-106 61 -107 181q0 117 143.5 183.5t387.5 66.5q109 0 193.5 -11.5t161.5 -42t126 -81t79 -131t30 -189.5v-215q0 -86 67 -86q18 0 55 12q27 -70 27 -133 q0 -106 -76.5 -172t-203.5 -66q-115 0 -190 43t-116 158q-106 -195 -372 -201q-172 0 -282 82t-110 246zM261.5 1261.5q-17.5 59.5 49.5 149.5l111 135q49 61 89 83t107 22q148 0 222 -47l247 -320q-14 -63 -75.5 -101t-132.5 -38q-94 0 -140 61l-98 170l-78 -125 q-27 -41 -59 -110q-92 0 -158.5 30.5t-84 90zM508 342q0 -43 24.5 -67.5t65.5 -24.5q121 0 121 180v55q-45 0 -88 -10t-83 -45t-40 -88z" />
<glyph unicode="&#xe3;" d="M20 303q0 121 71 202t173.5 112.5t231.5 31.5q119 0 223 -33q-10 131 -191 132q-215 0 -321 -89q-106 61 -107 181q0 117 143.5 183.5t387.5 66.5q109 0 193.5 -11.5t161.5 -42t126 -81t79 -131t30 -189.5v-215q0 -86 67 -86q18 0 55 12q27 -70 27 -133 q0 -106 -76.5 -172t-203.5 -66q-115 0 -190 43t-116 158q-106 -195 -372 -201q-172 0 -282 82t-110 246zM213 1311q0 184 215 192q66 0 191.5 -16.5t162.5 -16.5q106 0 140 86q80 -8 126 -57t50 -125q0 -96 -63.5 -145t-170.5 -49q-55 0 -163.5 15t-159.5 15 q-115 0 -154 -77q-78 8 -126 56t-48 122zM508 342q0 -43 24.5 -67.5t65.5 -24.5q121 0 121 180v55q-45 0 -88 -10t-83 -45t-40 -88z" />
<glyph unicode="&#xe4;" d="M20 303q0 121 71 202t173.5 112.5t231.5 31.5q119 0 223 -33q-10 131 -191 132q-215 0 -321 -89q-106 61 -107 181q0 117 143.5 183.5t387.5 66.5q109 0 193.5 -11.5t161.5 -42t126 -81t79 -131t30 -189.5v-215q0 -86 67 -86q18 0 55 12q27 -70 27 -133 q0 -106 -76.5 -172t-203.5 -66q-115 0 -190 43t-116 158q-106 -195 -372 -201q-172 0 -282 82t-110 246zM168 1333q0 84 65.5 149.5t176.5 65.5q100 0 151 -47t51 -129q0 -84 -65 -150.5t-176 -66.5q-100 0 -151.5 48t-51.5 130zM508 342q0 -43 24.5 -67.5t65.5 -24.5 q121 0 121 180v55q-45 0 -88 -10t-83 -45t-40 -88zM684 1333q0 84 65.5 149.5t176.5 65.5q100 0 151 -47t51 -129q0 -84 -65 -150.5t-176 -66.5q-100 0 -151.5 48t-51.5 130z" />
<glyph unicode="&#xe5;" d="M20 303q0 121 71 202t173.5 112.5t231.5 31.5q119 0 223 -33q-10 131 -191 132q-215 0 -321 -89q-106 61 -107 181q0 117 143.5 183.5t387.5 66.5q109 0 193.5 -11.5t161.5 -42t126 -81t79 -131t30 -189.5v-215q0 -86 67 -86q18 0 55 12q27 -70 27 -133 q0 -106 -76.5 -172t-203.5 -66q-115 0 -190 43t-116 158q-106 -195 -372 -201q-172 0 -282 82t-110 246zM360 1407q0 115 84 194.5t242 79.5q133 0 209 -63.5t76 -186t-79 -194.5t-233 -72q-147 0 -223 64.5t-76 177.5zM508 342q0 -43 24.5 -67.5t65.5 -24.5q121 0 121 180 v55q-45 0 -88 -10t-83 -45t-40 -88zM604 1417q0 -74 70 -74q29 0 49 21.5t20 58.5q0 74 -65 74q-29 0 -51.5 -21.5t-22.5 -58.5z" />
<glyph unicode="&#xe6;" horiz-adv-x="1904" d="M20 303q0 121 71 202t173.5 112.5t231.5 31.5q123 0 227 -33q-10 131 -195 132q-215 0 -321 -89q-106 61 -107 181q0 117 143.5 183.5t387.5 66.5q283 0 385 -144q117 143 362 144q203 0 351.5 -93.5t148.5 -257.5q0 -82 -45 -143t-124 -95t-168 -49.5t-189 -15.5 q-78 0 -164 17q29 -96 217 -97q201 0 336 88q43 -27 67.5 -81t24.5 -105q0 -141 -148.5 -212t-369.5 -71q-197 0 -319 47.5t-191 176.5q-51 -115 -160.5 -169.5t-243.5 -54.5q-162 0 -271.5 87t-109.5 241zM508 342q0 -43 24.5 -67.5t65.5 -24.5q119 0 125 166q-4 45 -4 69 q-78 -2 -144.5 -34.5t-66.5 -108.5zM1204 592q123 2 184.5 34.5t61.5 88.5q0 74 -82 73q-80 0 -120 -56t-44 -140z" />
<glyph unicode="&#xe7;" horiz-adv-x="1267" d="M84 496q0 272 169 433t488 161q203 0 349.5 -101.5t146.5 -243.5q0 -84 -56.5 -142t-162.5 -58q-49 0 -94 14q-2 80 -52.5 115t-119.5 35q-90 0 -135.5 -47.5t-45.5 -120.5q0 -176 217 -176q188 0 295 102q104 -70 105 -205q0 -119 -100.5 -193.5t-292.5 -88.5l-13 -64 q129 -14 201 -84t72 -168q0 -145 -110.5 -212.5t-280.5 -67.5q-248 0 -248 184q0 70 39 123q80 -45 213 -45q86 0 86 35q0 20 -40 26t-88 6t-88 24.5t-40 78.5q0 23 6 53l26 121q-221 37 -333.5 169t-112.5 337z" />
<glyph unicode="&#xe8;" horiz-adv-x="1312" d="M92 502q0 274 168 431t465 157q262 0 411.5 -91.5t149.5 -259.5q0 -82 -45 -143t-124 -95t-168 -49.5t-189 -15.5q-86 0 -172 17q29 -96 225 -97q201 0 336 88q43 -27 67.5 -81t24.5 -105q0 -141 -148.5 -212t-369.5 -71q-631 1 -631 527zM383 1579q27 66 91.5 112 t135.5 56l297 -369q29 -31 29 -69q0 -57 -57.5 -105t-120.5 -71l-338 268q-78 59 -37 178zM604 592q123 2 188.5 36t65.5 87q0 74 -82 73q-80 0 -124 -57t-48 -139z" />
<glyph unicode="&#xe9;" horiz-adv-x="1312" d="M92 502q0 274 168 431t465 157q262 0 411.5 -91.5t149.5 -259.5q0 -82 -45 -143t-124 -95t-168 -49.5t-189 -15.5q-86 0 -172 17q29 -96 225 -97q201 0 336 88q43 -27 67.5 -81t24.5 -105q0 -141 -148.5 -212t-369.5 -71q-631 1 -631 527zM489 1305q0 37 27 69l297 369 q72 -12 137.5 -57.5t89.5 -110.5q18 -43 11.5 -95t-45.5 -83l-338 -269q-63 20 -121 69.5t-58 107.5zM604 592q123 2 188.5 36t65.5 87q0 74 -82 73q-80 0 -124 -57t-48 -139z" />
<glyph unicode="&#xea;" horiz-adv-x="1312" d="M92 502q0 -526 631 -527q221 0 369.5 71t148.5 212q0 51 -24.5 105.5t-67.5 80.5q-135 -88 -336 -88q-197 0 -225 97q86 -16 172 -17q100 0 189 15.5t168 49.5t124 95t45 143q0 168 -149.5 259.5t-411.5 91.5q-297 0 -465 -157t-168 -431zM320.5 1249.5 q-17.5 59.5 50.5 149.5l110 135q49 61 89 82.5t108 21.5q147 0 221 -47l248 -319q-14 -63 -75.5 -101t-133.5 -38q-94 0 -139 61l-99 170l-77 -125q-27 -41 -60 -111q-92 0 -158.5 31t-84 90.5zM604 592q4 82 48 139t124 57q82 0 82 -73q0 -53 -65.5 -87t-188.5 -36z" />
<glyph unicode="&#xeb;" horiz-adv-x="1312" d="M92 502q0 -526 631 -527q221 0 369.5 71t148.5 212q0 51 -24.5 105.5t-67.5 80.5q-135 -88 -336 -88q-197 0 -225 97q86 -16 172 -17q100 0 189 15.5t168 49.5t124 95t45 143q0 168 -149.5 259.5t-411.5 91.5q-297 0 -465 -157t-168 -431zM250 1311q0 84 65.5 149.5 t176.5 65.5q100 0 151 -47t51 -129q0 -84 -65 -150.5t-176 -66.5q-100 0 -151.5 48t-51.5 130zM604 592q4 82 48 139t124 57q82 0 82 -73q0 -53 -65.5 -87t-188.5 -36zM766 1311q0 84 65.5 149.5t176.5 65.5q100 0 151 -47t51 -129q0 -84 -65 -150.5t-176 -66.5 q-100 0 -151.5 48t-51.5 130z" />
<glyph unicode="&#xec;" horiz-adv-x="802" d="M0 1028q117 4 302 29.5t261 32.5q39 0 65.5 -13.5t41 -31t21.5 -49t8 -53t1 -58.5v-596q8 -115 52 -223q-47 -10 -145.5 -33t-165 -36t-97.5 -13q-49 0 -80 19.5t-45 59t-19 74.5t-7 90v523q-51 2 -89 21.5t-57.5 46t-31 67.5t-13.5 71.5t-2 71.5zM51 1585 q27 66 91.5 112t136.5 56l296 -369q29 -31 29 -69q0 -57 -57.5 -105t-120.5 -71l-338 268q-78 59 -37 178z" />
<glyph unicode="&#xed;" horiz-adv-x="802" d="M0 1028q117 4 302 29.5t261 32.5q39 0 65.5 -13.5t41 -31t21.5 -49t8 -53t1 -58.5v-596q8 -115 52 -223q-47 -10 -145.5 -33t-165 -36t-97.5 -13q-49 0 -80 19.5t-45 59t-19 74.5t-7 90v523q-51 2 -89 21.5t-57.5 46t-31 67.5t-13.5 71.5t-2 71.5zM70 1298q0 37 26 70 l297 369q72 -12 137.5 -57.5t90.5 -110.5q18 -43 11 -95t-46 -83l-338 -269q-63 20 -120.5 69.5t-57.5 106.5z" />
<glyph unicode="&#xee;" horiz-adv-x="870" d="M3 1269.5q-17 59.5 50 149.5l111 135q49 61 89 83t107 22q148 0 222 -47l247 -320q-14 -63 -75.5 -101t-132.5 -38q-94 0 -140 61l-98 170l-78 -124q-27 -41 -59 -111q-92 0 -159 30.5t-84 90zM20 1028q0 -41 2.5 -71.5t13.5 -71.5t30.5 -67.5t57.5 -46t89 -21.5v-523 q2 -55 7 -90t19.5 -74.5t45 -59t80.5 -19.5q31 0 97 13t164.5 35.5t145.5 33.5q-43 108 -51 223v596q0 37 -1 58.5t-8 53t-21.5 49t-41 31t-65.5 13.5q-76 -6 -261.5 -32t-302.5 -30z" />
<glyph unicode="&#xef;" horiz-adv-x="1011" d="M0 1337q0 84 65.5 149.5t176.5 65.5q100 0 151 -47t51 -129q0 -84 -65 -150.5t-176 -66.5q-100 0 -151.5 48t-51.5 130zM109 1028q0 -41 2 -71.5t13 -71.5t30.5 -67.5t57.5 -46t89 -21.5v-523q2 -55 7 -90t19.5 -74.5t45 -59t80.5 -19.5q31 0 97 13t164.5 35.5 t145.5 33.5q-43 108 -51 223v596q0 37 -1 58.5t-8 53t-21.5 49t-41 31t-65.5 13.5q-76 -6 -261.5 -32t-301.5 -30zM516 1337q0 84 65.5 149.5t176.5 65.5q100 0 151.5 -47t51.5 -129q0 -84 -65.5 -150.5t-176.5 -66.5q-100 0 -151.5 48t-51.5 130z" />
<glyph unicode="&#xf0;" horiz-adv-x="1316" d="M-10 512q0 217 102.5 342t294.5 125q246 0 338 -115q-4 152 -47 238l-174 -92q-90 31 -90 114q0 70 55 101l31 16q-49 12 -111 12q-57 0 -139 -14q-47 61 -47 115q0 98 105.5 148t250.5 50q227 0 383 -88l105 54q39 20 65 61q51 -20 83 -56t32 -75q0 -55 -70 -92l-57 -31 q145 -201 145 -582q0 -414 -169 -591t-511 -177q-279 0 -427 142.5t-148 394.5zM479 518q0 -70 41 -108.5t92 -38.5q63 0 102.5 70.5t43.5 207.5l2 58q-156 0 -218.5 -48.5t-62.5 -140.5z" />
<glyph unicode="&#xf1;" horiz-adv-x="1488" d="M-10 1028q0 -41 2 -71.5t13 -71.5t30.5 -67.5t57.5 -46t89 -21.5v-523q2 -55 7.5 -90t19.5 -74.5t45 -59t80 -19.5q31 0 97.5 13t164.5 35.5t145 33.5q-43 108 -51 223v170q2 115 44 189.5t97 74.5q57 0 58 -86v-348q0 -305 325 -305q264 0 316 223q-74 10 -102.5 39.5 t-30.5 107.5v326q0 203 -84 306.5t-228 103.5q-256 0 -395 -271v66q0 37 -1 58.5t-8 53t-21.5 49t-41 31t-65.5 13.5q-76 -6 -261.5 -32t-301.5 -30zM297 1315q0 184 215 192q66 0 191.5 -16t162.5 -16q106 0 140 86q80 -8 126 -57.5t50 -125.5q0 -96 -63.5 -145t-170.5 -49 q-55 0 -163.5 15t-159.5 15q-115 0 -154 -77q-78 8 -126 56t-48 122z" />
<glyph unicode="&#xf2;" d="M72 504q0 254 164.5 420t474.5 166q319 0 473.5 -140.5t154.5 -388.5q0 -252 -161.5 -418t-464.5 -168q-328 0 -484.5 139.5t-156.5 389.5zM371 1581q27 66 91 112t136 56l297 -369q29 -31 29 -69q0 -57 -58 -105t-121 -71l-337 268q-78 59 -37 178zM559 532 q0 -66 37 -115.5t109 -49.5q61 0 103 45t42 120q0 80 -40 125t-101 45q-63 0 -106.5 -46t-43.5 -124z" />
<glyph unicode="&#xf3;" d="M72 504q0 254 164.5 420t474.5 166q319 0 473.5 -140.5t154.5 -388.5q0 -252 -161.5 -418t-464.5 -168q-328 0 -484.5 139.5t-156.5 389.5zM442 1309q0 37 27 69l297 369q72 -12 137.5 -57t89.5 -111q18 -43 11 -95t-46 -83l-337 -268q-63 20 -121 69t-58 107zM559 532 q0 -66 37 -115.5t109 -49.5q61 0 103 45t42 120q0 80 -40 125t-101 45q-63 0 -106.5 -46t-43.5 -124z" />
<glyph unicode="&#xf4;" d="M72 504q0 254 164.5 420t474.5 166q319 0 473.5 -140.5t154.5 -388.5q0 -252 -161.5 -418t-464.5 -168q-328 0 -484.5 139.5t-156.5 389.5zM300 1255.5q-17 59.5 50 149.5l111 135q49 61 89 83t107 22q148 -1 222 -48l247 -319q-14 -63 -75.5 -101t-132.5 -38 q-94 0 -140 61l-98 170l-78 -125q-27 -41 -59 -110q-92 0 -159 30.5t-84 90zM559 532q0 -66 37 -115.5t109 -49.5q61 0 103 45t42 120q0 80 -40 125t-101 45q-63 0 -106.5 -46t-43.5 -124z" />
<glyph unicode="&#xf5;" d="M72 504q0 254 164.5 420t474.5 166q319 0 473.5 -140.5t154.5 -388.5q0 -252 -161.5 -418t-464.5 -168q-328 0 -484.5 139.5t-156.5 389.5zM242 1313q0 184 215 192q66 0 191.5 -16t162.5 -16q106 0 139 86q80 -8 126 -57.5t50 -125.5q0 -96 -63.5 -145t-169.5 -49 q-55 0 -163.5 15t-160.5 15q-115 0 -153 -77q-78 8 -126 56t-48 122zM559 532q0 -66 37 -115.5t109 -49.5q61 0 103 45t42 120q0 80 -40 125t-101 45q-63 0 -106.5 -46t-43.5 -124z" />
<glyph unicode="&#xf6;" d="M72 504q0 254 164.5 420t474.5 166q319 0 473.5 -140.5t154.5 -388.5q0 -252 -161.5 -418t-464.5 -168q-328 0 -484.5 139.5t-156.5 389.5zM223 1309q0 84 65.5 149.5t176.5 65.5q100 0 151.5 -47t51.5 -129q0 -84 -65.5 -151t-176.5 -67q-100 0 -151.5 48.5t-51.5 130.5 zM559 532q0 -66 37 -115.5t109 -49.5q61 0 103 45t42 120q0 80 -40 125t-101 45q-63 0 -106.5 -46t-43.5 -124zM739 1309q0 84 65.5 149.5t176.5 65.5q100 0 151.5 -47t51.5 -129q0 -84 -65.5 -151t-176.5 -67q-100 0 -151.5 48.5t-51.5 130.5z" />
<glyph unicode="&#xf7;" horiz-adv-x="978" d="M14 641q0 -92 47 -207q73 35 220 35h454q131 0 181.5 43t50.5 127q0 94 -47 209q-76 -37 -220 -37h-454q-131 0 -181.5 -43t-50.5 -127zM268 215q0 78 64.5 139.5t173.5 61.5q100 0 150.5 -45t50.5 -123t-64.5 -139.5t-173.5 -61.5q-100 0 -150.5 45t-50.5 123zM268 1034 q0 78 64.5 139.5t173.5 61.5q100 0 150.5 -45t50.5 -123t-64.5 -139.5t-173.5 -61.5q-100 0 -150.5 45t-50.5 123z" />
<glyph unicode="&#xf8;" d="M72 504q0 254 164.5 420t474.5 166q55 -1 80 -3l20 56q51 129 180 129q45 0 94.5 -22.5t69.5 -61.5q-14 -29 -72 -172q256 -127 256 -455q0 -252 -161.5 -418t-464.5 -168h-15l-24 -71q-45 -129 -166 -129q-47 0 -102.5 23.5t-75.5 58.5q10 20 31.5 76.5t33.5 86.5 q-324 113 -323 484zM559 532q0 -66 37 -115.5t109 -49.5q61 0 103 45t42 120q0 80 -40 125t-101 45q-63 0 -106.5 -46t-43.5 -124z" />
<glyph unicode="&#xf9;" horiz-adv-x="1456" d="M-10 1028q117 4 302 29.5t261 32.5q39 0 65.5 -13.5t41 -31t21.5 -49t8 -53t1 -58.5v-457q0 -86 72 -86q45 0 74.5 55.5t29.5 151.5v237q-8 113 -49 222q356 82 408 82q39 0 66.5 -14.5t43 -35t24.5 -55.5t11 -62.5t4 -70.5v-563q8 -115 51 -223q-47 -10 -145 -33 t-164.5 -36t-97.5 -13q-49 0 -80 19.5t-45 59t-19.5 74.5t-7.5 90v23q-72 -143 -160 -209t-212 -66q-145 0 -228.5 95.5t-83.5 296.5v383q-51 2 -89 21.5t-57.5 46t-30.5 67.5t-13 71.5t-2 71.5zM379 1526q27 66 91.5 111.5t135.5 56.5l297 -369q29 -31 29 -70 q0 -57 -57.5 -105t-120.5 -71l-338 269q-78 59 -37 178z" />
<glyph unicode="&#xfa;" horiz-adv-x="1456" d="M-10 1028q117 4 302 29.5t261 32.5q39 0 65.5 -13.5t41 -31t21.5 -49t8 -53t1 -58.5v-457q0 -86 72 -86q45 0 74.5 55.5t29.5 151.5v237q-8 113 -49 222q356 82 408 82q39 0 66.5 -14.5t43 -35t24.5 -55.5t11 -62.5t4 -70.5v-563q8 -115 51 -223q-47 -10 -145 -33 t-164.5 -36t-97.5 -13q-49 0 -80 19.5t-45 59t-19.5 74.5t-7.5 90v23q-72 -143 -160 -209t-212 -66q-145 0 -228.5 95.5t-83.5 296.5v383q-51 2 -89 21.5t-57.5 46t-30.5 67.5t-13 71.5t-2 71.5zM588 1255q0 37 26 70l297 369q72 -12 137.5 -57.5t90.5 -110.5q18 -43 11 -95 t-46 -83l-338 -269q-63 20 -120.5 69.5t-57.5 106.5z" />
<glyph unicode="&#xfb;" horiz-adv-x="1456" d="M-10 1028q0 -41 2 -71.5t13 -71.5t30.5 -67.5t57.5 -46t89 -21.5v-383q0 -201 83 -296.5t229 -95.5q125 0 213 65.5t159 209.5v-23q2 -55 7.5 -90t19.5 -74.5t45 -59t80 -19.5q31 0 97.5 13t164.5 35.5t145 33.5q-43 109 -51 223v563q-2 43 -4 70.5t-11 62.5t-24.5 55.5 t-43 35t-66.5 14.5q-51 0 -408 -82q41 -109 49 -222v-237q0 -96 -29.5 -151.5t-74.5 -55.5q-72 0 -72 86v457q0 37 -1 58.5t-8 53t-21.5 49t-41 31t-65.5 13.5q-76 -6 -261.5 -32t-301.5 -30zM336.5 1269.5q-17.5 59.5 50.5 149.5l111 135q49 61 89 83t107 22q147 0 221 -47 l248 -320q-14 -63 -75.5 -101t-133.5 -38q-94 0 -139 61l-98 170l-78 -124q-27 -41 -59 -111q-92 0 -159 30.5t-84.5 90z" />
<glyph unicode="&#xfc;" horiz-adv-x="1456" d="M-10 1028q0 -41 2 -71.5t13 -71.5t30.5 -67.5t57.5 -46t89 -21.5v-383q0 -201 83 -296.5t229 -95.5q125 0 213 65.5t159 209.5v-23q2 -55 7.5 -90t19.5 -74.5t45 -59t80 -19.5q31 0 97.5 13t164.5 35.5t145 33.5q-43 109 -51 223v563q-2 43 -4 70.5t-11 62.5t-24.5 55.5 t-43 35t-66.5 14.5q-51 0 -408 -82q41 -109 49 -222v-237q0 -96 -29.5 -151.5t-74.5 -55.5q-72 0 -72 86v457q0 37 -1 58.5t-8 53t-21.5 49t-41 31t-65.5 13.5q-76 -6 -261.5 -32t-301.5 -30zM256 1335q0 84 65.5 149.5t176.5 65.5q100 0 151 -47t51 -129q0 -84 -65 -150.5 t-176 -66.5q-100 0 -151.5 48t-51.5 130zM772 1335q0 84 65.5 149.5t176.5 65.5q100 0 151.5 -47t51.5 -129q0 -84 -65.5 -150.5t-176.5 -66.5q-100 0 -151.5 48t-51.5 130z" />
<glyph unicode="&#xfd;" horiz-adv-x="1409" d="M-10 1028q117 4 302 29.5t261 32.5q39 0 65.5 -13.5t41 -31t21.5 -49t8 -53t1 -58.5v-457q0 -86 72 -86q47 0 77.5 56.5t30.5 150.5v237q-8 119 -47 222q356 82 395 82t67 -14.5t43 -35t24.5 -55.5t11.5 -62.5t4 -70.5v-262q0 -160 -10 -293t-37 -275.5t-77 -249 t-123.5 -193.5t-186.5 -133t-256 -46q-170 0 -264.5 83t-94.5 206q0 141 121 200q68 -59 168 -59q63 0 112.5 29.5t77 73.5t45 104.5t22.5 114t5 108.5q-74 -156 -163 -220.5t-213 -64.5q-311 0 -312 392v383q-51 2 -89 21.5t-57.5 46t-30.5 67.5t-13 71.5t-2 71.5z M592 1255q0 37 26 70l297 369q72 -12 137.5 -57.5t90.5 -110.5q18 -43 11 -95t-46 -83l-338 -269q-63 20 -120.5 69.5t-57.5 106.5z" />
<glyph unicode="&#xfe;" horiz-adv-x="1390" d="M41 1409q66 14 235.5 68.5t204.5 54.5q147 0 152 -285v-418q106 262 350 263q201 0 294 -146.5t93 -374.5q-6 -276 -132 -436t-316 -160q-205 0 -289 78v-266q4 -80 32.5 -119t100.5 -47q-51 -221 -295 -221q-158 0 -249 110.5t-91 339.5v1213q0 217 -90 346zM641 588 q0 -225 131 -226q55 0 86 43.5t31 100.5q0 82 -51.5 134t-124.5 52q-35 0 -72 -12v-92z" />
<glyph unicode="&#xff;" horiz-adv-x="1409" d="M-10 1028q0 -41 2 -71.5t13 -71.5t30.5 -67.5t57.5 -46t89 -21.5v-383q0 -391 312 -392q125 0 213.5 64.5t162.5 220.5q0 -55 -5 -108.5t-22.5 -114t-45 -104.5t-76.5 -73.5t-113 -29.5q-100 0 -168 59q-121 -59 -121 -200q0 -123 94.5 -206t264.5 -83q143 0 256 46 t186.5 133t123.5 193.5t77 249t37 275.5t10 293v262q-2 43 -4 70.5t-11.5 62.5t-24.5 55.5t-43 35t-66.5 14.5t-395.5 -82q39 -102 47 -222v-237q0 -94 -30.5 -150.5t-77.5 -56.5q-72 0 -72 86v457q0 37 -1 58.5t-8 53t-21.5 49t-41 31t-65.5 13.5q-76 -6 -261.5 -32 t-301.5 -30zM260 1339q0 84 65.5 149.5t176.5 65.5q100 0 151.5 -47t51.5 -129q0 -84 -65.5 -150.5t-176.5 -66.5q-100 0 -151.5 48t-51.5 130zM776 1339q0 84 65.5 149.5t176.5 65.5q100 0 151.5 -47t51.5 -129q0 -84 -65.5 -150.5t-176.5 -66.5q-100 0 -151.5 48 t-51.5 130z" />
<glyph unicode="&#x152;" horiz-adv-x="2013" d="M94 643q0 152 41 285t122 239.5t214 169t303 62.5q127 0 256 -53q45 45 137 45h535q135 0 215 20q63 -86 63 -203q0 -61 -23.5 -100t-68.5 -55.5t-83 -20.5t-95 -4h-278v-129q0 -23 6 -30t24 -7h355q27 -68 26 -137q0 -193 -256 -193h-155v-133q0 -23 6 -30t24 -7h252 q113 0 215 27q63 -86 64 -209q0 -61 -23.5 -100t-69 -55.5t-83 -20.5t-95.5 -4h-555q-117 0 -174 57q-111 -82 -293 -82q-285 0 -445.5 184.5t-160.5 483.5zM588 686q0 -59 9 -111.5t32.5 -106.5t75 -87t122.5 -33q61 0 113 14v654q-49 14 -104 14q-131 0 -189.5 -97 t-58.5 -247z" />
<glyph unicode="&#x153;" horiz-adv-x="1990" d="M72 481q0 264 156.5 435t467.5 171q184 0 320 -96q160 98 387 99q262 0 411.5 -91.5t149.5 -259.5q0 -82 -45 -143t-124 -95t-168 -49.5t-189 -15.5q-86 0 -172 17q29 -96 225 -97q201 0 336 88q43 -27 67.5 -81t24.5 -105q0 -141 -148.5 -212t-369.5 -71q-246 0 -397 82 q-166 -80 -345 -80q-264 0 -425.5 129t-161.5 375zM559 528q0 -92 40 -149t120 -57q31 0 72 10q-21 70 -21 170q0 125 39 231q-43 16 -84 17q-80 0 -123 -62.5t-43 -159.5zM1282 592q123 2 188.5 36t65.5 87q0 74 -82 73q-80 0 -124 -57t-48 -139z" />
<glyph unicode="&#x178;" horiz-adv-x="1411" d="M-8 1128q92 0 188 -174l197 -397q35 -70 35 -149v-113q2 -70 8 -116t21.5 -95t49 -74.5t85 -25.5t382.5 82q-43 121 -43 241q0 63 33 127q43 80 127 184.5t150.5 180t118 172t51.5 182.5q0 102 -69 170t-198 68q-176 0 -258 -127q35 -43 35 -107q0 -43 -18.5 -98 t-34.5 -89t-50 -94.5t-38 -68.5q-47 127 -77 198.5t-75 156.5t-87 127t-100 72t-130 30q-125 0 -204 -57.5t-99 -205.5zM250 1614q0 84 65.5 149.5t176.5 65.5q100 0 151 -47t51 -129q0 -84 -65 -150.5t-176 -66.5q-100 0 -151.5 48t-51.5 130zM766 1614q0 84 65.5 149.5 t176.5 65.5q100 0 151 -47t51 -129q0 -84 -65 -150.5t-176 -66.5q-100 0 -151.5 48t-51.5 130z" />
<glyph unicode="&#x192;" horiz-adv-x="1003" d="M-217 -377q0 63 39 135q35 -20 74 -20q45 0 81.5 19.5t61 59.5t42 80t31 102t19.5 102t14 106l64 514l-164 -21q-29 74 -29 144q0 227 232 227h51q-2 18 -2 53q0 207 128 317.5t339 110.5q117 0 193.5 -52t76.5 -159q0 -57 -35 -137q-41 6 -75 6q-160 0 -201 -139l287 21 q18 -61 18 -127q0 -115 -66.5 -193t-195.5 -78q-2 0 -57 4l-68 -557q-12 -109 -39 -207t-75 -198.5t-112.5 -173t-160.5 -118.5t-213 -46q-119 0 -188.5 63.5t-69.5 161.5z" />
<glyph unicode="&#x2c6;" horiz-adv-x="950" d="M103.5 1060.5q-17.5 59.5 50.5 149.5l110 136q49 61 89 82.5t108 21.5q147 0 221 -47l248 -320q-14 -63 -75.5 -101t-133.5 -38q-94 0 -139 62l-99 170l-77 -125q-27 -41 -60 -111q-92 0 -158.5 30.5t-84 90z" />
<glyph unicode="&#x2c7;" horiz-adv-x="950" d="M20 1315q14 63 76 101t133 38q94 0 140 -61l96 -179l82 125q27 41 59 111q92 0 158.5 -30.5t84 -90t-49.5 -149.5l-115 -136q-53 -61 -91 -82.5t-106 -21.5q-147 0 -221 47z" />
<glyph unicode="&#x2d8;" horiz-adv-x="860" d="M27 1245q0 68 44 116t134 56q98 -123 225 -123q125 0 227 123q88 -8 132.5 -57t44.5 -115q0 -111 -113 -186.5t-291 -77.5q-178 2 -290.5 78t-112.5 186z" />
<glyph unicode="&#x2d9;" horiz-adv-x="552" d="M25 1204q0 98 73.5 172t198.5 74q113 0 172 -54.5t59 -146.5q0 -96 -74.5 -170.5t-199.5 -74.5q-113 0 -171 54t-58 146z" />
<glyph unicode="&#x2da;" horiz-adv-x="661" d="M25 1225q0 115 83.5 194.5t241.5 79.5q133 0 209 -63.5t76 -186.5t-79 -194.5t-232 -71.5q-147 0 -223 64.5t-76 177.5zM268 1235q0 -74 70 -74q29 0 49.5 21.5t20.5 58.5q0 74 -66 74q-29 0 -51.5 -21.5t-22.5 -58.5z" />
<glyph unicode="&#x2db;" horiz-adv-x="587" d="M23 -297q0 203 260 358l178 -49q-31 -25 -55.5 -69.5t-24.5 -83.5q0 -76 76 -76q43 0 75 12q37 -59 37 -110q0 -96 -76.5 -150.5t-218.5 -54.5q-119 0 -185 62.5t-66 160.5z" />
<glyph unicode="&#x2dc;" horiz-adv-x="931" d="M23 1202q0 184 215 193q66 0 191.5 -16.5t162.5 -16.5q106 0 139 86q80 -8 126 -57t50 -125q0 -96 -63.5 -145.5t-169.5 -49.5q-55 0 -164 15.5t-160 15.5q-115 0 -153 -78q-78 8 -126 56t-48 122z" />
<glyph unicode="&#x2dd;" horiz-adv-x="1085" d="M23 1161q0 37 28 72l297 366q154 -20 207 -151q41 -119 -37 -180l-338 -267q-158 53 -157 160zM514 1161q0 37 27 72l297 366q154 -20 206 -151q42 -119 -36 -180l-338 -267q-61 20 -108.5 61.5t-47.5 98.5z" />
<glyph unicode="&#x401;" horiz-adv-x="1308" d="M14 1210q0 -98 66 -192q76 10 156 10v-809q0 -131 58 -175t169 -44h555q57 0 95 4t83 20.5t68.5 55.5t23.5 100q0 123 -63 209q-102 -27 -215 -27h-252q-18 0 -24.5 7.5t-6.5 29.5v133h156q256 0 256 193q0 70 -27 137h-354q-18 0 -24.5 7.5t-6.5 29.5v129h279q57 0 95 4 t83 20.5t68.5 55.5t23.5 100q0 117 -64 203q-80 -20 -215 -20h-768q-104 0 -159.5 -50.5t-55.5 -130.5zM174 1636q0 80 70.5 142.5t191.5 62.5q111 0 167 -46t56 -122q0 -82 -70.5 -144.5t-191.5 -62.5q-111 0 -167 46.5t-56 123.5zM733 1636q0 80 70.5 142.5t191.5 62.5 q111 0 167.5 -46t56.5 -122q0 -82 -71 -144.5t-192 -62.5q-111 0 -167 46.5t-56 123.5z" />
<glyph unicode="&#x402;" horiz-adv-x="1648" d="M-31 1165q0 123 68.5 178.5t245.5 55.5q82 0 309 -13.5t307 -13.5q158 0 291 49q90 -154 90 -260q0 -113 -70.5 -164t-265.5 -51h-45q-23 -2 -22 -31v-253q63 111 174.5 168t234.5 57q203 0 319.5 -125t116.5 -338q0 -201 -120.5 -326t-348.5 -125q-141 0 -219 62.5 t-78 163.5q0 74 41 151q70 -18 125 -18q143 0 144 121q0 129 -160 129q-80 0 -148.5 -41t-80.5 -119v-68q10 -176 47 -286q-33 -8 -108 -28t-113.5 -29t-86 -18t-71.5 -9q-51 0 -84 25.5t-48.5 74.5t-21.5 95t-8 116v676q-23 2 -61 2q-139 0 -265 -68q-88 158 -88 260z" />
<glyph unicode="&#x403;" horiz-adv-x="1275" d="M16 1282q0 53 11 109h852q166 0 295 51q90 -160 90 -273q0 -121 -71.5 -181t-268.5 -60h-199q-23 -2 -23 -31v-543q8 -156 54 -286q-336 -84 -385 -84q-51 0 -84 25.5t-48.5 74.5t-21.5 95t-8 116v743q-193 35 -193 244zM307 1616q0 37 27 70l297 368q72 -12 137.5 -57 t89.5 -111q18 -43 11 -95t-46 -83l-338 -268q-63 20 -120.5 69.5t-57.5 106.5z" />
<glyph unicode="&#x404;" horiz-adv-x="1302" d="M82 657q0 119 17.5 216.5t66.5 196.5t130 167t217 111t316 43q127 -4 226.5 -28t173.5 -86.5t74 -156.5q0 -139 -156 -188q-125 82 -307 86q-225 0 -260 -150h372q86 0 86 -127v-75q0 -127 -86 -127h-385q10 -94 67.5 -129t184.5 -35q293 0 410 98q74 -63 74 -180 q0 -102 -45.5 -170t-128 -97.5t-158.5 -40t-176 -10.5q-387 0 -550 160t-163 522z" />
<glyph unicode="&#x405;" horiz-adv-x="1206" d="M27 272q0 147 114 220q74 -57 176.5 -94.5t200.5 -37.5q33 0 53.5 2.5t46 7.5t39 20.5t13.5 39.5q0 33 -46 51.5t-115 27.5t-148.5 34.5t-149.5 64.5t-116 124t-48 206q0 213 164 336t471 123q240 0 367 -73t127 -208q0 -66 -40 -122t-118 -85q-166 117 -400 117 q-135 0 -135 -55q0 -33 71 -56.5t172 -50t203.5 -68.5t173.5 -131.5t71 -218.5q-8 -233 -160 -352t-471 -119q-516 0 -516 297z" />
<glyph unicode="&#x406;" horiz-adv-x="987" d="M55 1210q0 80 55.5 130.5t159.5 50.5h404q135 0 215 20q63 -86 63 -203q0 -150 -159 -159q-23 -2 -23 -27v-680q78 0 156 10q66 -94 65 -182q0 -78 -54 -124t-161 -46h-618q-63 86 -64 182q0 150 160 160q22 2 22 27v680q-80 0 -155 -11q-66 94 -66 172z" />
<glyph unicode="&#x407;" horiz-adv-x="987" d="M55 1210q0 80 55.5 130.5t159.5 50.5h404q135 0 215 20q63 -86 63 -203q0 -150 -159 -159q-23 -2 -23 -27v-680q78 0 156 10q66 -94 65 -182q0 -78 -54 -124t-161 -46h-618q-63 86 -64 182q0 150 160 160q22 2 22 27v680q-80 0 -155 -11q-66 94 -66 172z" />
<glyph unicode="&#x408;" horiz-adv-x="811" d="M23 -57q0 49 14 92q33 -4 49 -4q106 0 150.5 69.5t50.5 192.5v700q-96 16 -142.5 92t-46.5 177q0 37 6 71q98 6 183.5 15.5t184.5 22.5t165 20q41 0 69.5 -17.5t42 -39t21.5 -62.5t9 -69t1 -75v-856q0 -125 -25.5 -230t-77.5 -190t-142.5 -133.5t-210.5 -48.5 q-129 0 -215 76t-86 197z" />
<glyph unicode="&#x409;" horiz-adv-x="2109" d="M29 262q0 45 4 68h14q229 0 277 653q4 29 4 41q-193 35 -193 258q0 53 10 109h1141q51 0 84 -26t48.5 -75t21.5 -95t8 -116v-225q59 86 157.5 132t202.5 46q178 0 276.5 -123t98.5 -313q0 -164 -58.5 -287t-157.5 -191.5t-215 -101t-247 -32.5q-82 0 -147.5 9t-144 41 t-132 87t-90.5 157.5t-37 239.5v479q-2 29 -28 29h-117q-14 -410 -72.5 -638t-159 -316t-268.5 -88q-139 0 -209.5 76.5t-70.5 201.5zM1438 586q0 -199 127 -199q59 0 97 37t38 96q0 53 -24.5 91t-67.5 56.5t-84 25.5t-86 7v-114z" />
<glyph unicode="&#x40a;" horiz-adv-x="2144" d="M14 1262q0 37 6 71q98 6 183.5 15.5t184.5 22.5t165 20q41 0 69.5 -17.5t42 -39t21.5 -62.5t9 -68.5t1 -75.5v-223q0 -23 6.5 -30t24.5 -7h262v152q-8 156 -53 287q336 84 385 84q51 0 84 -26t48 -75t21.5 -95t8.5 -116v-225q59 86 157.5 132t202.5 46q178 0 276.5 -123 t98.5 -313q0 -164 -58.5 -287t-157.5 -191.5t-215 -101t-247 -32.5q-82 0 -147.5 9t-144.5 41t-132 86t-89 154.5t-38 235.5h-293v-156q8 -156 54 -286q-336 -84 -385 -84q-51 0 -84 25.5t-48.5 74.5t-21.5 95t-8 116v698q-96 16 -142.5 92t-46.5 177zM1473 586 q0 -199 126 -199q59 0 97.5 37t38.5 96q0 53 -24.5 91t-68 56.5t-84 25.5t-85.5 7v-114z" />
<glyph unicode="&#x40b;" horiz-adv-x="1687" d="M-31 1165q0 123 68.5 178.5t245.5 55.5q82 0 309 -13.5t307 -13.5q158 0 291 49q90 -154 90 -260q0 -113 -70.5 -164t-265.5 -51h-45q-22 -2 -22 -31v-276q57 104 145 168q106 76 258 76q145 0 230 -100.5t85 -307.5v-121q2 -78 31 -107.5t103 -39.5q-51 -223 -312 -223 q-326 0 -325 305v143q0 86 -58 86q-39 0 -55 -8q-86 -37 -102 -172q10 -197 41 -279q-303 -76 -373 -75q-51 0 -84 25.5t-48.5 74.5t-21.5 95t-8 116v676q-23 2 -61 2q-139 0 -265 -68q-88 158 -88 260z" />
<glyph unicode="&#x40c;" horiz-adv-x="1484" d="M14 1262q0 37 6 71q98 6 183.5 15.5t184.5 22.5t165 20q41 0 69.5 -17.5t42 -39t21.5 -62.5t9 -68.5t1 -75.5v-313h60q100 0 140 74t40 170q0 104 -55 211q113 121 282 121q137 0 206 -89.5t69 -207.5q0 -242 -221 -389q55 -147 157.5 -262t200.5 -136 q-6 -162 -100.5 -238.5t-227.5 -76.5q-96 0 -161.5 24.5t-125 91t-101.5 191.5t-75 322h-88v-267q8 -156 54 -286q-336 -84 -385 -84q-51 0 -84 25.5t-48.5 74.5t-21.5 95t-8 116v698q-96 16 -142.5 92t-46.5 177zM623 1530q0 37 26 69l297 369q72 -12 137.5 -57t90.5 -111 q18 -43 11 -95t-46 -83l-338 -268q-63 20 -120.5 69.5t-57.5 106.5z" />
<glyph unicode="&#x40e;" horiz-adv-x="1476" d="M8 1262q0 -100 46.5 -176.5t142.5 -92.5v-229q0 -219 101 -314.5t255 -95.5q254 0 399 264v-59q0 -168 -88 -243.5t-215 -75.5q-184 0 -262 67q-78 -72 -78 -176q0 -121 114 -185.5t331 -64.5q682 0 682 701v497q-2 70 -8.5 116t-21.5 95t-48 75t-84 26q-25 0 -71 -9.5 t-85 -18.5t-110.5 -28.5t-108.5 -27.5q45 -131 53 -287v-150q-76 -135 -172 -135q-94 0 -94 117v276q0 47 -1 75t-9 69t-21.5 62.5t-42 39t-69.5 17.5q-66 -6 -163 -19.5t-183 -23t-183 -15.5q-6 -35 -6 -71zM399 1677q0 68 44 116t135 56q98 -123 225 -123q125 0 227 123 q88 -8 132 -57t44 -115q0 -111 -112.5 -186.5t-290.5 -77.5q-178 2 -291 78t-113 186z" />
<glyph unicode="&#x40f;" horiz-adv-x="1550" d="M14 1262q0 37 6 71q98 6 183.5 15.5t184.5 22.5t165 20q41 0 69.5 -17.5t42 -39t21.5 -62.5t9 -68.5t1 -75.5v-731q0 -23 6.5 -30t24.5 -7h262v660q-8 156 -53 287q336 84 391 84q51 0 84 -26t48.5 -75t21.5 -95t8 -116v-860q0 -131 -58.5 -175t-168.5 -44h-185 q-25 0 -33 -27l-63 -241q-27 -104 -90 -105h-96q-63 0 -90 105l-68 268h-207q-111 0 -169 44t-58 175v774q-96 16 -142.5 92t-46.5 177z" />
<glyph unicode="&#x410;" horiz-adv-x="1372" d="M51 140.5q4 54.5 29 111.5l260 620q45 105 86 162q-94 -4 -150 -10q-51 106 -51 193q0 174 285 174h369q104 0 162.5 -44t95.5 -153l303 -911q41 -129 86 -224q-236 -76 -344 -75q-74 0 -120 39.5t-79 140.5l-27 82h-448l-94 -246h-226q-74 0 -107.5 43t-29.5 97.5z M637 586q-10 -35 22 -35h197l-104 336z" />
<glyph unicode="&#x411;" horiz-adv-x="1335" d="M14 1210q0 80 55.5 130.5t159.5 50.5h801q135 0 215 20q63 -86 64 -223q0 -61 -23.5 -100t-69 -55.5t-83 -20.5t-95.5 -4h-315v-152q111 33 233 33q225 0 333 -116t108 -296q0 -78 -19.5 -143.5t-49.5 -112.5t-82 -85t-97 -60.5t-118 -40t-121 -24.5t-131 -12t-123 -5 h-117q-59 0 -97.5 3t-81.5 15.5t-67.5 36t-40.5 65.5t-16 103v811q-80 0 -156 -10q-66 94 -66 192zM725 322q29 -4 31 -5q86 0 131 44.5t45 105.5q0 150 -152 158h-55v-303z" />
<glyph unicode="&#x412;" horiz-adv-x="1390" d="M14 1210q0 57 24.5 96.5t70 55.5t89.5 22.5t101 6.5h481q586 0 586 -361q0 -90 -42 -163.5t-124 -110.5q121 -29 181.5 -113t60.5 -194q0 -92 -35 -166t-86 -120t-134 -80t-153.5 -51.5t-173 -26.5t-164 -10t-151.5 -1q-76 0 -122 6t-94 26.5t-70.5 67.5t-22.5 123v811 q-80 0 -156 -10q-66 94 -66 192zM723 795h70q150 0 149 127q0 106 -137 106h-82v-233zM725 322q29 -4 68 -5q176 0 176 129q0 117 -152 117h-92v-241z" />
<glyph unicode="&#x413;" horiz-adv-x="1275" d="M16 1282q0 53 11 109h852q166 0 295 51q90 -160 90 -273q0 -121 -71.5 -181t-268.5 -60h-199q-23 -2 -23 -31v-543q8 -156 54 -286q-336 -84 -385 -84q-51 0 -84 25.5t-48.5 74.5t-21.5 95t-8 116v743q-193 35 -193 244z" />
<glyph unicode="&#x414;" horiz-adv-x="1568" d="M49 -57v229q0 172 131 172h23q88 92 139 286.5t66 407.5q-193 35 -193 244q0 53 10 109h1080q51 0 83.5 -26t48 -75t21.5 -95t8 -116v-735h21q131 0 131 -172v-219q0 -117 31 -203q-223 -57 -273 -57q-94 0 -130 66.5t-36 183.5v57h-731q-23 0 -22 -33v-18 q0 -113 30 -199q-223 -57 -272 -57q-94 0 -130 66.5t-36 183.5zM623 344h319q16 0 22.5 8t6.5 31v655h-146q-23 0 -24 -24q-35 -520 -178 -670z" />
<glyph unicode="&#x415;" horiz-adv-x="1308" d="M14 1210q0 80 55.5 130.5t159.5 50.5h768q135 0 215 20q63 -86 64 -203q0 -61 -23.5 -100t-68.5 -55.5t-83 -20.5t-95 -4h-279v-129q0 -23 6 -30t25 -7h354q27 -68 27 -137q0 -193 -256 -193h-156v-133q0 -23 6.5 -30t24.5 -7h252q113 0 215 27q63 -86 63 -209 q0 -61 -23.5 -100t-68.5 -55.5t-83 -20.5t-95 -4h-555q-111 0 -169 44t-58 175v809q-80 0 -156 -10q-66 94 -66 192z" />
<glyph unicode="&#x416;" horiz-adv-x="2058" d="M41 1110q12 135 98 205.5t187 70.5q178 0 292.5 -143t186.5 -459h14v236q-8 156 -53 287q332 84 383 84q49 0 82 -26t49 -75t21.5 -95t7.5 -116v-270q80 37 118.5 120t38.5 183q0 78 -34 176q102 102 288 103q135 0 209 -83t74 -194q0 -119 -66.5 -220t-183.5 -167 q47 -154 152.5 -303.5t228.5 -214.5q-43 -113 -136 -173.5t-196 -60.5q-190 0 -287.5 132.5t-191.5 529.5h-14v-283q8 -150 51 -286q-326 -84 -383 -84q-49 0 -82 25.5t-48.5 74.5t-20.5 95t-7 116v315q-86 -41 -129 -138t-43 -212q0 -104 31 -190q-106 -109 -295 -109 q-135 0 -211 90t-76 207q0 133 78 252t209 192q-45 135 -149.5 270.5t-192.5 137.5z" />
<glyph unicode="&#x417;" horiz-adv-x="1241" d="M27 311q0 147 88 215q72 -47 196.5 -79.5t241.5 -32.5q152 0 152 92q0 80 -125 80h-113q-109 0 -109 110v49q0 111 109 111h113q98 0 98 70q0 72 -125 71q-170 0 -356 -84q-127 53 -127 195q0 139 134 211t386 72q606 0 606 -359q0 -106 -58.5 -189t-181.5 -118 q152 -23 226.5 -112t74.5 -216q0 -115 -52 -197.5t-145 -131t-210 -71t-258 -22.5q-109 0 -203 16.5t-179 53.5t-134 104.5t-49 161.5z" />
<glyph unicode="&#x418;" horiz-adv-x="1595" d="M14 1262q0 37 6 71q96 6 181.5 15.5t180.5 22.5t163 20q41 0 69.5 -17.5t42 -39t21.5 -62.5t9 -68.5t1 -75.5v-530l352 721q293 72 336 72q51 0 84 -26t48.5 -75t21.5 -95t8 -116v-725q8 -156 53 -286q-336 -84 -383 -84q-51 0 -83.5 25.5t-48 74.5t-21.5 95t-8 116v444 l-342 -682q-18 -4 -110.5 -28.5t-145 -34.5t-84.5 -10q-51 0 -84 25.5t-48.5 74.5t-21.5 95t-8 116v698q-96 16 -142.5 92t-46.5 177z" />
<glyph unicode="&#x419;" horiz-adv-x="1595" d="M14 1262q0 37 6 71q96 6 181.5 15.5t180.5 22.5t163 20q41 0 69.5 -17.5t42 -39t21.5 -62.5t9 -68.5t1 -75.5v-530l352 721q293 72 336 72q51 0 84 -26t48.5 -75t21.5 -95t8 -116v-725q8 -156 53 -286q-336 -84 -383 -84q-51 0 -83.5 25.5t-48 74.5t-21.5 95t-8 116v444 l-342 -682q-18 -4 -110.5 -28.5t-145 -34.5t-84.5 -10q-51 0 -84 25.5t-48.5 74.5t-21.5 95t-8 116v698q-96 16 -142.5 92t-46.5 177zM686 1516q0 78 42 128t105.5 75.5t128 47t120 58.5t71.5 92q94 -10 166 -81t72 -157q0 -78 -43 -129t-106.5 -77.5t-130.5 -49 t-123.5 -58.5t-72.5 -87q-92 10 -160.5 81t-68.5 157z" />
<glyph unicode="&#x41a;" horiz-adv-x="1484" d="M14 1262q0 37 6 71q98 6 183.5 15.5t184.5 22.5t165 20q41 0 69.5 -17.5t42 -39t21.5 -62.5t9 -68.5t1 -75.5v-313h60q100 0 140 74t40 170q0 104 -55 211q113 121 282 121q137 0 206 -89.5t69 -207.5q0 -242 -221 -389q55 -147 157.5 -262t200.5 -136 q-6 -162 -100.5 -238.5t-227.5 -76.5q-96 0 -161.5 24.5t-125 91t-101.5 191.5t-75 322h-88v-267q8 -156 54 -286q-336 -84 -385 -84q-51 0 -84 25.5t-48.5 74.5t-21.5 95t-8 116v698q-96 16 -142.5 92t-46.5 177z" />
<glyph unicode="&#x41b;" horiz-adv-x="1515" d="M29 262q0 45 4 68h14q229 0 277 653q4 29 4 41q-193 35 -193 258q0 54 10 109h1151q51 0 84 -26t48.5 -75t21.5 -95t8 -116v-725q8 -156 53 -286q-336 -84 -391 -84q-51 0 -83.5 25.5t-48 74.5t-21.5 95t-9 116v692q0 23 -6 31t-22 8h-121q-14 -410 -72.5 -638t-159 -316 t-268.5 -88q-139 0 -209.5 76.5t-70.5 201.5z" />
<glyph unicode="&#x41c;" horiz-adv-x="1826" d="M43 1264q0 39 6 71q88 6 281.5 31t292.5 25q86 0 134 -43t81 -138l157 -456l138 456q37 106 97 146.5t163 32.5l155 -23q117 -16 152 -63.5t41 -182.5l37 -755q10 -190 53 -297l-108.5 -28t-114.5 -29t-85 -18t-73 -9q-49 0 -83 25.5t-49 73.5t-21.5 97t-6.5 115l13 504 l-105 -287q-27 -70 -60.5 -106.5t-90.5 -36.5h-107q-53 0 -86 36.5t-66 106.5l-133 287l25 -434q10 -190 53 -297q-33 -8 -107.5 -28t-113.5 -29t-86 -18t-72 -9q-49 0 -82.5 25.5t-49 73.5t-21.5 97t-6 115l28 702q-94 16 -137 90t-43 177z" />
<glyph unicode="&#x41d;" horiz-adv-x="1591" d="M14 1262q0 37 6 71q98 6 183.5 15.5t184.5 22.5t165 20q41 0 69.5 -17.5t42 -39t21.5 -62.5t9 -68.5t1 -75.5v-223q0 -23 6.5 -30t24.5 -7h307v152q-8 156 -53 287q336 84 391 84q51 0 84 -26t48.5 -75t21.5 -95t8 -116v-725q8 -156 53 -286q-336 -84 -391 -84 q-51 0 -84 25.5t-48 74.5t-21.5 95t-8.5 116v176q0 23 -6 31t-22 8h-310v-156q8 -156 54 -286q-336 -84 -385 -84q-51 0 -84 25.5t-48.5 74.5t-21.5 95t-8 116v698q-96 16 -142.5 92t-46.5 177z" />
<glyph unicode="&#x41e;" horiz-adv-x="1497" d="M94 645q0 158 42 291t127 238.5t226.5 165t325.5 59.5q694 0 694 -666q0 -158 -41 -291t-123.5 -239.5t-221 -167t-318.5 -60.5q-711 0 -711 670zM588 686q0 -270 211 -270q217 0 217 272q0 129 -55.5 202t-153.5 73q-219 -1 -219 -277z" />
<glyph unicode="&#x41f;" horiz-adv-x="1540" d="M14 1282q1 54 11 109h1296q51 0 84 -26t48 -75t21.5 -95t8.5 -116v-725q8 -156 53 -286q-336 -84 -391 -84q-51 0 -84 25.5t-48.5 74.5t-21.5 95t-8 116v692q0 23 -6 31t-23 8h-254v-672q8 -156 54 -286q-336 -84 -385 -84q-51 0 -84 25.5t-48.5 74.5t-21.5 95t-8 116 v729q-193 35 -193 258z" />
<glyph unicode="&#x420;" horiz-adv-x="1411" d="M14 1210q0 57 24.5 96.5t70 55.5t89.5 22.5t101 6.5h469q674 -8 674 -482q0 -225 -139.5 -357t-440.5 -132q-23 0 -73 3t-60 3v-72q8 -156 53 -286q-336 -84 -385 -84q-51 0 -83.5 25.5t-48 74.5t-21.5 95t-8 116v733q-80 0 -156 -10q-66 94 -66 192zM729 715 q14 -2 57 -2q172 0 172 168q0 147 -153 147h-76v-313z" />
<glyph unicode="&#x421;" horiz-adv-x="1316" d="M94 641q0 340 177.5 549t541.5 209q96 0 181 -15.5t159 -49.5t117 -96t43 -146q0 -76 -42 -138.5t-118 -89.5q-180 102 -324 103q-242 0 -241 -279q0 -123 61.5 -191.5t188.5 -68.5q180 0 364 115q59 -33 91 -95.5t32 -132.5q0 -92 -51 -161.5t-134 -106.5t-172.5 -54.5 t-181.5 -17.5q-348 2 -520 177.5t-172 488.5z" />
<glyph unicode="&#x422;" horiz-adv-x="1349" d="M16 1165q0 123 69 178.5t245 55.5q82 0 309 -13.5t307 -13.5q160 0 291 49q90 -154 90 -260q0 -115 -71.5 -173t-264.5 -58h-45q-22 -2 -22 -31v-545q8 -156 53 -286q-336 -84 -385 -84q-51 0 -84 25.5t-48.5 74.5t-21.5 95t-8 116v659q-23 2 -61 2q-139 0 -265 -67 q-88 158 -88 276z" />
<glyph unicode="&#x423;" horiz-adv-x="1476" d="M8 1262q0 37 6 71q96 6 182.5 15.5t183.5 22.5t163 20q41 0 69.5 -17.5t42 -39t21.5 -62.5t9 -68.5t1 -75.5v-276q0 -117 94 -117q96 0 172 135v150q-8 156 -53 287q37 8 108.5 27.5t110.5 28.5t85 18.5t71 9.5q51 0 84 -26t48 -75t21.5 -95t8.5 -116v-497 q0 -700 -682 -701q-217 0 -331 64.5t-114 185.5q0 104 78 176q78 -68 262 -67q127 0 215 75.5t88 243.5v59q-145 -264 -399 -264q-154 0 -255 95.5t-101 314.5v229q-96 16 -142.5 92t-46.5 177z" />
<glyph unicode="&#x424;" horiz-adv-x="1822" d="M72 786q0 248 137 401.5t420 153.5h94v37q-12 125 -43 191q319 68 362 67q84 0 118 -65.5t40 -184.5v-53q51 8 117 8q270 -2 403 -131t133 -358q0 -248 -137 -401.5t-420 -153.5h-94q12 -131 47 -242q-274 -72 -370 -71q-49 0 -81 25.5t-47.5 74.5t-20.5 96t-7 115v10 q-51 -8 -115 -8q-270 2 -403 131t-133 358zM494 821q0 -80 38.5 -127t114.5 -47q51 0 76 6v351h-64q-76 0 -120.5 -44.5t-44.5 -138.5zM1200 635h66q76 0 121 44t45 138q0 80 -39 127t-115 47q-45 0 -78 -8v-348z" />
<glyph unicode="&#x425;" horiz-adv-x="1359" d="M47 211q0 123 88 231l262 295l-39 62q-84 129 -152.5 193.5t-144.5 82.5q6 162 85 234.5t198 72.5q125 0 210 -78.5t230 -322.5q152 213 156 391q66 14 145 14q115 0 185.5 -60t70.5 -189q0 -117 -88 -226l-239 -293q84 -145 165 -203.5t222 -58.5q4 -23 4 -65 q0 -139 -74 -226.5t-213 -87.5q-135 0 -239.5 79t-202.5 239l-53 82q-106 -137 -145.5 -220t-47.5 -171q-82 -18 -131 -19q-115 0 -183.5 58.5t-68.5 185.5z" />
<glyph unicode="&#x426;" horiz-adv-x="1613" d="M14 1262q0 37 6 71q98 6 183.5 15.5t184.5 22.5t165 20q41 0 69.5 -17.5t42 -39t21.5 -62.5t9 -68.5t1 -75.5v-727q0 -23 6.5 -29.5t24.5 -6.5h262v655q-8 156 -53 287q336 84 391 84q51 0 84 -26t48.5 -75t21.5 -95t8 -116v-841q0 -20 20 -23q258 -45 258 -328 q0 -190 -95 -289.5t-261 -99.5q-53 0 -142 15.5t-128 15.5q-70 0 -108 -28.5t-38 -100.5q-125 0 -192.5 75.5t-67.5 180.5q0 125 84 193.5t234 68.5q61 0 165.5 -21.5t161.5 -21.5q88 0 88 72q1 53 -67 53h-971q-111 0 -169 44t-58 175v774q-96 16 -142.5 92t-46.5 177z" />
<glyph unicode="&#x427;" horiz-adv-x="1499" d="M-6 1262q0 37 6 71q98 6 183 15.5t184.5 22.5t164.5 20q41 0 70 -17.5t42 -39t21.5 -62.5t9.5 -68.5t1 -75.5v-297q0 -98 102 -98q101 0 164 82v205q-8 156 -53 287q336 84 391 84q51 0 84 -26t48 -75t21.5 -95t8.5 -116v-725q8 -156 53 -286q-336 -84 -391 -84 q-51 0 -84 25.5t-48.5 74.5t-21.5 95t-8 116v272q-133 -233 -399 -233q-154 0 -257.5 92t-103.5 297v270q-96 16 -142 92t-46 177z" />
<glyph unicode="&#x428;" horiz-adv-x="2021" d="M16 1262q0 37 7 71q129 8 295.5 30.5t209.5 27.5q41 0 70 -17.5t42 -39t21.5 -62.5t9.5 -68.5t1 -75.5v-737q0 -23 6 -30t24 -7h146v666q-8 156 -53 287q45 10 134 35.5t140 37t84 11.5q51 0 84 -26t48 -75t21.5 -95t8.5 -116v-700q2 -25 31 -25h145v666q-8 156 -53 287 q43 10 134 35.5t142 37t84 11.5q51 0 84 -26t48.5 -75t21.5 -95t8 -116v-860q0 -131 -58 -175t-169 -44h-1301q-111 0 -169 44t-58 175v774q-96 16 -142.5 92t-46.5 177z" />
<glyph unicode="&#x429;" horiz-adv-x="2105" d="M16 1262q0 37 7 71q129 8 295.5 30.5t209.5 27.5q41 0 70 -17.5t42 -39t21.5 -62.5t9.5 -68.5t1 -75.5v-737q0 -23 6 -30t24 -7h146v666q-8 156 -53 287q45 10 134 35.5t140 37t84 11.5q51 0 84 -26t48 -75t21.5 -95t8.5 -116v-700q2 -25 31 -25h145v666q-8 156 -53 287 q43 10 134 35.5t142 37t84 11.5q51 0 84 -26t48.5 -75t21.5 -95t8 -116v-835q0 -27 20 -29q279 -45 279 -328q0 -190 -102.5 -289.5t-282.5 -99.5q-57 0 -160.5 15.5t-146.5 15.5q-158 0 -158 -129q-135 0 -209 75.5t-74 180.5q0 125 92.5 193.5t251.5 68.5q66 0 187 -21.5 t182 -21.5q96 0 96 70q1 55 -71 55h-1432q-111 0 -169 44t-58 175v774q-96 16 -142.5 92t-46.5 177z" />
<glyph unicode="&#x42a;" horiz-adv-x="1484" d="M-6 1210q0 80 55 130.5t160 50.5h471q41 0 69.5 -17.5t42 -39t21.5 -62.5t9 -68.5t1 -75.5v-274q59 86 157.5 132t203.5 46q178 0 276.5 -123t98.5 -313q0 -164 -58.5 -287t-158 -191.5t-215 -101t-246.5 -32.5q-82 0 -147.5 9t-144.5 41t-132.5 87t-90 157.5 t-36.5 239.5v471q0 23 -6.5 31t-22.5 8h-96q-74 0 -146 -10q-66 94 -65 192zM813 586q0 -199 127 -199q59 0 97 37t38 96q0 53 -24.5 91t-67.5 56.5t-84 25.5t-86 7v-114z" />
<glyph unicode="&#x42b;" horiz-adv-x="2013" d="M12 1262q0 37 6 71q94 6 177.5 15.5t179.5 22.5t157 20q47 0 78 -21.5t42.5 -67t14.5 -80t3 -94.5v-274q57 86 150 132t192 46q170 0 265 -123t95 -313q0 -164 -55 -287t-151.5 -191.5t-207 -101t-237.5 -32.5q-78 0 -141.5 9t-138 41t-126 87t-86 157.5t-34.5 239.5v475 q-92 16 -137.5 92t-45.5 177zM659 586q0 -199 121 -199q55 0 92 37t37 96q0 180 -250 180v-114zM1384 1307q336 84 383 84q51 0 84 -26t48.5 -75t21.5 -95t8 -116v-725q8 -156 53 -286q-336 -84 -383 -84q-51 0 -83.5 25.5t-48 74.5t-21.5 95t-8 116v725q-8 156 -54 287z " />
<glyph unicode="&#x42c;" horiz-adv-x="1341" d="M12 1253q0 27 8 80q96 6 179.5 15.5t176.5 21.5t161 21q41 0 69.5 -17.5t42 -39t21.5 -62.5t9 -68.5t1 -75.5v-274q59 86 157.5 132t202.5 46q178 0 276.5 -123t98.5 -313q0 -164 -58.5 -287t-157.5 -191.5t-215 -101t-247 -32.5q-82 0 -147.5 9t-144 41t-132 87 t-90.5 157.5t-37 239.5v475q-88 23 -131 94.5t-43 165.5zM670 586q0 -199 127 -199q59 0 97 37t38 96q0 53 -24.5 91t-67.5 56.5t-84 25.5t-86 7v-114z" />
<glyph unicode="&#x42d;" horiz-adv-x="1249" d="M39 291q0 135 78 203q176 -115 405 -115q272 0 281 162h-379q-86 0 -86 127v75q0 127 86 127h377q-2 74 -80 109t-184 35q-100 0 -207 -26.5t-168 -63.5q-76 74 -76 186q0 281 504 281q205 0 346 -54.5t215 -158t103.5 -222t29.5 -274.5q0 -352 -172 -529.5t-547 -177.5 q-526 0 -526 316z" />
<glyph unicode="&#x42e;" horiz-adv-x="2048" d="M27 1262q0 37 6 71q94 6 178 15.5t181 22.5t161 20q33 0 57.5 -10.5t40 -32t24.5 -43t12 -56.5t4 -58.5t1 -62.5v-217q0 -23 6.5 -30t24.5 -7h74q51 240 211.5 382.5t423.5 142.5q324 0 476 -175t152 -491q0 -328 -163 -542t-476 -216q-578 0 -641 535h-88v-156 q8 -156 53 -286q-326 -84 -376 -84q-49 0 -82 25.5t-48.5 74.5t-20.5 95t-7 116v698q-96 16 -140 91t-44 178zM1227 686q0 -270 188 -270q195 0 195 272q0 129 -50.5 202t-136.5 73q-196 -1 -196 -277z" />
<glyph unicode="&#x42f;" horiz-adv-x="1380" d="M25 317q143 33 256 218q-92 47 -142.5 137t-50.5 198q0 143 56.5 249t156.5 164t219 86t260 28q233 0 389 -49q51 -16 82 -44t46.5 -73t19.5 -86t6 -109v-686q8 -156 53 -287q-319 -80 -383 -79q-51 0 -83.5 25.5t-48 74.5t-21.5 95t-9 116v131q-90 0 -110 4 q-4 -18 -16.5 -62t-18.5 -64.5t-19.5 -60.5t-23.5 -60.5t-28.5 -53.5t-36 -49.5t-43 -38t-53 -32.5t-64.5 -18t-80 -7q-131 0 -219 78.5t-94 254.5zM573 877q1 -162 138 -162h120v319h-129q-59 0 -94 -42t-35 -115z" />
<glyph unicode="&#x430;" d="M20 303q0 121 71 202t173.5 112.5t231.5 31.5q119 0 223 -33q-10 131 -191 132q-215 0 -321 -89q-106 61 -107 181q0 117 143.5 183.5t387.5 66.5q109 0 193.5 -11.5t161.5 -42t126 -81t79 -131t30 -189.5v-215q0 -86 67 -86q18 0 55 12q27 -70 27 -133 q0 -106 -76.5 -172t-203.5 -66q-115 0 -190 43t-116 158q-106 -195 -372 -201q-172 0 -282 82t-110 246zM508 342q0 -43 24.5 -67.5t65.5 -24.5q121 0 121 180v55q-45 0 -88 -10t-83 -45t-40 -88z" />
<glyph unicode="&#x431;" horiz-adv-x="1318" d="M72 643q2 178 48 313.5t120.5 213t164 130t187.5 81t183 49t157.5 49t105.5 69.5q82 -29 130.5 -95.5t48.5 -137.5q0 -90 -50.5 -144.5t-125 -73t-161.5 -41t-161 -48t-122 -98t-46 -187.5q45 117 153.5 184.5t239.5 67.5q180 0 282.5 -105.5t102.5 -314.5 q0 -270 -171 -425t-480 -155q-606 0 -606 668zM571 516q0 -76 35 -127t109 -51q51 0 88 29.5t37 83.5q0 66 -58.5 98.5t-134.5 32.5q-49 0 -76 -9v-57z" />
<glyph unicode="&#x432;" horiz-adv-x="1304" d="M-10 1028q0 35 2 49h827q213 0 322.5 -77.5t109.5 -202.5q0 -61 -38 -120.5t-99 -88.5q106 -23 156.5 -91.5t50.5 -160.5q0 -360 -743 -361q-84 0 -140.5 5.5t-115 21.5t-92 47t-55 84t-21.5 129v541q-53 2 -89 21.5t-50.5 56.5t-19.5 69.5t-5 77.5zM637 262q20 -4 55 -4 q127 0 127 98q1 88 -108 88h-74v-182zM637 623h72q102 0 102 92q0 88 -102 88h-72v-180z" />
<glyph unicode="&#x433;" horiz-adv-x="1234" d="M-14 1077h911q115 2 217 43q88 -158 88 -256q0 -170 -264 -180h-233q-16 0 -22.5 -6t-6.5 -23v-301q2 -78 30.5 -107.5t102.5 -39.5q-49 -223 -315 -223q-326 0 -326 305v514q-63 2 -103 27.5t-55.5 71.5t-19.5 84t-4 91z" />
<glyph unicode="&#x434;" horiz-adv-x="1482" d="M0 -111v228q0 166 117 166h39q76 78 130 225t60 295q-201 6 -201 274h1061q47 0 78 -19.5t45 -58t19.5 -71.5t7.5 -88v-557h28q119 0 119 -166l-2 -164q8 -115 49 -219q-39 -8 -106.5 -30.5t-124.5 -37t-113 -14.5q-45 0 -74.5 19.5t-43 58.5t-17.5 71.5t-6 87.5l2 111 h-602q-16 0 -22.5 -6t-6.5 -25v-16q8 -115 49 -219q-39 -8 -106.5 -30.5t-124.5 -37t-113 -14.5q-45 0 -74.5 19.5t-43 58.5t-17.5 71.5t-6 87.5zM584 283h243q16 0 22.5 6t6.5 24v482h-92q-14 0 -21.5 -6.5t-9.5 -26.5q-53 -385 -149 -479z" />
<glyph unicode="&#x435;" horiz-adv-x="1312" d="M92 502q0 274 168 431t465 157q262 0 411.5 -91.5t149.5 -259.5q0 -82 -45 -143t-124 -95t-168 -49.5t-189 -15.5q-86 0 -172 17q29 -96 225 -97q201 0 336 88q43 -27 67.5 -81t24.5 -105q0 -141 -148.5 -212t-369.5 -71q-631 1 -631 527zM604 592q123 2 188.5 36 t65.5 87q0 74 -82 73q-80 0 -124 -57t-48 -139z" />
<glyph unicode="&#x436;" horiz-adv-x="1964" d="M37 823q10 133 90 197.5t180 64.5q156 0 246 -104t160 -344h30v149q-8 113 -49 222q356 82 395 82t67 -14.5t43 -35t24.5 -55.5t11.5 -62.5t4 -70.5v-209q70 18 105.5 77.5t35.5 131.5q0 74 -34 137q92 100 274 101q125 0 192.5 -71t67.5 -165q0 -184 -199 -303 q41 -113 120 -219.5t175 -155.5q-18 -94 -97 -147.5t-181 -53.5q-168 0 -258 101.5t-170 390.5h-31v-178q8 -115 51 -223q-49 -10 -142 -33t-157.5 -36t-95.5 -13q-49 0 -80 19.5t-45 59t-19.5 74.5t-7.5 90v236q-158 -27 -157 -254q0 -72 35 -146q-96 -106 -279 -106 q-129 0 -196.5 78t-67.5 180q0 109 60.5 199t164.5 147q-53 106 -122.5 183t-143.5 79z" />
<glyph unicode="&#x437;" horiz-adv-x="1191" d="M27 246q0 119 92 180q63 -39 177 -64.5t216 -25.5q131 0 131 61q0 47 -104 47h-101q-106 0 -106 99v39q0 98 106 98h101q74 0 73 41q0 43 -100 43q-154 0 -324 -70q-127 47 -127 166q0 229 492 230q561 0 561 -289q0 -74 -47 -135.5t-139 -96.5q117 -29 177 -97.5 t60 -158.5q0 -119 -86 -197.5t-218 -109.5t-308 -31q-102 0 -191.5 13.5t-167 43t-122.5 84t-45 130.5z" />
<glyph unicode="&#x438;" horiz-adv-x="1507" d="M-10 1028q127 6 296 30.5t228 31.5q39 0 65.5 -13.5t41 -31t21.5 -49t8 -53t1 -58.5v-375q29 57 96.5 201.5t96.5 201.5q55 106 164 131q123 29 256 46q66 0 99.5 -37t38.5 -74t5 -100v-594q6 -113 49 -224q-76 -16 -168 -38.5t-137 -30.5t-84 -8q-84 0 -112.5 64.5 t-32.5 178.5v355l-189 -414q-53 -104 -170 -135q-125 -33 -252 -49q-49 0 -80.5 18t-44 54t-15.5 65t-3 74v555q-43 0 -75 13t-50 37.5t-30.5 47t-16.5 60.5t-5 59.5t-1 60.5z" />
<glyph unicode="&#x439;" horiz-adv-x="1507" d="M-10 1028q127 6 296 30.5t228 31.5q39 0 65.5 -13.5t41 -31t21.5 -49t8 -53t1 -58.5v-375q29 57 96.5 201.5t96.5 201.5q55 106 164 131q123 29 256 46q66 0 99.5 -37t38.5 -74t5 -100v-594q6 -113 49 -224q-76 -16 -168 -38.5t-137 -30.5t-84 -8q-84 0 -112.5 64.5 t-32.5 178.5v355l-189 -414q-53 -104 -170 -135q-125 -33 -252 -49q-49 0 -80.5 18t-44 54t-15.5 65t-3 74v555q-43 0 -75 13t-50 37.5t-30.5 47t-16.5 60.5t-5 59.5t-1 60.5zM618 1237q0 78 42 128t105.5 75.5t128 47t120 58.5t71.5 92q94 -10 166 -80.5t72 -156.5 q0 -78 -43 -129t-106.5 -78t-130 -49.5t-123 -58.5t-72.5 -87q-92 10 -161 81t-69 157z" />
<glyph unicode="&#x43a;" horiz-adv-x="1445" d="M-10 1028q127 4 325.5 30.5t237.5 31.5q39 0 66.5 -13.5t42 -31t21.5 -49t8 -53t1 -58.5v-246q172 23 172 188q0 78 -37 162q100 100 256 101q113 0 191 -63.5t78 -182.5q0 -176 -172 -289q90 -227 278 -260q0 -152 -93 -236t-208 -84q-160 0 -248 103.5t-164 388.5h-53 v-178q8 -121 49 -223q-37 -8 -140 -32t-168.5 -37t-98.5 -13q-49 0 -80 19.5t-45 59t-19.5 74.5t-7.5 90v523q-51 2 -89 21.5t-57.5 46t-30.5 67.5t-13 71.5t-2 71.5z" />
<glyph unicode="&#x43b;" horiz-adv-x="1464" d="M16 242q0 41 13 98q31 -6 47 -6q70 0 117 47t66.5 133t25.5 145.5t8 143.5q-117 6 -166 89t-47 185h1132q49 0 80 -19.5t45.5 -57t19.5 -71.5t7 -87v-572q6 -119 49 -221q-332 -66 -407 -65q-49 0 -80 19.5t-45.5 59t-19.5 74.5t-7 90v568h-63q-16 0 -22.5 -8.5 t-6.5 -34.5q-8 -426 -123 -597t-352 -171q-127 0 -199 68.5t-72 189.5z" />
<glyph unicode="&#x43c;" horiz-adv-x="1751" d="M-10 1028q205 16 341 31.5t179 23t51 7.5q72 0 113 -27t71 -90l166 -318l176 340q27 49 63 72t105 23l185 -13q104 -6 145 -50t47 -148l21 -590q6 -123 47 -219q-340 -86 -387 -86q-162 -1 -162 235l2 342l-104 -180q-25 -43 -49.5 -57.5t-69.5 -14.5h-49 q-43 0 -66.5 14.5t-52.5 57.5l-123 180l12 -272q6 -123 47 -219q-340 -86 -387 -86q-162 0 -161 235l24 531q-49 2 -84 19t-53.5 39.5t-29.5 64.5t-13 73t-4 82z" />
<glyph unicode="&#x43d;" horiz-adv-x="1527" d="M-8 1028q117 4 302 29.5t261 32.5q39 0 65.5 -13.5t41 -31t21.5 -49t8 -53t1 -58.5v-158q0 -16 6.5 -22.5t22.5 -6.5h197v88q-8 113 -50 222q356 82 408 82q39 0 66.5 -14.5t43 -35t24.5 -55.5t11 -62.5t4 -70.5v-563q8 -115 52 -223q-47 -10 -145.5 -33t-165 -36 t-97.5 -13q-49 0 -80 19.5t-45 59t-19 74.5t-7 90v156q0 18 -6.5 24.5t-22.5 6.5h-197v-125q8 -115 51 -223q-47 -10 -145 -33t-164.5 -36t-97.5 -13q-49 0 -80 19.5t-45 59t-19.5 74.5t-7.5 90v523q-51 2 -89 21.5t-57.5 46t-30.5 67.5t-13 71.5t-2 71.5z" />
<glyph unicode="&#x43e;" d="M72 504q0 254 164.5 420t474.5 166q319 0 473.5 -140.5t154.5 -388.5q0 -252 -161.5 -418t-464.5 -168q-328 0 -484.5 139.5t-156.5 389.5zM559 532q0 -66 37 -115.5t109 -49.5q61 0 103 45t42 120q0 80 -40 125t-101 45q-63 0 -106.5 -46t-43.5 -124z" />
<glyph unicode="&#x43f;" horiz-adv-x="1482" d="M-10 1077h1241q49 0 79.5 -19.5t45 -57t19.5 -71.5t7 -87v-553q8 -111 50 -223q-43 -8 -140.5 -32t-166 -37t-101.5 -13q-90 0 -118.5 64.5t-31.5 178.5v566h-155q-16 0 -22.5 -6.5t-6.5 -24.5v-473q8 -115 51 -223q-47 -8 -143 -31t-163.5 -37t-100.5 -14 q-49 0 -80 19.5t-45 59t-19.5 74.5t-7.5 90v566q-63 2 -105 28.5t-59.5 75.5t-22.5 88t-5 92z" />
<glyph unicode="&#x440;" horiz-adv-x="1452" d="M-10 1028q106 4 279 29.5t243 32.5q43 0 70.5 -16.5t38 -52.5t13.5 -62.5t3 -73.5v-64q59 131 166.5 200t236.5 69q184 0 288 -131.5t104 -364.5q0 -287 -127 -453t-322 -166q-182 0 -303 127v-315q4 -80 32.5 -119t100.5 -47q-51 -221 -295 -221q-158 0 -249 110.5 t-91 339.5v900q-188 4 -188 278zM680 575q0 -86 36 -144t111 -58q59 0 91 40t32 95q0 86 -55 134t-135 48q-43 0 -80 -14v-101z" />
<glyph unicode="&#x441;" horiz-adv-x="1232" d="M53 502q0 268 164 428t477 160q205 0 356.5 -102.5t151.5 -246.5q0 -84 -55 -140t-160 -56q-49 0 -94 14q-4 78 -57.5 114t-124.5 36q-88 0 -129 -48.5t-41 -121.5q0 -174 219 -174q190 0 293 102q51 -33 79.5 -90.5t28.5 -118.5q0 -131 -124 -207t-357 -76 q-309 0 -468 140.5t-159 386.5z" />
<glyph unicode="&#x442;" horiz-adv-x="1208" d="M-68 911q0 188 281 189q76 0 300 -12.5t300 -12.5q156 0 277 45q88 -158 88 -256q0 -180 -304 -180h-32q-20 -2 -21 -29v-301q2 -78 31 -107.5t102 -39.5q-51 -223 -315 -223q-326 0 -326 305v416h-51q-137 0 -246 -66q-84 164 -84 272z" />
<glyph unicode="&#x443;" horiz-adv-x="1429" d="M-10 1028q117 4 302 29.5t261 32.5q39 0 65.5 -13.5t41 -31t21.5 -49t8 -53t1 -58.5v-457q0 -86 72 -86q47 0 77.5 56.5t30.5 150.5v237q-8 119 -47 222q356 82 395 82t67 -14.5t43 -35t24.5 -55.5t11.5 -62.5t4 -70.5v-262q0 -160 -10 -293t-37 -275.5t-77 -249 t-123.5 -193.5t-186.5 -133t-256 -46q-170 0 -264.5 83t-94.5 206q0 141 121 200q68 -59 168 -59q63 0 112.5 29.5t77 73.5t45 104.5t22.5 114t5 108.5q-74 -156 -163 -220.5t-213 -64.5q-311 0 -312 392v383q-51 2 -89 21.5t-57.5 46t-30.5 67.5t-13 71.5t-2 71.5z" />
<glyph unicode="&#x444;" horiz-adv-x="1771" d="M51 498q0 272 162 419.5t436 147.5h41v53q-8 201 -69 303q49 12 139 41t155.5 47.5t92.5 18.5q137 0 137 -279v-194q53 10 131 10q252 0 379 -145.5t127 -356.5q0 -272 -162 -419.5t-434 -147.5h-41v-211q4 -78 35.5 -117t103.5 -47q-14 -111 -91 -166t-183 -55 q-158 0 -239 97.5t-81 312.5v202q-66 -16 -147 -16q-244 0 -368 147.5t-124 354.5zM481 535q0 -94 49.5 -156t139.5 -62h20v447q-102 0 -155.5 -65.5t-53.5 -163.5zM1145 317h20q90 0 139.5 62t49.5 156q0 98 -53.5 163.5t-155.5 65.5v-447z" />
<glyph unicode="&#x445;" horiz-adv-x="1294" d="M33 188q0 98 76 187l208 207l-10 16q-86 117 -138 162t-124 47q0 90 29.5 150.5t79 87t89.5 36t83 9.5q117 0 206 -57.5t199 -225.5l41 59q53 78 53 164q0 23 -8 39q94 23 156 23q115 0 185.5 -53.5t70.5 -168.5q0 -104 -76 -186l-188 -203q59 -86 108 -116.5t127 -32.5 q33 0 60 8q14 -45 14 -94q0 -119 -80 -195t-211 -76q-231 0 -405 254l-29 37l-57 -76q-70 -104 -74 -200q-90 -23 -133 -23q-113 0 -182.5 53.5t-69.5 167.5z" />
<glyph unicode="&#x446;" horiz-adv-x="1576" d="M-10 1028q125 4 327.5 31.5t233.5 30.5q39 0 66.5 -13.5t42 -31t21.5 -49t8 -53t1 -58.5v-572q0 -18 6 -24t23 -6h196v503q-8 119 -51 222q358 82 410 82q47 0 77.5 -19.5t45 -57.5t19.5 -73t7 -88v-672q0 -20 19 -22q160 -16 229.5 -102.5t69.5 -215.5 q0 -190 -105.5 -278t-251.5 -88q-74 0 -203.5 28.5t-193.5 28.5q-158 0 -162 -141q-117 0 -188.5 78.5t-71.5 185.5q0 113 84 194.5t232 81.5q90 0 225 -35.5t184 -35.5q102 0 103 80q-1 61 -62 61h-979q-55 0 -90 19.5t-51 59.5t-21.5 74.5t-7.5 90.5v506q-51 2 -89 21.5 t-57.5 46t-30.5 67.5t-13 71.5t-2 71.5z" />
<glyph unicode="&#x447;" horiz-adv-x="1429" d="M-41 1028q127 4 323.5 30.5t239.5 31.5q49 0 80 -17.5t43 -52.5t15.5 -62.5t3.5 -72.5v-234q0 -84 59 -84q57 0 106 62v157q-8 119 -51 222q358 82 410 82q47 0 77.5 -19.5t45 -57.5t19.5 -73t7 -88v-498q2 -78 31 -107.5t102 -39.5q-51 -223 -315 -223q-326 0 -326 305 v119q-121 -207 -360 -207q-133 0 -223 72.5t-94 220.5v256q-51 2 -89 21.5t-57.5 46t-31 67.5t-13.5 71.5t-2 71.5z" />
<glyph unicode="&#x448;" horiz-adv-x="1941" d="M-10 1028q117 6 292 30.5t234 31.5q39 0 66.5 -13.5t42 -31t21.5 -49t8 -53t1 -58.5v-572q0 -18 6.5 -24t22.5 -6h117v503q-8 119 -51 222q66 14 133 30.5t100 24.5t64.5 15t49 9.5t31.5 2.5q47 0 78 -19.5t45.5 -57.5t19.5 -73t7 -88v-539q0 -18 6 -24t23 -6h116v501 q-8 121 -51 224q66 14 133.5 30.5t100 24.5t64.5 15t49.5 9.5t31.5 2.5q47 0 78 -19.5t45 -57.5t19 -73t8 -88v-608q-2 -55 -7.5 -90t-22 -75t-51 -59.5t-89.5 -19.5h-1379q-55 0 -90 19.5t-51 59.5t-21.5 74.5t-7.5 90.5v506q-63 2 -105 28.5t-59.5 73.5t-22.5 86t-5 90z " />
<glyph unicode="&#x449;" horiz-adv-x="2078" d="M-10 1028q117 6 292 30.5t234 31.5q39 0 66.5 -13.5t42 -31t21.5 -49t8 -53t1 -58.5v-572q0 -18 6.5 -24t22.5 -6h117v503q-8 119 -51 222q66 14 133 30.5t100 24.5t64.5 15t49 9.5t31.5 2.5q47 0 78 -19.5t45.5 -57.5t19.5 -73t7 -88v-539q0 -18 6 -24t23 -6h116v501 q-8 121 -51 224q66 14 133.5 30.5t100 24.5t64.5 15t49.5 9.5t31.5 2.5q47 0 78 -19.5t45 -57.5t19 -73t8 -88v-668q0 -25 22 -26q180 -16 260 -102.5t80 -215.5q0 -190 -120 -278t-285 -88q-88 0 -234.5 28.5t-214.5 28.5q-184 0 -188 -141q-139 0 -213 78.5t-74 181.5 q0 119 94 199.5t260 80.5q100 0 253 -35.5t210 -35.5q119 0 119 80q0 55 -76 61h-1442q-55 0 -90 19.5t-51 59.5t-21.5 74.5t-7.5 90.5v506q-63 2 -105 28.5t-59.5 73.5t-22.5 86t-5 90z" />
<glyph unicode="&#x44a;" horiz-adv-x="1396" d="M-31 911q0 76 51.5 122t151.5 46h424q49 0 80 -17.5t44 -51t16 -62t3 -74.5v-151q57 59 141.5 95t163.5 36q168 0 270.5 -112.5t102.5 -274.5q0 -109 -42 -195t-108.5 -139t-155.5 -88t-177 -48t-182 -13q-240 0 -377 96t-137 336v295q0 33 -27 32h-43q-74 0 -139 -10 q-59 90 -60 178zM729 494q0 -80 32 -120t81 -40q39 0 62.5 25.5t23.5 70.5q0 76 -58.5 111t-140.5 37v-84z" />
<glyph unicode="&#x44b;" horiz-adv-x="1996" d="M-8 1012v20q127 4 312 28.5t224 29.5q39 0 67 -13.5t42 -31t21.5 -49t8.5 -53t1 -58.5v-162q121 131 284 131q168 0 270.5 -112.5t102.5 -274.5q0 -135 -58.5 -234.5t-156.5 -150.5t-204.5 -74.5t-225.5 -23.5q-115 0 -204 19.5t-163.5 66.5t-114.5 134t-40 212v334 q-47 2 -81 20t-50.5 39.5t-24.5 65t-9 67t-1 70.5zM657 494q0 -82 32 -121t81 -39q76 0 76 98q-1 142 -189 146v-84zM1337 1008l162 34q184 47 246 48q39 0 66.5 -14.5t43 -35t24.5 -55.5t11 -62.5t4 -70.5v-563q8 -115 52 -223q-47 -10 -145.5 -33t-165 -36t-97.5 -13 q-49 0 -80 19.5t-45 59t-19.5 74.5t-7.5 90v559q-8 113 -49 222z" />
<glyph unicode="&#x44c;" horiz-adv-x="1335" d="M-8 1012v20q127 4 312 28.5t224 29.5q39 0 67 -13.5t42 -31t21.5 -49t8.5 -53t1 -58.5v-162q57 59 141 95t164 36q168 0 270.5 -112.5t102.5 -274.5q0 -109 -42 -195t-109 -139t-156 -88t-177 -48t-182 -13q-115 0 -204 19.5t-163.5 66.5t-114.5 134t-40 212v334 q-47 2 -81 20t-50.5 39.5t-24.5 65t-9 67t-1 70.5zM657 494q0 -82 32 -121t81 -39q39 0 62.5 25.5t23.5 70.5q0 76 -58.5 111t-140.5 37v-84z" />
<glyph unicode="&#x44d;" horiz-adv-x="1126" d="M27 225q0 55 27.5 105.5t74.5 75.5q100 -90 279 -91q229 0 231 117h-250q-106 0 -106 98v39q0 98 106 99h250q-8 100 -231 100q-158 0 -254 -63q-88 35 -88 145q0 240 448 240q180 0 306 -43t192.5 -123t95.5 -174.5t29 -217.5q0 -557 -641 -557q-78 0 -149 9.5 t-148.5 34t-124.5 77.5t-47 129z" />
<glyph unicode="&#x44e;" horiz-adv-x="1898" d="M-10 1028q115 4 291 29.5t254 32.5q39 0 65.5 -13.5t40.5 -31t21.5 -49t8.5 -53t1 -58.5v-158q0 -16 6 -22.5t22 -6.5h70q53 178 196.5 285t364.5 107q291 0 434.5 -140.5t143.5 -388.5q0 -250 -151 -417t-425 -169q-268 0 -414.5 115t-170.5 324h-76v-125 q8 -115 51 -223q-51 -10 -141 -33t-153.5 -36t-94.5 -13q-49 0 -80 19.5t-45 59t-19.5 74.5t-7.5 90v523q-51 2 -89 21.5t-57.5 46t-30.5 67.5t-13 71.5t-2 71.5zM1196 532q0 -66 33 -115.5t96 -49.5q55 0 93 45t38 120q0 80 -36 125t-91 45q-57 0 -95 -46t-38 -124z" />
<glyph unicode="&#x44f;" horiz-adv-x="1331" d="M18 211q92 41 197 180q-172 94 -172 289q0 145 101.5 240.5t250 132.5t340.5 37q170 0 369 -46q63 -16 96 -54t41 -75.5t10 -105.5v-530q8 -115 52 -224q-352 -72 -408 -71q-49 0 -80 19.5t-45 59t-19.5 74.5t-7.5 90v95h-61q-51 -197 -136 -272t-233 -75 q-117 0 -199.5 58.5t-95.5 177.5zM530 684q0 -111 121 -111h92v218h-100q-51 0 -82 -29t-31 -78z" />
<glyph unicode="&#x451;" horiz-adv-x="1312" d="M92 502q0 -526 631 -527q221 0 369.5 71t148.5 212q0 51 -24.5 105.5t-67.5 80.5q-135 -88 -336 -88q-197 0 -225 97q86 -16 172 -17q100 0 189 15.5t168 49.5t124 95t45 143q0 168 -149.5 259.5t-411.5 91.5q-297 0 -465 -157t-168 -431zM233 1292q0 80 71 142.5 t192 62.5q111 0 167 -46t56 -122q0 -82 -70.5 -144.5t-191.5 -62.5q-111 0 -167.5 46t-56.5 124zM604 592q4 82 48 139t124 57q82 0 82 -73q0 -53 -65.5 -87t-188.5 -36zM786 1292q0 80 71 142.5t192 62.5q111 0 167 -46t56 -122q0 -82 -70.5 -144.5t-191.5 -62.5 q-111 0 -167.5 46t-56.5 124z" />
<glyph unicode="&#x452;" horiz-adv-x="1497" d="M49 1176q0 117 166 116h6v168q250 72 350 72q80 0 111 -67t39 -173h237q47 0 109 15q49 -59 49 -127q0 -117 -166 -117h-227v-305q139 270 395 270q143 0 225 -102.5t82 -307.5v-477q0 -109 -13 -207t-50 -198.5t-92.5 -173t-146.5 -118.5t-208 -46q-129 0 -207.5 71.5 t-78.5 178.5q0 53 22 110q39 -20 78 -20q61 0 101 34.5t58.5 100.5t26 127t7.5 145v430q0 86 -58 87q-55 0 -98 -78t-43 -199v-96q8 -115 51 -223q-49 -10 -145.5 -33t-162 -36t-93.5 -13q-49 0 -80 19.5t-45.5 59t-19.5 74.5t-7 90v836h-14q-47 0 -109 -14q-49 59 -49 127z " />
<glyph unicode="&#x453;" horiz-adv-x="1234" d="M-14 1077h911q115 2 217 43q88 -158 88 -256q0 -170 -264 -180h-233q-16 0 -22.5 -6t-6.5 -23v-301q2 -78 30.5 -107.5t102.5 -39.5q-49 -223 -315 -223q-326 0 -326 305v514q-63 2 -103 27.5t-55.5 71.5t-19.5 84t-4 91zM270 1311q0 37 27 69l297 369q72 -12 137.5 -57 t89.5 -111q18 -43 11 -95t-46 -83l-337 -268q-63 20 -121 69t-58 107z" />
<glyph unicode="&#x454;" horiz-adv-x="1130" d="M27 526q0 111 29.5 205t96 178t193.5 132.5t303 48.5q201 0 323 -60.5t122 -175.5q0 -51 -34 -98t-87 -68q-92 70 -277 70q-76 0 -121 -20t-51 -79h250q106 0 107 -98v-39q0 -98 -107 -98h-252q6 -59 57.5 -84t170.5 -25q147 0 249 91q47 -25 75 -75t28 -106 q0 -250 -449 -250q-340 0 -483 121t-143 430z" />
<glyph unicode="&#x455;" horiz-adv-x="1212" d="M92 221q0 61 35 113.5t96 79.5q166 -104 369 -105q66 0 65 37q0 23 -56 36t-136 28.5t-161 43t-137 96t-56 171.5q0 170 150.5 269.5t434.5 99.5q223 0 344 -60.5t121 -173.5q0 -57 -43 -108.5t-131 -77.5q-57 45 -159.5 75.5t-196.5 30.5q-78 0 -78 -35 q0 -18 62.5 -34.5t151.5 -39t177 -56t150.5 -105.5t62.5 -170q0 -360 -582 -361q-483 0 -483 246z" />
<glyph unicode="&#x456;" horiz-adv-x="802" d="M0 1028q0 -41 2 -71.5t13.5 -71.5t31 -67.5t57 -46t89.5 -21.5v-523q2 -55 7 -90t19 -74.5t45 -59t80 -19.5q31 0 97.5 13t165 35.5t145.5 33.5q-44 108 -52 223v596q0 37 -1 58.5t-8 53t-21.5 49t-41 31t-65.5 13.5q-76 -6 -261 -32t-302 -30zM150 1343q0 104 77.5 168 t206.5 64q119 0 182.5 -54.5t63.5 -150.5q0 -104 -69.5 -164.5t-204.5 -60.5q-256 0 -256 198z" />
<glyph unicode="&#x457;" horiz-adv-x="1089" d="M0 1313q0 80 70.5 142.5t191.5 62.5q111 0 167 -46.5t56 -121.5q0 -82 -70.5 -144.5t-191.5 -62.5q-111 0 -167 46t-56 124zM145 1028q0 -41 2.5 -71.5t13.5 -71.5t30.5 -67.5t57.5 -46t89 -21.5v-523q2 -55 7 -90t19.5 -74.5t45 -59t79.5 -19.5q31 0 97.5 13t165 35.5 t145.5 33.5q-43 108 -51 223v596q0 37 -1 58.5t-8.5 53t-21.5 49t-40.5 31t-65.5 13.5q-76 -6 -261.5 -32t-302.5 -30zM553 1313q0 80 70.5 142.5t191.5 62.5q111 0 167 -46.5t56 -121.5q0 -82 -70.5 -144.5t-191.5 -62.5q-111 0 -167 46t-56 124z" />
<glyph unicode="&#x458;" horiz-adv-x="786" d="M-82 -352q0 -106 79 -178t208 -72q117 0 208 46t146 118.5t92 173t50.5 198.5t13.5 207v744q0 37 -1 58.5t-8.5 53t-21.5 49t-41 31t-65 13.5q-76 -6 -260.5 -32t-299.5 -30q0 -41 2.5 -71.5t13.5 -71.5t30.5 -67.5t57.5 -46t89 -21.5v-543q0 -78 -2 -127t-12.5 -122 t-28.5 -115t-57 -73.5t-93 -31.5q-39 0 -77 20q-23 -57 -23 -110zM154 1343q0 104 77.5 168t206.5 64q119 0 182.5 -54.5t63.5 -150.5q0 -104 -69.5 -164.5t-204.5 -60.5q-256 0 -256 198z" />
<glyph unicode="&#x459;" horiz-adv-x="2013" d="M16 242q0 41 13 98q31 -6 47 -6q57 0 99 36t63.5 82t34 120.5t15.5 120.5t5 112q-117 6 -166 89t-47 185h1124q49 0 80 -19.5t45 -57t19.5 -71.5t7.5 -87v-121q57 59 141 95t164 36q168 0 270.5 -112.5t102.5 -274.5q0 -109 -41 -195t-107.5 -139t-156 -88t-176.5 -48 t-181 -13q-115 0 -204 19.5t-163.5 66.5t-114.5 134t-40 212v381h-59q-16 0 -22.5 -8.5t-6.5 -34.5q-8 -428 -123 -599t-352 -171q-127 0 -199 68.5t-72 189.5zM1346 494q0 -82 31.5 -121t80.5 -39q39 0 62.5 25.5t23.5 70.5q0 76 -58 111t-140 37v-84z" />
<glyph unicode="&#x45a;" horiz-adv-x="2070" d="M-8 1028q117 4 302 29.5t261 32.5q39 0 65.5 -13.5t41 -31t21.5 -49t8 -53t1 -58.5v-158q0 -16 6.5 -22.5t22.5 -6.5h186v88q-8 113 -49 222q356 82 404 82q39 0 66.5 -14.5t42.5 -35t24.5 -55.5t11.5 -62.5t4 -70.5v-129q57 57 142 94t165 37q168 0 270.5 -112.5 t102.5 -274.5q0 -109 -41 -195t-107.5 -139t-155.5 -88t-176 -48t-181 -13q-233 0 -373 89t-150 310q0 18 -6 24.5t-22 6.5h-187v-125q8 -115 51 -223q-47 -10 -145 -33t-164.5 -36t-97.5 -13q-49 0 -80 19.5t-45 59t-19.5 74.5t-7.5 90v523q-51 2 -89 21.5t-57.5 46 t-30.5 67.5t-13 71.5t-2 71.5zM1403 494q0 -82 31.5 -121t81.5 -39q39 0 62.5 25.5t23.5 70.5q0 76 -58.5 111t-140.5 37v-84z" />
<glyph unicode="&#x45b;" horiz-adv-x="1499" d="M31 1176q0 117 166 116h6v168q250 72 350 72q80 0 110.5 -66.5t38.5 -173.5h238q47 0 109 15q49 -59 49 -127q0 -117 -166 -117h-227v-305q139 270 395 270q143 0 225 -102.5t82 -307.5v-264q2 -78 30.5 -107.5t102.5 -39.5q-51 -223 -311 -223q-326 0 -326 305v286 q0 86 -57 87q-55 0 -98 -78t-43 -199v-96q8 -115 51 -223q-49 -10 -145.5 -33t-162 -36t-94.5 -13q-49 0 -79.5 19.5t-45 59t-19.5 74.5t-7 90v836h-15q-47 0 -108 -14q-49 59 -49 127z" />
<glyph unicode="&#x45c;" horiz-adv-x="1445" d="M-10 1028q127 4 325.5 30.5t237.5 31.5q39 0 66.5 -13.5t42 -31t21.5 -49t8 -53t1 -58.5v-246q172 23 172 188q0 78 -37 162q100 100 256 101q113 0 191 -63.5t78 -182.5q0 -176 -172 -289q90 -227 278 -260q0 -152 -93 -236t-208 -84q-160 0 -248 103.5t-164 388.5h-53 v-178q8 -121 49 -223q-37 -8 -140 -32t-168.5 -37t-98.5 -13q-49 0 -80 19.5t-45 59t-19.5 74.5t-7.5 90v523q-51 2 -89 21.5t-57.5 46t-30.5 67.5t-13 71.5t-2 71.5zM592 1241q0 37 26 70l297 368q72 -12 137.5 -57t90.5 -111q18 -43 11 -95t-46 -83l-338 -268 q-63 20 -120.5 69.5t-57.5 106.5z" />
<glyph unicode="&#x45e;" horiz-adv-x="1429" d="M-10 1028q0 -41 2 -71.5t13 -71.5t30.5 -67.5t57.5 -46t89 -21.5v-383q0 -391 312 -392q125 0 213.5 64.5t162.5 220.5q0 -55 -5 -108.5t-22.5 -114t-45 -104.5t-76.5 -73.5t-113 -29.5q-100 0 -168 59q-121 -59 -121 -200q0 -123 94.5 -206t264.5 -83q143 0 256 46 t186.5 133t123.5 193.5t77 249t37 275.5t10 293v262q-2 43 -4 70.5t-11.5 62.5t-24.5 55.5t-43 35t-66.5 14.5t-395.5 -82q39 -102 47 -222v-237q0 -94 -30.5 -150.5t-77.5 -56.5q-72 0 -72 86v457q0 37 -1 58.5t-8 53t-21.5 49t-41 31t-65.5 13.5q-76 -6 -261.5 -32 t-301.5 -30zM346 1395q0 68 44 116t134 56q98 -123 226 -123q125 0 227 123q88 -8 132 -57.5t44 -114.5q0 -111 -112.5 -187t-290.5 -78q-178 2 -291 78t-113 187z" />
<glyph unicode="&#x45f;" horiz-adv-x="1482" d="M-10 1028q127 4 345 31.5t236 30.5q39 0 67 -13.5t42 -31t21.5 -49t8.5 -53t1 -58.5v-572q0 -18 6 -24t22 -6h195v503q-8 119 -51 222q358 82 409 82q47 0 78 -19.5t45.5 -57.5t19.5 -73t7 -88v-608q-2 -55 -7 -90t-21.5 -75t-51.5 -59.5t-90 -19.5h-223q-20 -4 -27 -27 l-64 -241q-27 -104 -90 -105h-96q-63 0 -90 105l-68 268h-241q-55 0 -90 19.5t-51.5 59.5t-21.5 74.5t-7 90.5v506q-63 2 -108.5 28.5t-67 71.5t-29.5 88t-8 90z" />
<glyph unicode="&#x490;" horiz-adv-x="1277" d="M16 1282q1 54 11 109h749q219 0 219 186q141 -16 206 -111.5t65 -226.5q0 -162 -93.5 -236.5t-248.5 -74.5h-199q-23 -2 -23 -31v-543q8 -156 54 -286q-336 -84 -385 -84q-51 0 -84 25.5t-48.5 74.5t-21.5 95t-8 116v743q-193 35 -193 244z" />
<glyph unicode="&#x491;" horiz-adv-x="1273" d="M14 1077h809q57 0 92 14.5t49.5 44t18.5 54t4 67.5q129 -8 199.5 -94t70.5 -198q0 -115 -69.5 -195t-194.5 -80h-239q-16 0 -22.5 -6t-6.5 -22v-308q2 -78 30.5 -107.5t102.5 -39.5q-49 -223 -315 -223q-326 0 -326 305v514q-203 4 -203 274z" />
<glyph unicode="&#x2000;" horiz-adv-x="1030" />
<glyph unicode="&#x2001;" horiz-adv-x="2060" />
<glyph unicode="&#x2002;" horiz-adv-x="1030" />
<glyph unicode="&#x2003;" horiz-adv-x="2060" />
<glyph unicode="&#x2004;" horiz-adv-x="686" />
<glyph unicode="&#x2005;" horiz-adv-x="515" />
<glyph unicode="&#x2006;" horiz-adv-x="343" />
<glyph unicode="&#x2007;" horiz-adv-x="343" />
<glyph unicode="&#x2008;" horiz-adv-x="257" />
<glyph unicode="&#x2009;" horiz-adv-x="412" />
<glyph unicode="&#x200a;" horiz-adv-x="114" />
<glyph unicode="&#x2010;" horiz-adv-x="917" d="M29 623q0 100 54 138t175 40h369q139 0 219 37q45 -113 45 -234q0 -100 -53 -138t-174 -40h-371q-139 0 -219 -37q-45 113 -45 234z" />
<glyph unicode="&#x2011;" horiz-adv-x="917" d="M29 623q0 100 54 138t175 40h369q139 0 219 37q45 -113 45 -234q0 -100 -53 -138t-174 -40h-371q-139 0 -219 -37q-45 113 -45 234z" />
<glyph unicode="&#x2012;" horiz-adv-x="917" d="M29 623q0 100 54 138t175 40h369q139 0 219 37q45 -113 45 -234q0 -100 -53 -138t-174 -40h-371q-139 0 -219 -37q-45 113 -45 234z" />
<glyph unicode="&#x2013;" horiz-adv-x="1316" d="M31 567q0 111 65.5 165t235.5 54q86 0 356 -11t311 -11q131 0 226 47q63 -80 63 -201q0 -111 -65.5 -165t-235.5 -54q-86 0 -356.5 11.5t-311.5 11.5q-131 0 -225 -47q-63 80 -63 200z" />
<glyph unicode="&#x2014;" horiz-adv-x="1490" d="M14 567q0 111 65.5 165t235.5 54q86 0 459 -11t414 -11q131 0 225 47q63 -80 64 -201q0 -111 -65.5 -165t-235.5 -54q-86 0 -459 11.5t-414 11.5q-131 0 -225 -47q-63 80 -64 200z" />
<glyph unicode="&#x2018;" horiz-adv-x="575" d="M23 1047q0 147 101 258.5t251 111.5q135 0 182 -104q-137 -63 -137 -178q0 -37 26.5 -94.5t26.5 -86.5q0 -74 -68.5 -120t-150.5 -46q-113 0 -172 78t-59 181z" />
<glyph unicode="&#x2019;" horiz-adv-x="575" d="M18 893q137 63 138 178q0 35 -27 92.5t-27 87.5q0 74 69 120t151 46q113 0 172 -77.5t59 -180.5q0 -147 -101.5 -259t-250.5 -112q-136 1 -183 105z" />
<glyph unicode="&#x201c;" horiz-adv-x="1093" d="M29 1047q0 147 101 258.5t251 111.5q135 0 182 -104q-137 -63 -137 -178q0 -37 26.5 -94.5t26.5 -86.5q0 -74 -68.5 -120t-150.5 -46q-113 0 -172 78t-59 181zM535 1047q0 147 101 258.5t251 111.5q135 0 182 -104q-137 -63 -137 -178q0 -37 26.5 -94.5t26.5 -86.5 q0 -74 -68.5 -120t-150.5 -46q-113 0 -172 78t-59 181z" />
<glyph unicode="&#x201d;" horiz-adv-x="1093" d="M25 893q137 63 137 178q0 35 -26.5 92.5t-26.5 87.5q0 74 68.5 120t150.5 46q113 0 172 -77.5t59 -180.5q0 -147 -101.5 -259t-250.5 -112q-135 1 -182 105zM530 893q137 63 138 178q0 35 -27 92.5t-27 87.5q0 74 69 120t151 46q113 0 172 -77.5t59 -180.5 q0 -147 -101.5 -259t-250.5 -112q-136 1 -183 105z" />
<glyph unicode="&#x201e;" horiz-adv-x="1093" d="M25 -127q137 63 137 178q0 35 -26.5 92.5t-26.5 87.5q0 74 68.5 120t150.5 46q113 0 172 -77.5t59 -180.5q0 -147 -101.5 -258.5t-250.5 -111.5q-135 0 -182 104zM530 -127q137 63 138 178q0 35 -27 92.5t-27 87.5q0 74 69 120t151 46q113 0 172 -77.5t59 -180.5 q0 -147 -101.5 -258.5t-250.5 -111.5q-136 0 -183 104z" />
<glyph unicode="&#x2020;" horiz-adv-x="1110" d="M8 1032q0 68 36 123t99 80q98 -88 267 -98q-61 166 -62 268q0 156 180 156h37q78 0 121 -29t51 -58.5t8 -68.5q0 -66 -65 -268q106 94 227 94q84 0 138.5 -52.5t54.5 -146.5q0 -135 -111 -219q-109 57 -295 57q-84 0 -234.5 -27.5t-223.5 -27.5q-88 0 -158 51t-70 166z M389 698q35 121 189 121q90 0 137 -27.5t57 -93.5l-55 -608q-14 -123 -125 -123q-115 0 -154 39z" />
<glyph unicode="&#x2022;" horiz-adv-x="862" d="M25 616q0 156 118.5 278t321.5 122q178 0 275.5 -98.5t97.5 -235.5q0 -156 -119 -277.5t-322 -121.5q-180 0 -276 97t-96 236z" />
<glyph unicode="&#x2026;" horiz-adv-x="1603" d="M31 166q0 90 69.5 160.5t186.5 70.5q106 0 161.5 -52t55.5 -138q0 -90 -69.5 -161t-186.5 -71q-109 0 -163 52.5t-54 138.5zM565 166q0 90 70 160.5t186 70.5q106 0 161.5 -52t55.5 -138q0 -90 -69.5 -161t-186.5 -71q-109 0 -163 52.5t-54 138.5zM1100 166 q0 90 69.5 160.5t186.5 70.5q106 0 161.5 -52t55.5 -138q0 -90 -69.5 -161t-186.5 -71q-109 0 -163 52.5t-54 138.5z" />
<glyph unicode="&#x202f;" horiz-adv-x="412" />
<glyph unicode="&#x205f;" horiz-adv-x="515" />
<glyph unicode="&#x2122;" horiz-adv-x="1904" d="M25 1397q0 61 47 98t129 37h432q84 0 133 31q61 -90 61 -160q0 -61 -47 -97t-129 -36h-49v-287q0 -70 31 -154q-215 -49 -248 -49q-106 0 -106 176v314h-60q-70 0 -135 -31q-59 88 -59 158zM842 956l20 420q4 156 105 156h123q72 0 111.5 -19.5t62.5 -78.5l73 -191 q53 127 78 191q23 59 62 78.5t112 19.5h131q55 0 78 -39t27 -117l10 -393q4 -51 39 -154q-27 -6 -78 -19t-92 -21.5t-76 -8.5q-66 0 -88 48.5t-22 127.5l10 218l-51 -109q-45 -84 -103 -84h-63q-66 0 -105 84l-55 109l10 -191q2 -47 39 -154q-27 -6 -78 -19t-93 -21.5 t-79 -8.5q-108 0 -108 176z" />
<glyph unicode="&#x2206;" horiz-adv-x="1400" d="M55 172l475 1024q23 49 50.5 66.5t78.5 17.5h84q51 0 77.5 -16.5t51.5 -65.5l478 -1022q25 -78 -15.5 -127t-122.5 -49h-1015q-78 0 -125 52t-17 120zM477 293h434l-219 498z" />
<glyph unicode="&#x221a;" horiz-adv-x="1304" d="M6 792.5q0 71.5 48.5 115.5t140.5 44h172q55 0 84.5 -20.5t50.5 -71.5q25 -68 78 -196.5t75 -188.5l269 733q18 53 45.5 70.5t85.5 17.5h78q80 0 110.5 -31.5t-0.5 -121.5l-403 -1055q-23 -55 -51.5 -71.5t-88.5 -16.5h-86q-59 0 -87.5 15.5t-55.5 70.5l-231 553 q-6 12 -21 12h-18q-63 0 -138 -8q-57 78 -57 149.5z" />
<glyph unicode="&#x221e;" horiz-adv-x="1374" d="M29 637q0 174 104 263t260 89q170 0 293 -135q121 135 295 135q156 0 260.5 -89t104.5 -263q0 -168 -104.5 -257t-260.5 -89q-172 0 -301 135q-131 -135 -291 -135q-152 0 -256 89t-104 257zM274 639q0 -66 80 -66q70 0 146 66q-90 70 -146 70q-80 0 -80 -70zM872 641 q82 -70 146 -70q37 0 60.5 17.5t23.5 48.5q0 70 -82 70q-70 0 -148 -66z" />
<glyph unicode="&#x2248;" horiz-adv-x="1296" d="M31 319q0 123 81 193t222 70q111 0 302 -75t288 -75q141 0 219 119q123 -49 123 -209q0 -119 -80 -189.5t-221 -70.5q-117 0 -307.5 73.5t-282.5 73.5q-152 0 -219 -112q-125 55 -125 202zM31 811q0 123 81 192.5t222 69.5q111 0 302 -74.5t288 -74.5q141 0 219 118 q123 -49 123 -208q0 -119 -80 -190t-221 -71q-117 0 -307.5 74t-282.5 74q-152 0 -219 -113q-125 55 -125 203z" />
<glyph unicode="&#x2260;" horiz-adv-x="991" d="M20 348q0 84 50.5 126t181.5 42h455q143 0 219 37q47 -115 47 -207q0 -84 -50.5 -126t-181.5 -42h-225l-47 -145q-35 -88 -131 -88q-117 0 -174 82l49 149q-90 -8 -145 -35q-47 115 -48 207zM20 778q0 84 50.5 126t181.5 42h209l22 64q45 137 174 137q51 0 99.5 -20.5 t70.5 -57.5l-53 -123q94 8 152 37q47 -115 47 -207q0 -84 -50.5 -126t-181.5 -42h-454q-143 0 -219 -37q-47 115 -48 207z" />
<glyph unicode="&#x2264;" horiz-adv-x="950" d="M8 324q84 -13 205 -91l276 -196q86 -63 160 -64q127 0 187 254q-115 18 -205 90l-273 197q-96 61 -159 61q-133 0 -191 -251zM154 860q0 109 77 162l494 330q84 -23 137 -83.5t53 -138.5q1 -79 -65 -122l-291 -134l293 -141q72 -41 72 -131q0 -76 -58.5 -138.5 t-142.5 -80.5l-485 315q-84 57 -84 162z" />
<glyph unicode="&#x2265;" horiz-adv-x="950" d="M27 602q0 90 71 131l293 141l-287 132q-66 43 -65 122q0 78 53 138.5t137 83.5l490 -328q78 -53 78 -162q0 -104 -84 -162l-486 -315q-84 18 -142 80.5t-58 138.5zM115 227q59 -254 186 -254q74 1 160 64l276 196q121 78 205 91q-57 252 -190 251q-63 0 -160 -61 l-273 -197q-90 -72 -204 -90z" />
<glyph unicode="&#x25fc;" horiz-adv-x="1095" d="M0 0v1096h1096v-1096h-1096z" />
<glyph unicode="&#xfb02;" horiz-adv-x="1818" d="M20 870q0 102 67 151.5t169 49.5h59q-18 63 -18 133q0 352 491 352q104 0 301 -14t297 -14q158 0 209 51q104 -63 105 -180q-1 -50 -21 -101v-862q8 -94 51.5 -129t129.5 -35q-2 -137 -89.5 -212.5t-209.5 -75.5q-172 0 -281 93t-109 283v865q-106 10 -253 10 q-84 0 -130.5 -34t-48.5 -130l234 21q35 -86 35 -164q0 -92 -46.5 -154.5t-138.5 -75.5h-53v-409q8 -115 51 -223q-49 -10 -142 -32t-160.5 -36t-100.5 -14q-47 0 -78 19.5t-45 59t-19.5 74.5t-7.5 90v494l-200 -21q-47 90 -48 170z" />
</font>
</defs>
</svg>
